G75*
G70*
%OFA0B0*%
%FSLAX24Y24*%
%IPPOS*%
%LPD*%
%AMOC8*
5,1,8,0,0,1.08239X$1,22.5*
%
%ADD10C,0.1181*%
%ADD11R,0.1181X0.1181*%
%ADD12R,0.0650X0.0650*%
%ADD13C,0.0650*%
%ADD14C,0.0100*%
%ADD15C,0.0320*%
%ADD16C,0.0120*%
%ADD17C,0.0357*%
%ADD18C,0.0160*%
%ADD19C,0.1660*%
D10*
X014100Y015800D03*
X017200Y015800D03*
X024100Y010800D03*
X024100Y008950D03*
X027850Y008200D03*
X027850Y013400D03*
D11*
X024100Y012650D03*
D12*
X007600Y013600D03*
X007600Y009600D03*
X007600Y005600D03*
X007600Y017600D03*
X007600Y021600D03*
D13*
X007600Y022600D03*
X007600Y018600D03*
X007600Y014600D03*
X007600Y010600D03*
X007600Y006600D03*
D14*
X017400Y023550D02*
X017500Y023550D01*
X018700Y026100D02*
X018700Y026150D01*
X019050Y027200D02*
X020400Y027200D01*
X020400Y026450D01*
X022200Y025800D02*
X022200Y025750D01*
X022200Y023500D02*
X022200Y023400D01*
X024500Y020350D02*
X024500Y020250D01*
X026300Y022100D02*
X026400Y022100D01*
X026400Y022150D01*
X027500Y020350D02*
X027500Y020250D01*
X028200Y023800D02*
X028300Y023800D01*
X025000Y029100D02*
X025000Y029150D01*
X015400Y026500D02*
X015400Y026100D01*
D15*
X025500Y015600D02*
X025650Y015600D01*
D16*
X023900Y023450D02*
X022200Y023450D01*
X022200Y023500D01*
X022650Y025050D02*
X022650Y025400D01*
X022650Y025050D02*
X017650Y025050D01*
X017300Y024650D02*
X018550Y024650D01*
X023350Y026650D02*
X023450Y026650D01*
X023450Y026700D01*
X023850Y027250D02*
X025900Y027250D01*
X026100Y027259D01*
X028050Y026300D02*
X028050Y025600D01*
X028050Y026300D02*
X024000Y026300D01*
X025350Y024600D02*
X026950Y024600D01*
X026950Y025100D01*
D17*
X026950Y025100D03*
X028050Y025600D03*
X028300Y023800D03*
X026300Y022100D03*
X027500Y020250D03*
X024500Y020250D03*
X023900Y023450D03*
X022200Y023500D03*
X020900Y024500D03*
X022200Y025800D03*
X022650Y025400D03*
X023350Y026650D03*
X024000Y026300D03*
X023850Y027250D03*
X025000Y029150D03*
X026100Y027259D03*
X025350Y024600D03*
X020400Y026450D03*
X019050Y027200D03*
X018700Y026150D03*
X018550Y024650D03*
X017650Y025050D03*
X017300Y024650D03*
X017400Y023550D03*
X015400Y026100D03*
X016800Y027600D03*
X012700Y030050D03*
X012000Y030050D03*
X011200Y030050D03*
X010400Y030050D03*
X009700Y030050D03*
X009000Y030050D03*
X004300Y030900D03*
X008900Y023750D03*
X008900Y023150D03*
X008900Y022550D03*
X009600Y022550D03*
X009600Y023150D03*
X009600Y023750D03*
X010300Y023750D03*
X010300Y023150D03*
X010300Y022550D03*
X011100Y022550D03*
X011100Y023150D03*
X011100Y023750D03*
X011900Y023750D03*
X011900Y023150D03*
X012700Y023750D03*
X025650Y015600D03*
D18*
X000580Y000580D02*
X000580Y033616D01*
X030490Y033616D01*
X030490Y000580D01*
X000580Y000580D01*
X000580Y000734D02*
X030490Y000734D01*
X030490Y000893D02*
X000580Y000893D01*
X000580Y001051D02*
X030490Y001051D01*
X030490Y001210D02*
X000580Y001210D01*
X000580Y001368D02*
X030490Y001368D01*
X030490Y001527D02*
X000580Y001527D01*
X000580Y001685D02*
X002222Y001685D01*
X002403Y001610D02*
X002797Y001610D01*
X003161Y001761D01*
X003439Y002039D01*
X003590Y002403D01*
X003590Y002797D01*
X003439Y003161D01*
X003161Y003439D01*
X002797Y003590D01*
X002403Y003590D01*
X002039Y003439D01*
X001761Y003161D01*
X001610Y002797D01*
X001610Y002403D01*
X001761Y002039D01*
X002039Y001761D01*
X002403Y001610D01*
X001957Y001844D02*
X000580Y001844D01*
X000580Y002002D02*
X001798Y002002D01*
X001711Y002161D02*
X000580Y002161D01*
X000580Y002319D02*
X001645Y002319D01*
X001610Y002478D02*
X000580Y002478D01*
X000580Y002636D02*
X001610Y002636D01*
X001610Y002795D02*
X000580Y002795D01*
X000580Y002953D02*
X001675Y002953D01*
X001740Y003112D02*
X000580Y003112D01*
X000580Y003270D02*
X001870Y003270D01*
X002029Y003429D02*
X000580Y003429D01*
X000580Y003587D02*
X002396Y003587D01*
X002804Y003587D02*
X028396Y003587D01*
X028403Y003590D02*
X028039Y003439D01*
X027761Y003161D01*
X027610Y002797D01*
X027610Y002403D01*
X027761Y002039D01*
X028039Y001761D01*
X028403Y001610D01*
X028797Y001610D01*
X029161Y001761D01*
X029439Y002039D01*
X029590Y002403D01*
X029590Y002797D01*
X029439Y003161D01*
X029161Y003439D01*
X028797Y003590D01*
X028403Y003590D01*
X028804Y003587D02*
X030490Y003587D01*
X030490Y003429D02*
X029171Y003429D01*
X029330Y003270D02*
X030490Y003270D01*
X030490Y003112D02*
X029460Y003112D01*
X029525Y002953D02*
X030490Y002953D01*
X030490Y002795D02*
X029590Y002795D01*
X029590Y002636D02*
X030490Y002636D01*
X030490Y002478D02*
X029590Y002478D01*
X029555Y002319D02*
X030490Y002319D01*
X030490Y002161D02*
X029489Y002161D01*
X029402Y002002D02*
X030490Y002002D01*
X030490Y001844D02*
X029243Y001844D01*
X028978Y001685D02*
X030490Y001685D01*
X030490Y003746D02*
X000580Y003746D01*
X000580Y003904D02*
X030490Y003904D01*
X030490Y004063D02*
X000580Y004063D01*
X000580Y004221D02*
X030490Y004221D01*
X030490Y004380D02*
X000580Y004380D01*
X000580Y004538D02*
X030490Y004538D01*
X030490Y004697D02*
X000580Y004697D01*
X000580Y004855D02*
X030490Y004855D01*
X030490Y005014D02*
X000580Y005014D01*
X000580Y005172D02*
X007096Y005172D01*
X007075Y005192D02*
X007192Y005075D01*
X008008Y005075D01*
X008125Y005192D01*
X008125Y006008D01*
X008008Y006125D01*
X007771Y006125D01*
X007794Y006132D01*
X007865Y006168D01*
X007929Y006215D01*
X007985Y006271D01*
X008032Y006335D01*
X008068Y006406D01*
X008092Y006482D01*
X008105Y006560D01*
X008105Y006572D01*
X007628Y006572D01*
X007628Y006628D01*
X008105Y006628D01*
X008105Y006640D01*
X008092Y006718D01*
X008068Y006794D01*
X008032Y006865D01*
X007985Y006929D01*
X007929Y006985D01*
X007865Y007032D01*
X007794Y007068D01*
X007718Y007092D01*
X007640Y007105D01*
X007628Y007105D01*
X007628Y006628D01*
X007572Y006628D01*
X007572Y006572D01*
X007095Y006572D01*
X007095Y006560D01*
X007108Y006482D01*
X007132Y006406D01*
X007168Y006335D01*
X007215Y006271D01*
X007271Y006215D01*
X007335Y006168D01*
X007406Y006132D01*
X007429Y006125D01*
X007192Y006125D01*
X007075Y006008D01*
X007075Y005192D01*
X007075Y005331D02*
X000580Y005331D01*
X000580Y005489D02*
X007075Y005489D01*
X007075Y005648D02*
X000580Y005648D01*
X000580Y005806D02*
X007075Y005806D01*
X007075Y005965D02*
X000580Y005965D01*
X000580Y006123D02*
X007191Y006123D01*
X007207Y006282D02*
X000580Y006282D01*
X000580Y006440D02*
X007121Y006440D01*
X007095Y006628D02*
X007572Y006628D01*
X007572Y007105D01*
X007560Y007105D01*
X007482Y007092D01*
X007406Y007068D01*
X007335Y007032D01*
X007271Y006985D01*
X007215Y006929D01*
X007168Y006865D01*
X007132Y006794D01*
X007108Y006718D01*
X007095Y006640D01*
X007095Y006628D01*
X007120Y006757D02*
X000580Y006757D01*
X000580Y006599D02*
X007572Y006599D01*
X007628Y006599D02*
X030490Y006599D01*
X030490Y006757D02*
X008080Y006757D01*
X007995Y006916D02*
X030490Y006916D01*
X030490Y007074D02*
X007775Y007074D01*
X007628Y007074D02*
X007572Y007074D01*
X007425Y007074D02*
X000580Y007074D01*
X000580Y006916D02*
X007205Y006916D01*
X007572Y006916D02*
X007628Y006916D01*
X007628Y006757D02*
X007572Y006757D01*
X007993Y006282D02*
X030490Y006282D01*
X030490Y006440D02*
X008079Y006440D01*
X008009Y006123D02*
X030490Y006123D01*
X030490Y005965D02*
X008125Y005965D01*
X008125Y005806D02*
X030490Y005806D01*
X030490Y005648D02*
X008125Y005648D01*
X008125Y005489D02*
X030490Y005489D01*
X030490Y005331D02*
X008125Y005331D01*
X008104Y005172D02*
X030490Y005172D01*
X030490Y007233D02*
X000580Y007233D01*
X000580Y007391D02*
X030490Y007391D01*
X030490Y007550D02*
X028318Y007550D01*
X028298Y007530D02*
X028520Y007752D01*
X028641Y008043D01*
X028641Y008357D01*
X028520Y008648D01*
X028298Y008870D01*
X028007Y008991D01*
X027693Y008991D01*
X027402Y008870D01*
X027180Y008648D01*
X027059Y008357D01*
X027059Y008043D01*
X027180Y007752D01*
X027402Y007530D01*
X027693Y007409D01*
X028007Y007409D01*
X028298Y007530D01*
X028476Y007708D02*
X030490Y007708D01*
X030490Y007867D02*
X028568Y007867D01*
X028633Y008025D02*
X030490Y008025D01*
X030490Y008184D02*
X028641Y008184D01*
X028641Y008342D02*
X030490Y008342D01*
X030490Y008501D02*
X028581Y008501D01*
X028509Y008659D02*
X030490Y008659D01*
X030490Y008818D02*
X028350Y008818D01*
X028042Y008976D02*
X030490Y008976D01*
X030490Y009135D02*
X024879Y009135D01*
X024891Y009107D02*
X024770Y009398D01*
X024548Y009620D01*
X024257Y009741D01*
X023943Y009741D01*
X023652Y009620D01*
X023430Y009398D01*
X023309Y009107D01*
X023309Y008793D01*
X023430Y008502D01*
X023652Y008280D01*
X023943Y008159D01*
X024257Y008159D01*
X024548Y008280D01*
X024770Y008502D01*
X024891Y008793D01*
X024891Y009107D01*
X024891Y008976D02*
X027658Y008976D01*
X027350Y008818D02*
X024891Y008818D01*
X024835Y008659D02*
X027191Y008659D01*
X027119Y008501D02*
X024769Y008501D01*
X024610Y008342D02*
X027059Y008342D01*
X027059Y008184D02*
X024315Y008184D01*
X023885Y008184D02*
X000580Y008184D01*
X000580Y008342D02*
X023590Y008342D01*
X023431Y008501D02*
X000580Y008501D01*
X000580Y008659D02*
X023365Y008659D01*
X023309Y008818D02*
X000580Y008818D01*
X000580Y008976D02*
X023309Y008976D01*
X023321Y009135D02*
X008067Y009135D01*
X008125Y009192D02*
X008008Y009075D01*
X007192Y009075D01*
X007075Y009192D01*
X007075Y010008D01*
X007192Y010125D01*
X007429Y010125D01*
X007406Y010132D01*
X007335Y010168D01*
X007271Y010215D01*
X007215Y010271D01*
X007168Y010335D01*
X007132Y010406D01*
X007108Y010482D01*
X007095Y010560D01*
X007095Y010572D01*
X007572Y010572D01*
X007572Y010628D01*
X007095Y010628D01*
X007095Y010640D01*
X007108Y010718D01*
X007132Y010794D01*
X007168Y010865D01*
X007215Y010929D01*
X007271Y010985D01*
X007335Y011032D01*
X007406Y011068D01*
X007482Y011092D01*
X007560Y011105D01*
X007572Y011105D01*
X007572Y010628D01*
X007628Y010628D01*
X008105Y010628D01*
X008105Y010640D01*
X008092Y010718D01*
X008068Y010794D01*
X008032Y010865D01*
X007985Y010929D01*
X007929Y010985D01*
X007865Y011032D01*
X007794Y011068D01*
X007718Y011092D01*
X007640Y011105D01*
X007628Y011105D01*
X007628Y010628D01*
X007628Y010572D01*
X008105Y010572D01*
X008105Y010560D01*
X008092Y010482D01*
X008068Y010406D01*
X008032Y010335D01*
X007985Y010271D01*
X007929Y010215D01*
X007865Y010168D01*
X007794Y010132D01*
X007771Y010125D01*
X008008Y010125D01*
X008125Y010008D01*
X008125Y009192D01*
X008125Y009293D02*
X023386Y009293D01*
X023484Y009452D02*
X008125Y009452D01*
X008125Y009610D02*
X023642Y009610D01*
X023759Y010086D02*
X008047Y010086D01*
X008125Y009927D02*
X030490Y009927D01*
X030490Y009769D02*
X008125Y009769D01*
X007958Y010244D02*
X023538Y010244D01*
X023430Y010352D02*
X023652Y010130D01*
X023943Y010009D01*
X024257Y010009D01*
X024548Y010130D01*
X024770Y010352D01*
X024891Y010643D01*
X024891Y010957D01*
X024770Y011248D01*
X024548Y011470D01*
X024257Y011591D01*
X023943Y011591D01*
X023652Y011470D01*
X023430Y011248D01*
X023309Y010957D01*
X023309Y010643D01*
X023430Y010352D01*
X023409Y010403D02*
X008066Y010403D01*
X008105Y010561D02*
X023343Y010561D01*
X023309Y010720D02*
X008092Y010720D01*
X008022Y010878D02*
X023309Y010878D01*
X023342Y011037D02*
X007855Y011037D01*
X007628Y011037D02*
X007572Y011037D01*
X007572Y010878D02*
X007628Y010878D01*
X007628Y010720D02*
X007572Y010720D01*
X007345Y011037D02*
X000580Y011037D01*
X000580Y011195D02*
X023408Y011195D01*
X023536Y011354D02*
X000580Y011354D01*
X000580Y011512D02*
X010491Y011512D01*
X010572Y011466D02*
X010318Y011612D01*
X010112Y011818D01*
X009966Y012072D01*
X009890Y012354D01*
X009890Y012646D01*
X009966Y012928D01*
X010112Y013182D01*
X010318Y013388D01*
X010572Y013534D01*
X010854Y013610D01*
X011146Y013610D01*
X011428Y013534D01*
X011682Y013388D01*
X011888Y013182D01*
X012034Y012928D01*
X012110Y012646D01*
X012110Y012354D01*
X012034Y012072D01*
X011888Y011818D01*
X011682Y011612D01*
X011428Y011466D01*
X011146Y011390D01*
X010854Y011390D01*
X010572Y011466D01*
X010260Y011671D02*
X000580Y011671D01*
X000580Y011829D02*
X010106Y011829D01*
X010014Y011988D02*
X000580Y011988D01*
X000580Y012146D02*
X009946Y012146D01*
X009903Y012305D02*
X000580Y012305D01*
X000580Y012463D02*
X009890Y012463D01*
X009890Y012622D02*
X000580Y012622D01*
X000580Y012780D02*
X009926Y012780D01*
X009972Y012939D02*
X000580Y012939D01*
X000580Y013097D02*
X007171Y013097D01*
X007192Y013075D02*
X008008Y013075D01*
X008125Y013192D01*
X008125Y014008D01*
X008008Y014125D01*
X007771Y014125D01*
X007794Y014132D01*
X007865Y014168D01*
X007929Y014215D01*
X007985Y014271D01*
X008032Y014335D01*
X008068Y014406D01*
X008092Y014482D01*
X008105Y014560D01*
X008105Y014572D01*
X007628Y014572D01*
X007628Y014628D01*
X008105Y014628D01*
X008105Y014640D01*
X008092Y014718D01*
X008068Y014794D01*
X008032Y014865D01*
X007985Y014929D01*
X007929Y014985D01*
X007865Y015032D01*
X007794Y015068D01*
X007718Y015092D01*
X007640Y015105D01*
X007628Y015105D01*
X007628Y014628D01*
X007572Y014628D01*
X007572Y014572D01*
X007095Y014572D01*
X007095Y014560D01*
X007108Y014482D01*
X007132Y014406D01*
X007168Y014335D01*
X007215Y014271D01*
X007271Y014215D01*
X007335Y014168D01*
X007406Y014132D01*
X007429Y014125D01*
X007192Y014125D01*
X007075Y014008D01*
X007075Y013192D01*
X007192Y013075D01*
X007075Y013256D02*
X000580Y013256D01*
X000580Y013414D02*
X007075Y013414D01*
X007075Y013573D02*
X000580Y013573D01*
X000580Y013731D02*
X007075Y013731D01*
X007075Y013890D02*
X000580Y013890D01*
X000580Y014048D02*
X007116Y014048D01*
X007283Y014207D02*
X000580Y014207D01*
X000580Y014365D02*
X007153Y014365D01*
X007101Y014524D02*
X000580Y014524D01*
X000580Y014682D02*
X007102Y014682D01*
X007108Y014718D02*
X007095Y014640D01*
X007095Y014628D01*
X007572Y014628D01*
X007572Y015105D01*
X007560Y015105D01*
X007482Y015092D01*
X007406Y015068D01*
X007335Y015032D01*
X007271Y014985D01*
X007215Y014929D01*
X007168Y014865D01*
X007132Y014794D01*
X007108Y014718D01*
X007156Y014841D02*
X000580Y014841D01*
X000580Y014999D02*
X007290Y014999D01*
X007572Y014999D02*
X007628Y014999D01*
X007628Y014841D02*
X007572Y014841D01*
X007572Y014682D02*
X007628Y014682D01*
X007910Y014999D02*
X030490Y014999D01*
X030490Y014841D02*
X008044Y014841D01*
X008098Y014682D02*
X030490Y014682D01*
X030490Y014524D02*
X008099Y014524D01*
X008047Y014365D02*
X030490Y014365D01*
X030490Y014207D02*
X007917Y014207D01*
X008084Y014048D02*
X027380Y014048D01*
X027402Y014070D02*
X027180Y013848D01*
X027059Y013557D01*
X027059Y013243D01*
X027180Y012952D01*
X027402Y012730D01*
X027693Y012609D01*
X028007Y012609D01*
X028298Y012730D01*
X028520Y012952D01*
X028641Y013243D01*
X028641Y013557D01*
X028520Y013848D01*
X028298Y014070D01*
X028007Y014191D01*
X027693Y014191D01*
X027402Y014070D01*
X027222Y013890D02*
X008125Y013890D01*
X008125Y013731D02*
X027131Y013731D01*
X027066Y013573D02*
X020586Y013573D01*
X020446Y013610D02*
X020728Y013534D01*
X020982Y013388D01*
X021188Y013182D01*
X021334Y012928D01*
X021410Y012646D01*
X021410Y012354D01*
X021334Y012072D01*
X021188Y011818D01*
X020982Y011612D01*
X020728Y011466D01*
X020446Y011390D01*
X020154Y011390D01*
X019872Y011466D01*
X019618Y011612D01*
X019412Y011818D01*
X019266Y012072D01*
X019190Y012354D01*
X019190Y012646D01*
X019266Y012928D01*
X019412Y013182D01*
X019618Y013388D01*
X019872Y013534D01*
X020154Y013610D01*
X020446Y013610D01*
X020014Y013573D02*
X011286Y013573D01*
X011637Y013414D02*
X019663Y013414D01*
X019486Y013256D02*
X011814Y013256D01*
X011937Y013097D02*
X019363Y013097D01*
X019272Y012939D02*
X012028Y012939D01*
X012074Y012780D02*
X019226Y012780D01*
X019190Y012622D02*
X012110Y012622D01*
X012110Y012463D02*
X019190Y012463D01*
X019203Y012305D02*
X012097Y012305D01*
X012054Y012146D02*
X019246Y012146D01*
X019314Y011988D02*
X011986Y011988D01*
X011894Y011829D02*
X019406Y011829D01*
X019560Y011671D02*
X011740Y011671D01*
X011509Y011512D02*
X019791Y011512D01*
X020809Y011512D02*
X023753Y011512D01*
X023427Y011859D02*
X023309Y011977D01*
X023309Y013323D01*
X023427Y013441D01*
X024773Y013441D01*
X024891Y013323D01*
X024891Y011977D01*
X024773Y011859D01*
X023427Y011859D01*
X023309Y011988D02*
X021286Y011988D01*
X021354Y012146D02*
X023309Y012146D01*
X023309Y012305D02*
X021397Y012305D01*
X021410Y012463D02*
X023309Y012463D01*
X023309Y012622D02*
X021410Y012622D01*
X021374Y012780D02*
X023309Y012780D01*
X023309Y012939D02*
X021328Y012939D01*
X021237Y013097D02*
X023309Y013097D01*
X023309Y013256D02*
X021114Y013256D01*
X020937Y013414D02*
X023400Y013414D01*
X024800Y013414D02*
X027059Y013414D01*
X027059Y013256D02*
X024891Y013256D01*
X024891Y013097D02*
X027120Y013097D01*
X027193Y012939D02*
X024891Y012939D01*
X024891Y012780D02*
X027352Y012780D01*
X027664Y012622D02*
X024891Y012622D01*
X024891Y012463D02*
X030490Y012463D01*
X030490Y012305D02*
X024891Y012305D01*
X024891Y012146D02*
X030490Y012146D01*
X030490Y011988D02*
X024891Y011988D01*
X024447Y011512D02*
X030490Y011512D01*
X030490Y011354D02*
X024664Y011354D01*
X024792Y011195D02*
X030490Y011195D01*
X030490Y011037D02*
X024858Y011037D01*
X024891Y010878D02*
X030490Y010878D01*
X030490Y010720D02*
X024891Y010720D01*
X024857Y010561D02*
X030490Y010561D01*
X030490Y010403D02*
X024791Y010403D01*
X024662Y010244D02*
X030490Y010244D01*
X030490Y010086D02*
X024441Y010086D01*
X024558Y009610D02*
X030490Y009610D01*
X030490Y009452D02*
X024716Y009452D01*
X024814Y009293D02*
X030490Y009293D01*
X030490Y011671D02*
X021040Y011671D01*
X021194Y011829D02*
X030490Y011829D01*
X030490Y012622D02*
X028036Y012622D01*
X028348Y012780D02*
X030490Y012780D01*
X030490Y012939D02*
X028507Y012939D01*
X028580Y013097D02*
X030490Y013097D01*
X030490Y013256D02*
X028641Y013256D01*
X028641Y013414D02*
X030490Y013414D01*
X030490Y013573D02*
X028634Y013573D01*
X028569Y013731D02*
X030490Y013731D01*
X030490Y013890D02*
X028478Y013890D01*
X028320Y014048D02*
X030490Y014048D01*
X030490Y015158D02*
X017628Y015158D01*
X017629Y015158D02*
X017709Y015219D01*
X017781Y015291D01*
X017842Y015371D01*
X017893Y015458D01*
X017931Y015552D01*
X017957Y015649D01*
X017967Y015720D01*
X017280Y015720D01*
X017280Y015880D01*
X017120Y015880D01*
X017120Y016567D01*
X017049Y016557D01*
X016952Y016531D01*
X016858Y016493D01*
X016771Y016442D01*
X016691Y016381D01*
X016619Y016309D01*
X016558Y016229D01*
X016507Y016142D01*
X016469Y016048D01*
X016443Y015951D01*
X016433Y015880D01*
X017120Y015880D01*
X017120Y015720D01*
X016433Y015720D01*
X016443Y015649D01*
X016469Y015552D01*
X016507Y015458D01*
X016558Y015371D01*
X016619Y015291D01*
X016691Y015219D01*
X016771Y015158D01*
X016858Y015107D01*
X016952Y015069D01*
X017049Y015043D01*
X017120Y015033D01*
X017120Y015720D01*
X017280Y015720D01*
X017280Y015033D01*
X017351Y015043D01*
X017448Y015069D01*
X017542Y015107D01*
X017629Y015158D01*
X017800Y015316D02*
X030490Y015316D01*
X030490Y015475D02*
X017899Y015475D01*
X017953Y015633D02*
X030490Y015633D01*
X030490Y015792D02*
X017280Y015792D01*
X017280Y015880D02*
X017967Y015880D01*
X017957Y015951D01*
X017931Y016048D01*
X017893Y016142D01*
X017842Y016229D01*
X017781Y016309D01*
X017709Y016381D01*
X017629Y016442D01*
X017542Y016493D01*
X017448Y016531D01*
X017351Y016557D01*
X017280Y016567D01*
X017280Y015880D01*
X017280Y015950D02*
X017120Y015950D01*
X017120Y015792D02*
X014891Y015792D01*
X014891Y015643D02*
X014891Y015957D01*
X014770Y016248D01*
X014548Y016470D01*
X014257Y016591D01*
X013943Y016591D01*
X013652Y016470D01*
X013430Y016248D01*
X013309Y015957D01*
X013309Y015643D01*
X013430Y015352D01*
X013652Y015130D01*
X013943Y015009D01*
X014257Y015009D01*
X014548Y015130D01*
X014770Y015352D01*
X014891Y015643D01*
X014887Y015633D02*
X016447Y015633D01*
X016501Y015475D02*
X014821Y015475D01*
X014734Y015316D02*
X016600Y015316D01*
X016772Y015158D02*
X014576Y015158D01*
X014891Y015950D02*
X016443Y015950D01*
X016494Y016109D02*
X014828Y016109D01*
X014751Y016267D02*
X016587Y016267D01*
X016749Y016426D02*
X014592Y016426D01*
X014273Y016584D02*
X030490Y016584D01*
X030490Y016426D02*
X017651Y016426D01*
X017813Y016267D02*
X030490Y016267D01*
X030490Y016109D02*
X017906Y016109D01*
X017957Y015950D02*
X030490Y015950D01*
X030490Y016743D02*
X000580Y016743D01*
X000580Y016901D02*
X030490Y016901D01*
X030490Y017060D02*
X000580Y017060D01*
X000580Y017218D02*
X007075Y017218D01*
X007075Y017192D02*
X007192Y017075D01*
X008008Y017075D01*
X008125Y017192D01*
X008125Y018008D01*
X008008Y018125D01*
X007771Y018125D01*
X007794Y018132D01*
X007865Y018168D01*
X007929Y018215D01*
X007985Y018271D01*
X008032Y018335D01*
X008068Y018406D01*
X008092Y018482D01*
X008105Y018560D01*
X008105Y018572D01*
X007628Y018572D01*
X007628Y018628D01*
X008105Y018628D01*
X008105Y018640D01*
X008092Y018718D01*
X008068Y018794D01*
X008032Y018865D01*
X007985Y018929D01*
X007929Y018985D01*
X007865Y019032D01*
X007794Y019068D01*
X007718Y019092D01*
X007640Y019105D01*
X007628Y019105D01*
X007628Y018628D01*
X007572Y018628D01*
X007572Y018572D01*
X007095Y018572D01*
X007095Y018560D01*
X007108Y018482D01*
X007132Y018406D01*
X007168Y018335D01*
X007215Y018271D01*
X007271Y018215D01*
X007335Y018168D01*
X007406Y018132D01*
X007429Y018125D01*
X007192Y018125D01*
X007075Y018008D01*
X007075Y017192D01*
X007075Y017377D02*
X000580Y017377D01*
X000580Y017535D02*
X007075Y017535D01*
X007075Y017694D02*
X000580Y017694D01*
X000580Y017852D02*
X007075Y017852D01*
X007078Y018011D02*
X000580Y018011D01*
X000580Y018169D02*
X007334Y018169D01*
X007174Y018328D02*
X000580Y018328D01*
X000580Y018486D02*
X007107Y018486D01*
X007095Y018628D02*
X007572Y018628D01*
X007572Y019105D01*
X007560Y019105D01*
X007482Y019092D01*
X007406Y019068D01*
X007335Y019032D01*
X007271Y018985D01*
X007215Y018929D01*
X007168Y018865D01*
X007132Y018794D01*
X007108Y018718D01*
X007095Y018640D01*
X007095Y018628D01*
X007096Y018645D02*
X000580Y018645D01*
X000580Y018803D02*
X007137Y018803D01*
X007248Y018962D02*
X000580Y018962D01*
X000580Y019120D02*
X030490Y019120D01*
X030490Y018962D02*
X007952Y018962D01*
X008063Y018803D02*
X030490Y018803D01*
X030490Y018645D02*
X008104Y018645D01*
X008093Y018486D02*
X030490Y018486D01*
X030490Y018328D02*
X008026Y018328D01*
X007866Y018169D02*
X030490Y018169D01*
X030490Y018011D02*
X008122Y018011D01*
X008125Y017852D02*
X030490Y017852D01*
X030490Y017694D02*
X008125Y017694D01*
X008125Y017535D02*
X030490Y017535D01*
X030490Y017377D02*
X008125Y017377D01*
X008125Y017218D02*
X030490Y017218D01*
X030490Y019279D02*
X000580Y019279D01*
X000580Y019437D02*
X030490Y019437D01*
X030490Y019596D02*
X000580Y019596D01*
X000580Y019754D02*
X030490Y019754D01*
X030490Y019913D02*
X000580Y019913D01*
X000580Y020071D02*
X030490Y020071D01*
X030490Y020230D02*
X000580Y020230D01*
X000580Y020388D02*
X030490Y020388D01*
X030490Y020547D02*
X000580Y020547D01*
X000580Y020705D02*
X030490Y020705D01*
X030490Y020864D02*
X000580Y020864D01*
X000580Y021022D02*
X030490Y021022D01*
X030490Y021181D02*
X008113Y021181D01*
X008125Y021192D02*
X008125Y022008D01*
X008008Y022125D01*
X007771Y022125D01*
X007794Y022132D01*
X007865Y022168D01*
X007929Y022215D01*
X007985Y022271D01*
X008032Y022335D01*
X008068Y022406D01*
X008092Y022482D01*
X008105Y022560D01*
X008105Y022572D01*
X007628Y022572D01*
X007628Y022628D01*
X008105Y022628D01*
X008105Y022640D01*
X008092Y022718D01*
X008068Y022794D01*
X008032Y022865D01*
X007985Y022929D01*
X007929Y022985D01*
X007865Y023032D01*
X007794Y023068D01*
X007718Y023092D01*
X007640Y023105D01*
X007628Y023105D01*
X007628Y022628D01*
X007572Y022628D01*
X007572Y022572D01*
X007095Y022572D01*
X007095Y022560D01*
X007108Y022482D01*
X007132Y022406D01*
X007168Y022335D01*
X007215Y022271D01*
X007271Y022215D01*
X007335Y022168D01*
X007406Y022132D01*
X007429Y022125D01*
X007192Y022125D01*
X007075Y022008D01*
X007075Y021192D01*
X007192Y021075D01*
X008008Y021075D01*
X008125Y021192D01*
X008125Y021339D02*
X030490Y021339D01*
X030490Y021498D02*
X008125Y021498D01*
X008125Y021656D02*
X030490Y021656D01*
X030490Y021815D02*
X008125Y021815D01*
X008125Y021973D02*
X030490Y021973D01*
X030490Y022132D02*
X007792Y022132D01*
X007999Y022290D02*
X030490Y022290D01*
X030490Y022449D02*
X008082Y022449D01*
X008077Y022766D02*
X030490Y022766D01*
X030490Y022924D02*
X007989Y022924D01*
X007748Y023083D02*
X030490Y023083D01*
X030490Y023241D02*
X000580Y023241D01*
X000580Y023083D02*
X007452Y023083D01*
X007482Y023092D02*
X007406Y023068D01*
X007335Y023032D01*
X007271Y022985D01*
X007215Y022929D01*
X007168Y022865D01*
X007132Y022794D01*
X007108Y022718D01*
X007095Y022640D01*
X007095Y022628D01*
X007572Y022628D01*
X007572Y023105D01*
X007560Y023105D01*
X007482Y023092D01*
X007572Y023083D02*
X007628Y023083D01*
X007628Y022924D02*
X007572Y022924D01*
X007572Y022766D02*
X007628Y022766D01*
X007628Y022607D02*
X030490Y022607D01*
X030490Y023400D02*
X000580Y023400D01*
X000580Y023558D02*
X030490Y023558D01*
X030490Y023717D02*
X000580Y023717D01*
X000580Y023875D02*
X030490Y023875D01*
X030490Y024034D02*
X000580Y024034D01*
X000580Y024192D02*
X030490Y024192D01*
X030490Y024351D02*
X025579Y024351D01*
X025609Y024380D02*
X026859Y024380D01*
X027041Y024380D01*
X027170Y024509D01*
X030490Y024509D01*
X030490Y024668D02*
X027170Y024668D01*
X027170Y024826D02*
X030490Y024826D01*
X030490Y024985D02*
X027268Y024985D01*
X027288Y025033D02*
X027288Y025167D01*
X027237Y025292D01*
X027142Y025387D01*
X027017Y025438D01*
X026883Y025438D01*
X026758Y025387D01*
X026663Y025292D01*
X026612Y025167D01*
X026612Y025033D01*
X026663Y024908D01*
X026730Y024841D01*
X026730Y024820D01*
X025609Y024820D01*
X025542Y024887D01*
X025417Y024938D01*
X025283Y024938D01*
X025158Y024887D01*
X025063Y024792D01*
X025012Y024667D01*
X025012Y024533D01*
X025063Y024408D01*
X025158Y024313D01*
X025283Y024262D01*
X025417Y024262D01*
X025542Y024313D01*
X025609Y024380D01*
X025603Y024826D02*
X026730Y024826D01*
X026632Y024985D02*
X022870Y024985D01*
X022870Y024959D02*
X022870Y025141D01*
X022937Y025208D01*
X022988Y025333D01*
X022988Y025467D01*
X022937Y025592D01*
X022842Y025687D01*
X022717Y025738D01*
X022583Y025738D01*
X022458Y025687D01*
X022363Y025592D01*
X022312Y025467D01*
X022312Y025333D01*
X022338Y025270D01*
X017909Y025270D01*
X017842Y025337D01*
X017717Y025388D01*
X017583Y025388D01*
X017458Y025337D01*
X017363Y025242D01*
X017312Y025117D01*
X017312Y024988D01*
X017233Y024988D01*
X017108Y024937D01*
X017013Y024842D01*
X016962Y024717D01*
X016962Y024583D01*
X017013Y024458D01*
X017108Y024363D01*
X017233Y024312D01*
X017367Y024312D01*
X017492Y024363D01*
X017559Y024430D01*
X018291Y024430D01*
X018358Y024363D01*
X018483Y024312D01*
X018617Y024312D01*
X018742Y024363D01*
X018837Y024458D01*
X018888Y024583D01*
X018888Y024717D01*
X018842Y024830D01*
X022741Y024830D01*
X022870Y024959D01*
X022872Y025143D02*
X026612Y025143D01*
X026673Y025302D02*
X022976Y025302D01*
X022988Y025460D02*
X027742Y025460D01*
X027763Y025408D02*
X027858Y025313D01*
X027983Y025262D01*
X028117Y025262D01*
X028242Y025313D01*
X028337Y025408D01*
X028388Y025533D01*
X028388Y025667D01*
X028337Y025792D01*
X028270Y025859D01*
X028270Y026391D01*
X028141Y026520D01*
X024259Y026520D01*
X024192Y026587D01*
X024067Y026638D01*
X023933Y026638D01*
X023808Y026587D01*
X023713Y026492D01*
X023662Y026367D01*
X023662Y026233D01*
X023713Y026108D01*
X023808Y026013D01*
X023933Y025962D01*
X024067Y025962D01*
X024192Y026013D01*
X024259Y026080D01*
X027830Y026080D01*
X027830Y025859D01*
X027763Y025792D01*
X027712Y025667D01*
X027712Y025533D01*
X027763Y025408D01*
X027886Y025302D02*
X027227Y025302D01*
X027288Y025143D02*
X030490Y025143D01*
X030490Y025302D02*
X028214Y025302D01*
X028358Y025460D02*
X030490Y025460D01*
X030490Y025619D02*
X028388Y025619D01*
X028343Y025777D02*
X030490Y025777D01*
X030490Y025936D02*
X028270Y025936D01*
X028270Y026094D02*
X030490Y026094D01*
X030490Y026253D02*
X028270Y026253D01*
X028250Y026411D02*
X030490Y026411D01*
X030490Y026570D02*
X024209Y026570D01*
X023791Y026570D02*
X020717Y026570D01*
X020738Y026517D02*
X020687Y026642D01*
X020610Y026719D01*
X020610Y027287D01*
X020487Y027410D01*
X019319Y027410D01*
X019242Y027487D01*
X019117Y027538D01*
X018983Y027538D01*
X018858Y027487D01*
X018763Y027392D01*
X018712Y027267D01*
X018712Y027133D01*
X018763Y027008D01*
X018858Y026913D01*
X018983Y026862D01*
X019117Y026862D01*
X019242Y026913D01*
X019319Y026990D01*
X020190Y026990D01*
X020190Y026719D01*
X020113Y026642D01*
X020062Y026517D01*
X020062Y026383D01*
X020113Y026258D01*
X020208Y026163D01*
X020333Y026112D01*
X020467Y026112D01*
X020592Y026163D01*
X020687Y026258D01*
X020738Y026383D01*
X020738Y026517D01*
X020738Y026411D02*
X023680Y026411D01*
X023662Y026253D02*
X020681Y026253D01*
X020610Y026728D02*
X030490Y026728D01*
X030490Y026887D02*
X020610Y026887D01*
X020610Y027045D02*
X023576Y027045D01*
X023563Y027058D02*
X023658Y026963D01*
X023783Y026912D01*
X023917Y026912D01*
X024042Y026963D01*
X024109Y027030D01*
X025814Y027030D01*
X025818Y027026D01*
X025852Y027028D01*
X025908Y026972D01*
X026033Y026920D01*
X026167Y026920D01*
X026292Y026972D01*
X026387Y027067D01*
X026438Y027191D01*
X026438Y027326D01*
X026387Y027450D01*
X026292Y027546D01*
X026167Y027597D01*
X026033Y027597D01*
X025908Y027546D01*
X025833Y027470D01*
X024109Y027470D01*
X024042Y027537D01*
X023917Y027588D01*
X023783Y027588D01*
X023658Y027537D01*
X023563Y027442D01*
X023512Y027317D01*
X023512Y027183D01*
X023563Y027058D01*
X023512Y027204D02*
X020610Y027204D01*
X020535Y027362D02*
X023530Y027362D01*
X023642Y027521D02*
X019160Y027521D01*
X018940Y027521D02*
X000580Y027521D01*
X000580Y027679D02*
X030490Y027679D01*
X030490Y027521D02*
X026317Y027521D01*
X026423Y027362D02*
X030490Y027362D01*
X030490Y027204D02*
X026438Y027204D01*
X026365Y027045D02*
X030490Y027045D01*
X030490Y027838D02*
X000580Y027838D01*
X000580Y027996D02*
X030490Y027996D01*
X030490Y028155D02*
X000580Y028155D01*
X000580Y028313D02*
X030490Y028313D01*
X030490Y028472D02*
X000580Y028472D01*
X000580Y028630D02*
X030490Y028630D01*
X030490Y028789D02*
X000580Y028789D01*
X000580Y028947D02*
X030490Y028947D01*
X030490Y029106D02*
X000580Y029106D01*
X000580Y029264D02*
X030490Y029264D01*
X030490Y029423D02*
X000580Y029423D01*
X000580Y029581D02*
X030490Y029581D01*
X030490Y029740D02*
X000580Y029740D01*
X000580Y029898D02*
X030490Y029898D01*
X030490Y030057D02*
X000580Y030057D01*
X000580Y030215D02*
X030490Y030215D01*
X030490Y030374D02*
X000580Y030374D01*
X000580Y030532D02*
X030490Y030532D01*
X030490Y030691D02*
X000580Y030691D01*
X000580Y030849D02*
X030490Y030849D01*
X030490Y031008D02*
X000580Y031008D01*
X000580Y031166D02*
X030490Y031166D01*
X030490Y031325D02*
X000580Y031325D01*
X000580Y031483D02*
X030490Y031483D01*
X030490Y031642D02*
X028873Y031642D01*
X028797Y031610D02*
X029161Y031761D01*
X029439Y032039D01*
X029590Y032403D01*
X029590Y032797D01*
X029439Y033161D01*
X029161Y033439D01*
X028797Y033590D01*
X028403Y033590D01*
X028039Y033439D01*
X027761Y033161D01*
X027610Y032797D01*
X027610Y032403D01*
X027761Y032039D01*
X028039Y031761D01*
X028403Y031610D01*
X028797Y031610D01*
X029200Y031800D02*
X030490Y031800D01*
X030490Y031959D02*
X029359Y031959D01*
X029471Y032117D02*
X030490Y032117D01*
X030490Y032276D02*
X029537Y032276D01*
X029590Y032434D02*
X030490Y032434D01*
X030490Y032593D02*
X029590Y032593D01*
X029590Y032751D02*
X030490Y032751D01*
X030490Y032910D02*
X029543Y032910D01*
X029478Y033068D02*
X030490Y033068D01*
X030490Y033227D02*
X029373Y033227D01*
X029215Y033385D02*
X030490Y033385D01*
X030490Y033544D02*
X028909Y033544D01*
X028291Y033544D02*
X002909Y033544D01*
X002797Y033590D02*
X002403Y033590D01*
X002039Y033439D01*
X001761Y033161D01*
X001610Y032797D01*
X001610Y032403D01*
X001761Y032039D01*
X002039Y031761D01*
X002403Y031610D01*
X002797Y031610D01*
X003161Y031761D01*
X003439Y032039D01*
X003590Y032403D01*
X003590Y032797D01*
X003439Y033161D01*
X003161Y033439D01*
X002797Y033590D01*
X003215Y033385D02*
X027985Y033385D01*
X027827Y033227D02*
X003373Y033227D01*
X003478Y033068D02*
X027722Y033068D01*
X027657Y032910D02*
X003543Y032910D01*
X003590Y032751D02*
X027610Y032751D01*
X027610Y032593D02*
X003590Y032593D01*
X003590Y032434D02*
X027610Y032434D01*
X027663Y032276D02*
X003537Y032276D01*
X003471Y032117D02*
X027729Y032117D01*
X027841Y031959D02*
X003359Y031959D01*
X003200Y031800D02*
X028000Y031800D01*
X028327Y031642D02*
X002873Y031642D01*
X002327Y031642D02*
X000580Y031642D01*
X000580Y031800D02*
X002000Y031800D01*
X001841Y031959D02*
X000580Y031959D01*
X000580Y032117D02*
X001729Y032117D01*
X001663Y032276D02*
X000580Y032276D01*
X000580Y032434D02*
X001610Y032434D01*
X001610Y032593D02*
X000580Y032593D01*
X000580Y032751D02*
X001610Y032751D01*
X001657Y032910D02*
X000580Y032910D01*
X000580Y033068D02*
X001722Y033068D01*
X001827Y033227D02*
X000580Y033227D01*
X000580Y033385D02*
X001985Y033385D01*
X002291Y033544D02*
X000580Y033544D01*
X000580Y027362D02*
X018751Y027362D01*
X018712Y027204D02*
X000580Y027204D01*
X000580Y027045D02*
X018748Y027045D01*
X018922Y026887D02*
X000580Y026887D01*
X000580Y026728D02*
X020190Y026728D01*
X020190Y026887D02*
X019178Y026887D01*
X020083Y026570D02*
X000580Y026570D01*
X000580Y026411D02*
X020062Y026411D01*
X020119Y026253D02*
X000580Y026253D01*
X000580Y026094D02*
X023727Y026094D01*
X022910Y025619D02*
X027712Y025619D01*
X027757Y025777D02*
X000580Y025777D01*
X000580Y025619D02*
X022390Y025619D01*
X022312Y025460D02*
X000580Y025460D01*
X000580Y025302D02*
X017423Y025302D01*
X017322Y025143D02*
X000580Y025143D01*
X000580Y024985D02*
X017223Y024985D01*
X017007Y024826D02*
X000580Y024826D01*
X000580Y024668D02*
X016962Y024668D01*
X016992Y024509D02*
X000580Y024509D01*
X000580Y024351D02*
X017139Y024351D01*
X017461Y024351D02*
X018389Y024351D01*
X018711Y024351D02*
X025121Y024351D01*
X025021Y024509D02*
X018858Y024509D01*
X018888Y024668D02*
X025012Y024668D01*
X025097Y024826D02*
X018843Y024826D01*
X017877Y025302D02*
X022324Y025302D01*
X024058Y027521D02*
X025883Y027521D01*
X027830Y025936D02*
X000580Y025936D01*
X000580Y022924D02*
X007211Y022924D01*
X007123Y022766D02*
X000580Y022766D01*
X000580Y022607D02*
X007572Y022607D01*
X007201Y022290D02*
X000580Y022290D01*
X000580Y022132D02*
X007408Y022132D01*
X007075Y021973D02*
X000580Y021973D01*
X000580Y021815D02*
X007075Y021815D01*
X007075Y021656D02*
X000580Y021656D01*
X000580Y021498D02*
X007075Y021498D01*
X007075Y021339D02*
X000580Y021339D01*
X000580Y021181D02*
X007087Y021181D01*
X007118Y022449D02*
X000580Y022449D01*
X000580Y016584D02*
X013927Y016584D01*
X013608Y016426D02*
X000580Y016426D01*
X000580Y016267D02*
X013449Y016267D01*
X013372Y016109D02*
X000580Y016109D01*
X000580Y015950D02*
X013309Y015950D01*
X013309Y015792D02*
X000580Y015792D01*
X000580Y015633D02*
X013313Y015633D01*
X013379Y015475D02*
X000580Y015475D01*
X000580Y015316D02*
X013466Y015316D01*
X013624Y015158D02*
X000580Y015158D01*
X000580Y010878D02*
X007178Y010878D01*
X007108Y010720D02*
X000580Y010720D01*
X000580Y010561D02*
X007095Y010561D01*
X007134Y010403D02*
X000580Y010403D01*
X000580Y010244D02*
X007242Y010244D01*
X007153Y010086D02*
X000580Y010086D01*
X000580Y009927D02*
X007075Y009927D01*
X007075Y009769D02*
X000580Y009769D01*
X000580Y009610D02*
X007075Y009610D01*
X007075Y009452D02*
X000580Y009452D01*
X000580Y009293D02*
X007075Y009293D01*
X007133Y009135D02*
X000580Y009135D01*
X000580Y008025D02*
X027067Y008025D01*
X027132Y007867D02*
X000580Y007867D01*
X000580Y007708D02*
X027224Y007708D01*
X027382Y007550D02*
X000580Y007550D01*
X003171Y003429D02*
X028029Y003429D01*
X027870Y003270D02*
X003330Y003270D01*
X003460Y003112D02*
X027740Y003112D01*
X027675Y002953D02*
X003525Y002953D01*
X003590Y002795D02*
X027610Y002795D01*
X027610Y002636D02*
X003590Y002636D01*
X003590Y002478D02*
X027610Y002478D01*
X027645Y002319D02*
X003555Y002319D01*
X003489Y002161D02*
X027711Y002161D01*
X027798Y002002D02*
X003402Y002002D01*
X003243Y001844D02*
X027957Y001844D01*
X028222Y001685D02*
X002978Y001685D01*
X008029Y013097D02*
X010063Y013097D01*
X010186Y013256D02*
X008125Y013256D01*
X008125Y013414D02*
X010363Y013414D01*
X010714Y013573D02*
X008125Y013573D01*
X007628Y018645D02*
X007572Y018645D01*
X007572Y018803D02*
X007628Y018803D01*
X007628Y018962D02*
X007572Y018962D01*
X017120Y016426D02*
X017280Y016426D01*
X017280Y016267D02*
X017120Y016267D01*
X017120Y016109D02*
X017280Y016109D01*
X017280Y015633D02*
X017120Y015633D01*
X017120Y015475D02*
X017280Y015475D01*
X017280Y015316D02*
X017120Y015316D01*
X017120Y015158D02*
X017280Y015158D01*
X027170Y024509D02*
X027170Y024841D01*
X027237Y024908D01*
X027288Y025033D01*
D19*
X028600Y032600D03*
X002600Y032600D03*
X002600Y002600D03*
X028600Y002600D03*
M02*
