G75*
G70*
%OFA0B0*%
%FSLAX24Y24*%
%IPPOS*%
%LPD*%
%AMOC8*
5,1,8,0,0,1.08239X$1,22.5*
%
%ADD10C,0.1340*%
%ADD11R,0.0552X0.0395*%
%ADD12R,0.0161X0.0398*%
%ADD13R,0.0474X0.0631*%
%ADD14R,0.0395X0.0631*%
%ADD15C,0.0651*%
%ADD16R,0.0431X0.1176*%
%ADD17R,0.0552X0.0552*%
%ADD18R,0.0395X0.0552*%
%ADD19C,0.1261*%
%ADD20R,0.1261X0.1261*%
%ADD21R,0.0730X0.0730*%
%ADD22C,0.0730*%
%ADD23R,0.0220X0.0474*%
%ADD24R,0.1781X0.0482*%
%ADD25R,0.3982X0.4482*%
%ADD26C,0.0500*%
%ADD27C,0.0474*%
%ADD28C,0.0437*%
%ADD29C,0.1740*%
D10*
X011000Y012500D03*
X020300Y012500D03*
D11*
X024400Y017246D03*
X024400Y017954D03*
X024500Y019046D03*
X024500Y019754D03*
X027500Y019754D03*
X027500Y019046D03*
X022200Y023946D03*
X022200Y024654D03*
X021300Y024946D03*
X021300Y025654D03*
X020500Y025654D03*
X019700Y025654D03*
X019800Y026446D03*
X019800Y027154D03*
X019700Y024946D03*
X020500Y024946D03*
X019000Y024254D03*
X019000Y023546D03*
X018100Y023546D03*
X018100Y024254D03*
X016800Y024254D03*
X016800Y024946D03*
X016100Y024946D03*
X015400Y024946D03*
X015400Y025654D03*
X016100Y025654D03*
X016800Y025654D03*
X016800Y026446D03*
X016800Y027154D03*
X016800Y028046D03*
X016800Y028754D03*
X016800Y023546D03*
X022200Y026246D03*
X022200Y026954D03*
X023300Y028446D03*
X023300Y029154D03*
X024400Y029154D03*
X024400Y028446D03*
X007450Y024704D03*
X006750Y024704D03*
X006050Y024704D03*
X006050Y023996D03*
X006750Y023996D03*
X007450Y023996D03*
X006200Y029496D03*
X006200Y030204D03*
D12*
X017916Y027216D03*
X018172Y027216D03*
X018428Y027216D03*
X018684Y027216D03*
X018684Y025524D03*
X018428Y025524D03*
X018172Y025524D03*
X017916Y025524D03*
D13*
X023010Y017973D03*
X022636Y017107D03*
X023384Y017107D03*
X024926Y022128D03*
X025674Y022128D03*
X025300Y023072D03*
D14*
X025410Y018620D03*
X026590Y018620D03*
D15*
X026108Y019346D02*
X025892Y019346D01*
X025892Y020154D01*
X026108Y020154D01*
X026108Y019346D01*
X026108Y019996D02*
X025892Y019996D01*
D16*
X026400Y017381D03*
X026400Y015619D03*
X004300Y028169D03*
X004300Y029931D03*
D17*
X028687Y025600D03*
X029513Y025600D03*
X029513Y024400D03*
X028687Y024400D03*
X028687Y023200D03*
X029513Y023200D03*
D18*
X029454Y023800D03*
X028746Y023800D03*
X028746Y025000D03*
X029454Y025000D03*
X029454Y026200D03*
X028746Y026200D03*
D19*
X027850Y013400D03*
X024100Y010800D03*
X024100Y008950D03*
X027850Y008200D03*
X017200Y015800D03*
X014100Y015800D03*
D20*
X024100Y012650D03*
D21*
X007600Y013600D03*
X007600Y009600D03*
X007600Y005600D03*
X007600Y017600D03*
X007600Y021600D03*
D22*
X007600Y022600D03*
X007600Y018600D03*
X007600Y014600D03*
X007600Y010600D03*
X007600Y006600D03*
D23*
X023056Y023809D03*
X023253Y023809D03*
X023450Y023809D03*
X023647Y023809D03*
X023647Y024991D03*
X023450Y024991D03*
X023253Y024991D03*
X023056Y024991D03*
X023150Y026059D03*
X022953Y026059D03*
X022756Y026059D03*
X023347Y026059D03*
X023347Y027241D03*
X023150Y027241D03*
X022953Y027241D03*
X022756Y027241D03*
D24*
X007400Y027569D03*
X007400Y026900D03*
X007400Y026231D03*
X007400Y025561D03*
X007400Y028239D03*
D25*
X011000Y026900D03*
D26*
X027246Y030100D02*
X027248Y030137D01*
X027254Y030174D01*
X027263Y030209D01*
X027277Y030244D01*
X027293Y030277D01*
X027314Y030308D01*
X027337Y030337D01*
X027363Y030363D01*
X027392Y030386D01*
X027423Y030407D01*
X027456Y030423D01*
X027491Y030437D01*
X027526Y030446D01*
X027563Y030452D01*
X027600Y030454D01*
X027637Y030452D01*
X027674Y030446D01*
X027709Y030437D01*
X027744Y030423D01*
X027777Y030407D01*
X027808Y030386D01*
X027837Y030363D01*
X027863Y030337D01*
X027886Y030308D01*
X027907Y030277D01*
X027923Y030244D01*
X027937Y030209D01*
X027946Y030174D01*
X027952Y030137D01*
X027954Y030100D01*
X027952Y030063D01*
X027946Y030026D01*
X027937Y029991D01*
X027923Y029956D01*
X027907Y029923D01*
X027886Y029892D01*
X027863Y029863D01*
X027837Y029837D01*
X027808Y029814D01*
X027777Y029793D01*
X027744Y029777D01*
X027709Y029763D01*
X027674Y029754D01*
X027637Y029748D01*
X027600Y029746D01*
X027563Y029748D01*
X027526Y029754D01*
X027491Y029763D01*
X027456Y029777D01*
X027423Y029793D01*
X027392Y029814D01*
X027363Y029837D01*
X027337Y029863D01*
X027314Y029892D01*
X027293Y029923D01*
X027277Y029956D01*
X027263Y029991D01*
X027254Y030026D01*
X027248Y030063D01*
X027246Y030100D01*
X022246Y002600D02*
X022248Y002637D01*
X022254Y002674D01*
X022263Y002709D01*
X022277Y002744D01*
X022293Y002777D01*
X022314Y002808D01*
X022337Y002837D01*
X022363Y002863D01*
X022392Y002886D01*
X022423Y002907D01*
X022456Y002923D01*
X022491Y002937D01*
X022526Y002946D01*
X022563Y002952D01*
X022600Y002954D01*
X022637Y002952D01*
X022674Y002946D01*
X022709Y002937D01*
X022744Y002923D01*
X022777Y002907D01*
X022808Y002886D01*
X022837Y002863D01*
X022863Y002837D01*
X022886Y002808D01*
X022907Y002777D01*
X022923Y002744D01*
X022937Y002709D01*
X022946Y002674D01*
X022952Y002637D01*
X022954Y002600D01*
X022952Y002563D01*
X022946Y002526D01*
X022937Y002491D01*
X022923Y002456D01*
X022907Y002423D01*
X022886Y002392D01*
X022863Y002363D01*
X022837Y002337D01*
X022808Y002314D01*
X022777Y002293D01*
X022744Y002277D01*
X022709Y002263D01*
X022674Y002254D01*
X022637Y002248D01*
X022600Y002246D01*
X022563Y002248D01*
X022526Y002254D01*
X022491Y002263D01*
X022456Y002277D01*
X022423Y002293D01*
X022392Y002314D01*
X022363Y002337D01*
X022337Y002363D01*
X022314Y002392D01*
X022293Y002423D01*
X022277Y002456D01*
X022263Y002491D01*
X022254Y002526D01*
X022248Y002563D01*
X022246Y002600D01*
X007246Y002600D02*
X007248Y002637D01*
X007254Y002674D01*
X007263Y002709D01*
X007277Y002744D01*
X007293Y002777D01*
X007314Y002808D01*
X007337Y002837D01*
X007363Y002863D01*
X007392Y002886D01*
X007423Y002907D01*
X007456Y002923D01*
X007491Y002937D01*
X007526Y002946D01*
X007563Y002952D01*
X007600Y002954D01*
X007637Y002952D01*
X007674Y002946D01*
X007709Y002937D01*
X007744Y002923D01*
X007777Y002907D01*
X007808Y002886D01*
X007837Y002863D01*
X007863Y002837D01*
X007886Y002808D01*
X007907Y002777D01*
X007923Y002744D01*
X007937Y002709D01*
X007946Y002674D01*
X007952Y002637D01*
X007954Y002600D01*
X007952Y002563D01*
X007946Y002526D01*
X007937Y002491D01*
X007923Y002456D01*
X007907Y002423D01*
X007886Y002392D01*
X007863Y002363D01*
X007837Y002337D01*
X007808Y002314D01*
X007777Y002293D01*
X007744Y002277D01*
X007709Y002263D01*
X007674Y002254D01*
X007637Y002248D01*
X007600Y002246D01*
X007563Y002248D01*
X007526Y002254D01*
X007491Y002263D01*
X007456Y002277D01*
X007423Y002293D01*
X007392Y002314D01*
X007363Y002337D01*
X007337Y002363D01*
X007314Y002392D01*
X007293Y002423D01*
X007277Y002456D01*
X007263Y002491D01*
X007254Y002526D01*
X007248Y002563D01*
X007246Y002600D01*
D27*
X007600Y002600D03*
X022600Y002600D03*
X027600Y030100D03*
D28*
X025000Y029150D03*
X026100Y027259D03*
X026950Y025100D03*
X028050Y025600D03*
X028300Y023800D03*
X026300Y022100D03*
X027500Y020250D03*
X024500Y020250D03*
X023900Y023450D03*
X022200Y023500D03*
X020900Y024500D03*
X022200Y025800D03*
X022650Y025400D03*
X023350Y026650D03*
X024000Y026300D03*
X023850Y027250D03*
X025350Y024600D03*
X020400Y026450D03*
X019050Y027200D03*
X018700Y026150D03*
X018550Y024650D03*
X017650Y025050D03*
X017300Y024650D03*
X017400Y023550D03*
X015400Y026100D03*
X016800Y027600D03*
X012700Y030050D03*
X012000Y030050D03*
X011200Y030050D03*
X010400Y030050D03*
X009700Y030050D03*
X009000Y030050D03*
X004300Y030900D03*
X008900Y023750D03*
X008900Y023150D03*
X008900Y022550D03*
X009600Y022550D03*
X009600Y023150D03*
X009600Y023750D03*
X010300Y023750D03*
X010300Y023150D03*
X010300Y022550D03*
X011100Y022550D03*
X011100Y023150D03*
X011100Y023750D03*
X011900Y023750D03*
X011900Y023150D03*
X012700Y023750D03*
X025650Y015600D03*
D29*
X002600Y002600D03*
X028600Y002600D03*
X028600Y032600D03*
X002600Y032600D03*
M02*
