G75*
G70*
%OFA0B0*%
%FSLAX24Y24*%
%IPPOS*%
%LPD*%
%AMOC8*
5,1,8,0,0,1.08239X$1,22.5*
%
%ADD10C,0.0110*%
%ADD11C,0.0100*%
%ADD12C,0.0160*%
%ADD13C,0.0080*%
D10*
X008563Y002202D02*
X008957Y002202D01*
X008957Y002300D02*
X008859Y002399D01*
X008662Y002399D01*
X008563Y002300D01*
X008563Y002202D01*
X008662Y002005D02*
X008859Y002005D01*
X008957Y002103D01*
X008957Y002300D01*
X009208Y002399D02*
X009503Y002399D01*
X009601Y002300D01*
X009601Y002103D01*
X009503Y002005D01*
X009208Y002005D01*
X009488Y001399D02*
X009389Y001300D01*
X009389Y001202D01*
X009783Y001202D01*
X009783Y001300D02*
X009685Y001399D01*
X009488Y001399D01*
X009783Y001300D02*
X009783Y001103D01*
X009685Y001005D01*
X009488Y001005D01*
X010034Y001399D02*
X010231Y001005D01*
X010428Y001399D01*
X010759Y001399D02*
X010759Y001005D01*
X010857Y001005D02*
X010661Y001005D01*
X011090Y001005D02*
X011189Y001103D01*
X011189Y001497D01*
X011287Y001399D02*
X011090Y001399D01*
X010857Y001399D02*
X010759Y001399D01*
X010759Y001596D02*
X010759Y001694D01*
X010685Y002005D02*
X010389Y002005D01*
X010389Y002399D01*
X010139Y002399D02*
X010139Y002005D01*
X010139Y002202D02*
X009942Y002399D01*
X009843Y002399D01*
X010685Y002005D02*
X010783Y002103D01*
X010783Y002399D01*
X011034Y002300D02*
X011132Y002399D01*
X011329Y002399D01*
X011428Y002300D01*
X011428Y002103D01*
X011329Y002005D01*
X011132Y002005D01*
X011034Y002103D01*
X011034Y002300D01*
X011679Y002399D02*
X011974Y002399D01*
X012072Y002300D01*
X011974Y002202D01*
X011777Y002202D01*
X011679Y002103D01*
X011777Y002005D01*
X012072Y002005D01*
X012263Y001694D02*
X012263Y001596D01*
X012263Y001399D02*
X012263Y001005D01*
X012361Y001005D02*
X012165Y001005D01*
X011932Y001103D02*
X011833Y001202D01*
X011538Y001202D01*
X011538Y001300D02*
X011538Y001005D01*
X011833Y001005D01*
X011932Y001103D01*
X011833Y001399D02*
X011636Y001399D01*
X011538Y001300D01*
X012263Y001399D02*
X012361Y001399D01*
X012594Y001399D02*
X012791Y001399D01*
X012693Y001497D02*
X012693Y001103D01*
X012594Y001005D01*
X013024Y001005D02*
X013221Y001005D01*
X013122Y001005D02*
X013122Y001399D01*
X013221Y001399D01*
X013122Y001596D02*
X013122Y001694D01*
X012968Y002005D02*
X012968Y002300D01*
X013066Y002399D01*
X013361Y002399D01*
X013361Y002005D01*
X013612Y002202D02*
X014006Y002202D01*
X014006Y002300D02*
X013907Y002399D01*
X013711Y002399D01*
X013612Y002300D01*
X013612Y002202D01*
X013711Y002005D02*
X013907Y002005D01*
X014006Y002103D01*
X014006Y002300D01*
X014257Y002300D02*
X014257Y002103D01*
X014355Y002005D01*
X014650Y002005D01*
X014650Y001808D02*
X014650Y002399D01*
X014355Y002399D01*
X014257Y002300D01*
X014197Y001694D02*
X014197Y001596D01*
X014197Y001399D02*
X014197Y001005D01*
X014295Y001005D02*
X014098Y001005D01*
X013865Y001005D02*
X013865Y001399D01*
X013570Y001399D01*
X013472Y001300D01*
X013472Y001005D01*
X014197Y001399D02*
X014295Y001399D01*
X014901Y002103D02*
X014901Y002300D01*
X015000Y002399D01*
X015197Y002399D01*
X015295Y002300D01*
X015295Y002103D01*
X015197Y002005D01*
X015000Y002005D01*
X014901Y002103D01*
X014838Y007405D02*
X014838Y007799D01*
X014641Y007799D02*
X014543Y007799D01*
X014641Y007799D02*
X014838Y007602D01*
X015089Y007602D02*
X015483Y007602D01*
X015483Y007700D02*
X015384Y007799D01*
X015187Y007799D01*
X015089Y007700D01*
X015089Y007602D01*
X015187Y007405D02*
X015384Y007405D01*
X015483Y007503D01*
X015483Y007700D01*
X015734Y007700D02*
X015734Y007602D01*
X016127Y007602D01*
X016127Y007700D02*
X016029Y007799D01*
X015832Y007799D01*
X015734Y007700D01*
X015832Y007405D02*
X016029Y007405D01*
X016127Y007503D01*
X016127Y007700D01*
X016378Y007700D02*
X016378Y007405D01*
X016378Y007700D02*
X016477Y007799D01*
X016772Y007799D01*
X016772Y007405D01*
X017005Y007405D02*
X017201Y007405D01*
X017103Y007405D02*
X017103Y007799D01*
X017201Y007799D01*
X017103Y007996D02*
X017103Y008094D01*
X017452Y007799D02*
X017748Y007799D01*
X017846Y007700D01*
X017846Y007503D01*
X017748Y007405D01*
X017452Y007405D01*
X017452Y007307D02*
X017452Y007799D01*
X017452Y007307D02*
X017551Y007208D01*
X017649Y007208D01*
X018097Y007405D02*
X018097Y007700D01*
X018195Y007799D01*
X018491Y007799D01*
X018491Y007405D01*
X018741Y007602D02*
X019135Y007602D01*
X019135Y007700D02*
X019037Y007799D01*
X018840Y007799D01*
X018741Y007700D01*
X018741Y007602D01*
X018840Y007405D02*
X019037Y007405D01*
X019135Y007503D01*
X019135Y007700D01*
X019386Y007996D02*
X019780Y007405D01*
X020031Y007996D02*
X020424Y007405D01*
X020648Y007405D02*
X020747Y007405D01*
X020747Y007503D01*
X020648Y007503D01*
X020648Y007405D01*
X020648Y007700D02*
X020747Y007700D01*
X020747Y007799D01*
X020648Y007799D01*
X020648Y007700D01*
X020997Y007700D02*
X020997Y007503D01*
X021096Y007405D01*
X021391Y007405D01*
X021391Y007208D02*
X021391Y007799D01*
X021096Y007799D01*
X020997Y007700D01*
X021624Y007799D02*
X021821Y007799D01*
X021722Y007897D02*
X021722Y007503D01*
X021624Y007405D01*
X022054Y007405D02*
X022152Y007503D01*
X022152Y007897D01*
X022250Y007799D02*
X022054Y007799D01*
X022501Y007700D02*
X022501Y007405D01*
X022501Y007700D02*
X022600Y007799D01*
X022797Y007799D01*
X022895Y007700D01*
X022895Y007405D02*
X022895Y007996D01*
X022797Y008955D02*
X022501Y008955D01*
X022797Y008955D02*
X022895Y009053D01*
X022895Y009250D01*
X022797Y009349D01*
X022501Y009349D01*
X020961Y009250D02*
X020765Y009250D01*
X020961Y008955D02*
X020568Y008955D01*
X020317Y008955D02*
X020317Y009349D01*
X020022Y009349D01*
X019923Y009250D01*
X019923Y008955D01*
X019672Y009053D02*
X019672Y009250D01*
X019574Y009349D01*
X019279Y009349D01*
X019279Y008857D01*
X019377Y008758D01*
X019475Y008758D01*
X019574Y008955D02*
X019279Y008955D01*
X019028Y008955D02*
X018831Y008955D01*
X018929Y008955D02*
X018929Y009349D01*
X019028Y009349D01*
X018929Y009546D02*
X018929Y009644D01*
X018598Y009349D02*
X018303Y009349D01*
X018204Y009250D01*
X018204Y008955D01*
X017953Y009053D02*
X017953Y009250D01*
X017855Y009349D01*
X017658Y009349D01*
X017560Y009250D01*
X017560Y009152D01*
X017953Y009152D01*
X017953Y009053D02*
X017855Y008955D01*
X017658Y008955D01*
X017309Y009053D02*
X017309Y009250D01*
X017210Y009349D01*
X017014Y009349D01*
X016915Y009250D01*
X016915Y009152D01*
X017309Y009152D01*
X017309Y009053D02*
X017210Y008955D01*
X017014Y008955D01*
X016664Y008955D02*
X016664Y009349D01*
X016468Y009349D02*
X016369Y009349D01*
X016468Y009349D02*
X016664Y009152D01*
X016127Y009349D02*
X016029Y009349D01*
X016029Y008955D01*
X016127Y008955D02*
X015930Y008955D01*
X015698Y008955D02*
X015698Y009349D01*
X015402Y009349D01*
X015304Y009250D01*
X015304Y008955D01*
X015053Y009053D02*
X015053Y009250D01*
X014955Y009349D01*
X014659Y009349D01*
X014659Y008857D01*
X014758Y008758D01*
X014856Y008758D01*
X014955Y008955D02*
X014659Y008955D01*
X014955Y008955D02*
X015053Y009053D01*
X014408Y009349D02*
X014212Y009546D01*
X014015Y009349D01*
X013764Y009447D02*
X013665Y009546D01*
X013469Y009546D01*
X013370Y009447D01*
X013370Y009349D01*
X013469Y009250D01*
X013370Y009152D01*
X013370Y009053D01*
X013469Y008955D01*
X013665Y008955D01*
X013764Y009053D01*
X013567Y009250D02*
X013469Y009250D01*
X013021Y009053D02*
X013021Y008955D01*
X012922Y008955D01*
X012922Y009053D01*
X013021Y009053D01*
X012922Y008955D02*
X013119Y008758D01*
X012484Y007996D02*
X012287Y007996D01*
X012189Y007897D01*
X012189Y007799D01*
X012287Y007700D01*
X012189Y007602D01*
X012189Y007503D01*
X012287Y007405D01*
X012484Y007405D01*
X012582Y007503D01*
X012833Y007405D02*
X013128Y007405D01*
X013227Y007503D01*
X013227Y007700D01*
X013128Y007799D01*
X012833Y007799D01*
X012833Y007307D01*
X012932Y007208D01*
X013030Y007208D01*
X013478Y007405D02*
X013478Y007700D01*
X013576Y007799D01*
X013871Y007799D01*
X013871Y007405D01*
X014104Y007405D02*
X014301Y007405D01*
X014203Y007405D02*
X014203Y007799D01*
X014301Y007799D01*
X014203Y007996D02*
X014203Y008094D01*
X012582Y007897D02*
X012484Y007996D01*
X012385Y007700D02*
X012287Y007700D01*
X011938Y007503D02*
X011839Y007503D01*
X011839Y007405D01*
X011938Y007405D01*
X011938Y007503D01*
X011615Y007503D02*
X011615Y007700D01*
X011517Y007799D01*
X011320Y007799D01*
X011222Y007700D01*
X011222Y007503D01*
X011320Y007405D01*
X011517Y007405D01*
X011615Y007503D01*
X010971Y007405D02*
X010971Y007799D01*
X010971Y007602D02*
X010774Y007799D01*
X010676Y007799D01*
X010434Y007700D02*
X010434Y007503D01*
X010335Y007405D01*
X010040Y007405D01*
X010040Y007307D02*
X010040Y007799D01*
X010335Y007799D01*
X010434Y007700D01*
X010237Y007208D02*
X010138Y007208D01*
X010040Y007307D01*
X009789Y007405D02*
X009395Y007996D01*
X009816Y008955D02*
X010013Y008955D01*
X010111Y009053D01*
X010111Y009250D02*
X009915Y009349D01*
X009816Y009349D01*
X009718Y009250D01*
X009718Y009053D01*
X009816Y008955D01*
X010111Y009250D02*
X010111Y009546D01*
X009718Y009546D01*
X010559Y009546D02*
X010559Y008955D01*
X010756Y008955D02*
X010362Y008955D01*
X010756Y009349D02*
X010559Y009546D01*
X011007Y009447D02*
X011007Y009053D01*
X011105Y008955D01*
X011302Y008955D01*
X011401Y009053D01*
X011007Y009447D01*
X011105Y009546D01*
X011302Y009546D01*
X011401Y009447D01*
X011401Y009053D01*
X011651Y008955D02*
X012045Y008955D01*
X011651Y009349D01*
X011651Y009447D01*
X011750Y009546D01*
X011947Y009546D01*
X012045Y009447D01*
X016029Y009546D02*
X016029Y009644D01*
X018598Y009349D02*
X018598Y008955D01*
X019574Y008955D02*
X019672Y009053D01*
X020568Y009546D02*
X020961Y009546D01*
X020961Y008955D01*
D11*
X022118Y009150D02*
X022120Y009196D01*
X022126Y009241D01*
X022136Y009286D01*
X022149Y009330D01*
X022167Y009372D01*
X022187Y009413D01*
X022212Y009451D01*
X022239Y009488D01*
X022270Y009522D01*
X022303Y009553D01*
X022339Y009582D01*
X022377Y009607D01*
X022418Y009629D01*
X022460Y009647D01*
X022503Y009661D01*
X022548Y009672D01*
X022593Y009679D01*
X022639Y009682D01*
X022684Y009681D01*
X022730Y009676D01*
X022775Y009667D01*
X022819Y009655D01*
X022861Y009638D01*
X022903Y009618D01*
X022942Y009595D01*
X022979Y009568D01*
X023014Y009538D01*
X023046Y009505D01*
X023075Y009470D01*
X023101Y009432D01*
X023123Y009393D01*
X023143Y009351D01*
X023158Y009308D01*
X023170Y009264D01*
X023178Y009218D01*
X023182Y009173D01*
X023182Y009127D01*
X023178Y009082D01*
X023170Y009036D01*
X023158Y008992D01*
X023143Y008949D01*
X023123Y008907D01*
X023101Y008868D01*
X023075Y008830D01*
X023046Y008795D01*
X023014Y008762D01*
X022979Y008732D01*
X022942Y008705D01*
X022903Y008682D01*
X022861Y008662D01*
X022819Y008645D01*
X022775Y008633D01*
X022730Y008624D01*
X022684Y008619D01*
X022639Y008618D01*
X022593Y008621D01*
X022548Y008628D01*
X022503Y008639D01*
X022460Y008653D01*
X022418Y008671D01*
X022377Y008693D01*
X022339Y008718D01*
X022303Y008747D01*
X022270Y008778D01*
X022239Y008812D01*
X022212Y008849D01*
X022187Y008887D01*
X022167Y008928D01*
X022149Y008970D01*
X022136Y009014D01*
X022126Y009059D01*
X022120Y009104D01*
X022118Y009150D01*
X012100Y004100D02*
X012600Y003100D01*
X012660Y003142D01*
X012718Y003187D01*
X012773Y003234D01*
X012826Y003285D01*
X012876Y003339D01*
X012923Y003395D01*
X012967Y003453D01*
X013008Y003514D01*
X013045Y003577D01*
X013080Y003642D01*
X013110Y003708D01*
X013137Y003776D01*
X013161Y003845D01*
X013180Y003916D01*
X013196Y003987D01*
X013208Y004060D01*
X013216Y004132D01*
X013220Y004205D01*
X013221Y004279D01*
X013217Y004352D01*
X013210Y004425D01*
X013198Y004497D01*
X013183Y004568D01*
X013164Y004639D01*
X013141Y004709D01*
X013115Y004777D01*
X013085Y004844D01*
X013051Y004909D01*
X013014Y004972D01*
X012974Y005033D01*
X012930Y005092D01*
X012884Y005148D01*
X012834Y005202D01*
X012782Y005253D01*
X012727Y005302D01*
X012670Y005347D01*
X012610Y005389D01*
X012548Y005428D01*
X012484Y005464D01*
X012418Y005496D01*
X012351Y005524D01*
X012282Y005549D01*
X012212Y005570D01*
X012141Y005588D01*
X012069Y005601D01*
X011996Y005611D01*
X011923Y005617D01*
X011850Y005619D01*
X011777Y005617D01*
X011704Y005611D01*
X011631Y005601D01*
X011559Y005588D01*
X011488Y005570D01*
X011418Y005549D01*
X011349Y005524D01*
X011282Y005496D01*
X011216Y005464D01*
X011152Y005428D01*
X011090Y005389D01*
X011030Y005347D01*
X010973Y005302D01*
X010918Y005253D01*
X010866Y005202D01*
X010816Y005148D01*
X010770Y005092D01*
X010726Y005033D01*
X010686Y004972D01*
X010649Y004909D01*
X010615Y004844D01*
X010585Y004777D01*
X010559Y004709D01*
X010536Y004639D01*
X010517Y004568D01*
X010502Y004497D01*
X010490Y004425D01*
X010483Y004352D01*
X010479Y004279D01*
X010480Y004205D01*
X010484Y004132D01*
X010492Y004060D01*
X010504Y003987D01*
X010520Y003916D01*
X010539Y003845D01*
X010563Y003776D01*
X010590Y003708D01*
X010620Y003642D01*
X010655Y003577D01*
X010692Y003514D01*
X010733Y003453D01*
X010777Y003395D01*
X010824Y003339D01*
X010874Y003285D01*
X010927Y003234D01*
X010982Y003187D01*
X011040Y003142D01*
X011100Y003100D01*
X011600Y004100D01*
X011582Y004128D01*
X011567Y004159D01*
X011555Y004190D01*
X011547Y004223D01*
X011543Y004257D01*
X011542Y004290D01*
X011545Y004324D01*
X011552Y004357D01*
X011562Y004389D01*
X011576Y004420D01*
X011593Y004450D01*
X011613Y004477D01*
X011636Y004501D01*
X011662Y004524D01*
X011689Y004543D01*
X011719Y004559D01*
X011750Y004571D01*
X011783Y004581D01*
X011816Y004586D01*
X011850Y004588D01*
X011884Y004586D01*
X011917Y004581D01*
X011950Y004571D01*
X011981Y004559D01*
X012011Y004543D01*
X012038Y004524D01*
X012064Y004501D01*
X012087Y004477D01*
X012107Y004450D01*
X012124Y004420D01*
X012138Y004389D01*
X012148Y004357D01*
X012155Y004324D01*
X012158Y004290D01*
X012157Y004257D01*
X012153Y004223D01*
X012145Y004190D01*
X012133Y004159D01*
X012118Y004128D01*
X012100Y004100D01*
D12*
X019947Y002731D02*
X020087Y002871D01*
X020368Y002871D01*
X020508Y002731D01*
X020508Y002590D01*
X020368Y002450D01*
X020087Y002450D01*
X019947Y002310D01*
X019947Y002170D01*
X020087Y002030D01*
X020368Y002030D01*
X020508Y002170D01*
X020868Y002030D02*
X020868Y002871D01*
X020868Y002450D02*
X021428Y002450D01*
X021428Y002030D02*
X021428Y002871D01*
X021789Y002450D02*
X021789Y002170D01*
X021929Y002030D01*
X022209Y002030D01*
X022349Y002170D01*
X022349Y002450D01*
X022209Y002590D01*
X021929Y002590D01*
X021789Y002450D01*
X022710Y002450D02*
X022850Y002310D01*
X023270Y002310D01*
X023270Y002030D02*
X023270Y002871D01*
X022850Y002871D01*
X022710Y002731D01*
X022710Y002450D01*
X022990Y002310D02*
X022710Y002030D01*
D13*
X022780Y001410D02*
X022639Y001410D01*
X022569Y001340D01*
X022569Y001060D01*
X022639Y000990D01*
X022780Y000990D01*
X022850Y001060D01*
X022850Y001340D01*
X022780Y001410D01*
X023030Y001340D02*
X023100Y001410D01*
X023240Y001410D01*
X023310Y001340D01*
X023310Y001060D01*
X023240Y000990D01*
X023100Y000990D01*
X023030Y001060D01*
X022389Y000990D02*
X022389Y001410D01*
X022249Y001270D01*
X022109Y001410D01*
X022109Y000990D01*
X021929Y000990D02*
X021929Y001410D01*
X021719Y001410D01*
X021649Y001340D01*
X021649Y001200D01*
X021719Y001130D01*
X021929Y001130D01*
X021468Y000990D02*
X021188Y000990D01*
X021008Y000990D02*
X020868Y000990D01*
X020938Y000990D02*
X020938Y001410D01*
X021008Y001410D02*
X020868Y001410D01*
X020701Y001270D02*
X020561Y001410D01*
X020421Y001270D01*
X020421Y000990D01*
X020241Y000990D02*
X020241Y001410D01*
X019960Y000990D01*
X019960Y001410D01*
X019780Y001410D02*
X019500Y001410D01*
X019640Y001410D02*
X019640Y000990D01*
X020421Y001200D02*
X020701Y001200D01*
X020701Y001270D02*
X020701Y000990D01*
X021468Y000990D02*
X021468Y001410D01*
M02*
