G75*
%MOIN*%
%OFA0B0*%
%FSLAX25Y25*%
%IPPOS*%
%LPD*%
%AMOC8*
5,1,8,0,0,1.08239X$1,22.5*
%
%ADD10C,0.11811*%
%ADD11R,0.11811X0.11811*%
%ADD12R,0.06496X0.06496*%
%ADD13C,0.06496*%
%ADD14C,0.01000*%
%ADD15C,0.03200*%
%ADD16C,0.01200*%
%ADD17C,0.03569*%
%ADD18C,0.01600*%
%ADD19C,0.16598*%
D10*
X0141000Y0158000D03*
X0172000Y0158000D03*
X0241000Y0108000D03*
X0241000Y0089500D03*
X0278500Y0082000D03*
X0278500Y0134000D03*
D11*
X0241000Y0126500D03*
D12*
X0076000Y0136000D03*
X0076000Y0096000D03*
X0076000Y0056000D03*
X0076000Y0176000D03*
X0076000Y0216000D03*
D13*
X0076000Y0226000D03*
X0076000Y0186000D03*
X0076000Y0146000D03*
X0076000Y0106000D03*
X0076000Y0066000D03*
D14*
X0174000Y0235500D02*
X0175000Y0235500D01*
X0187000Y0261000D02*
X0187000Y0261500D01*
X0190500Y0272000D02*
X0204000Y0272000D01*
X0204000Y0264500D01*
X0222000Y0258000D02*
X0222000Y0257500D01*
X0222000Y0235000D02*
X0222000Y0234000D01*
X0245000Y0203500D02*
X0245000Y0202500D01*
X0263000Y0221000D02*
X0264000Y0221000D01*
X0264000Y0221500D01*
X0275000Y0203500D02*
X0275000Y0202500D01*
X0282000Y0238000D02*
X0283000Y0238000D01*
X0250000Y0291000D02*
X0250000Y0291500D01*
X0154000Y0265000D02*
X0154000Y0261000D01*
D15*
X0255000Y0156000D02*
X0256500Y0156000D01*
D16*
X0239000Y0234500D02*
X0222000Y0234500D01*
X0222000Y0235000D01*
X0226500Y0250500D02*
X0226500Y0254000D01*
X0226500Y0250500D02*
X0176500Y0250500D01*
X0173000Y0246500D02*
X0185500Y0246500D01*
X0233500Y0266500D02*
X0234500Y0266500D01*
X0234500Y0267000D01*
X0238500Y0272500D02*
X0259000Y0272500D01*
X0261000Y0272587D01*
X0280500Y0263000D02*
X0280500Y0256000D01*
X0280500Y0263000D02*
X0240000Y0263000D01*
X0253500Y0246000D02*
X0269500Y0246000D01*
X0269500Y0251000D01*
D17*
X0269500Y0251000D03*
X0280500Y0256000D03*
X0283000Y0238000D03*
X0263000Y0221000D03*
X0275000Y0202500D03*
X0245000Y0202500D03*
X0239000Y0234500D03*
X0222000Y0235000D03*
X0209000Y0245000D03*
X0222000Y0258000D03*
X0226500Y0254000D03*
X0233500Y0266500D03*
X0240000Y0263000D03*
X0238500Y0272500D03*
X0250000Y0291500D03*
X0261000Y0272587D03*
X0253500Y0246000D03*
X0204000Y0264500D03*
X0190500Y0272000D03*
X0187000Y0261500D03*
X0185500Y0246500D03*
X0176500Y0250500D03*
X0173000Y0246500D03*
X0174000Y0235500D03*
X0154000Y0261000D03*
X0168000Y0276000D03*
X0127000Y0300500D03*
X0120000Y0300500D03*
X0112000Y0300500D03*
X0104000Y0300500D03*
X0097000Y0300500D03*
X0090000Y0300500D03*
X0043000Y0309000D03*
X0089000Y0237500D03*
X0089000Y0231500D03*
X0089000Y0225500D03*
X0096000Y0225500D03*
X0096000Y0231500D03*
X0096000Y0237500D03*
X0103000Y0237500D03*
X0103000Y0231500D03*
X0103000Y0225500D03*
X0111000Y0225500D03*
X0111000Y0231500D03*
X0111000Y0237500D03*
X0119000Y0237500D03*
X0119000Y0231500D03*
X0127000Y0237500D03*
X0256500Y0156000D03*
D18*
X0005800Y0005800D02*
X0005800Y0336161D01*
X0304901Y0336161D01*
X0304901Y0005800D01*
X0005800Y0005800D01*
X0005800Y0007394D02*
X0304901Y0007394D01*
X0304901Y0008993D02*
X0005800Y0008993D01*
X0005800Y0010591D02*
X0304901Y0010591D01*
X0304901Y0012190D02*
X0005800Y0012190D01*
X0005800Y0013788D02*
X0304901Y0013788D01*
X0304901Y0015387D02*
X0005800Y0015387D01*
X0005800Y0016985D02*
X0021896Y0016985D01*
X0020393Y0017608D02*
X0024031Y0016101D01*
X0027969Y0016101D01*
X0031607Y0017608D01*
X0034392Y0020393D01*
X0035899Y0024031D01*
X0035899Y0027969D01*
X0034392Y0031607D01*
X0031607Y0034392D01*
X0027969Y0035899D01*
X0024031Y0035899D01*
X0020393Y0034392D01*
X0017608Y0031607D01*
X0016101Y0027969D01*
X0016101Y0024031D01*
X0017608Y0020393D01*
X0020393Y0017608D01*
X0019417Y0018584D02*
X0005800Y0018584D01*
X0005800Y0020182D02*
X0017818Y0020182D01*
X0017033Y0021781D02*
X0005800Y0021781D01*
X0005800Y0023379D02*
X0016371Y0023379D01*
X0016101Y0024978D02*
X0005800Y0024978D01*
X0005800Y0026576D02*
X0016101Y0026576D01*
X0016186Y0028175D02*
X0005800Y0028175D01*
X0005800Y0029773D02*
X0016848Y0029773D01*
X0017510Y0031372D02*
X0005800Y0031372D01*
X0005800Y0032970D02*
X0018971Y0032970D01*
X0020819Y0034569D02*
X0005800Y0034569D01*
X0005800Y0036167D02*
X0304901Y0036167D01*
X0304901Y0034569D02*
X0291181Y0034569D01*
X0291607Y0034392D02*
X0287969Y0035899D01*
X0284031Y0035899D01*
X0280393Y0034392D01*
X0277608Y0031607D01*
X0276101Y0027969D01*
X0276101Y0024031D01*
X0277608Y0020393D01*
X0280393Y0017608D01*
X0284031Y0016101D01*
X0287969Y0016101D01*
X0291607Y0017608D01*
X0294392Y0020393D01*
X0295899Y0024031D01*
X0295899Y0027969D01*
X0294392Y0031607D01*
X0291607Y0034392D01*
X0293029Y0032970D02*
X0304901Y0032970D01*
X0304901Y0031372D02*
X0294490Y0031372D01*
X0295152Y0029773D02*
X0304901Y0029773D01*
X0304901Y0028175D02*
X0295814Y0028175D01*
X0295899Y0026576D02*
X0304901Y0026576D01*
X0304901Y0024978D02*
X0295899Y0024978D01*
X0295629Y0023379D02*
X0304901Y0023379D01*
X0304901Y0021781D02*
X0294967Y0021781D01*
X0294182Y0020182D02*
X0304901Y0020182D01*
X0304901Y0018584D02*
X0292583Y0018584D01*
X0290104Y0016985D02*
X0304901Y0016985D01*
X0304901Y0037766D02*
X0005800Y0037766D01*
X0005800Y0039364D02*
X0304901Y0039364D01*
X0304901Y0040963D02*
X0005800Y0040963D01*
X0005800Y0042561D02*
X0304901Y0042561D01*
X0304901Y0044160D02*
X0005800Y0044160D01*
X0005800Y0045758D02*
X0304901Y0045758D01*
X0304901Y0047357D02*
X0005800Y0047357D01*
X0005800Y0048955D02*
X0304901Y0048955D01*
X0304901Y0050554D02*
X0005800Y0050554D01*
X0005800Y0052152D02*
X0070752Y0052152D01*
X0070752Y0051924D02*
X0071924Y0050752D01*
X0080076Y0050752D01*
X0081248Y0051924D01*
X0081248Y0060076D01*
X0080076Y0061248D01*
X0077711Y0061248D01*
X0077938Y0061322D01*
X0078646Y0061683D01*
X0079289Y0062150D01*
X0079850Y0062711D01*
X0080317Y0063354D01*
X0080678Y0064062D01*
X0080924Y0064818D01*
X0081048Y0065603D01*
X0081048Y0065717D01*
X0076283Y0065717D01*
X0076283Y0066283D01*
X0081048Y0066283D01*
X0081048Y0066397D01*
X0080924Y0067182D01*
X0080678Y0067938D01*
X0080317Y0068646D01*
X0079850Y0069289D01*
X0079289Y0069850D01*
X0078646Y0070317D01*
X0077938Y0070678D01*
X0077182Y0070924D01*
X0076397Y0071048D01*
X0076283Y0071048D01*
X0076283Y0066283D01*
X0075717Y0066283D01*
X0075717Y0071048D01*
X0075603Y0071048D01*
X0074818Y0070924D01*
X0074062Y0070678D01*
X0073354Y0070317D01*
X0072711Y0069850D01*
X0072150Y0069289D01*
X0071683Y0068646D01*
X0071322Y0067938D01*
X0071076Y0067182D01*
X0070952Y0066397D01*
X0070952Y0066283D01*
X0075717Y0066283D01*
X0075717Y0065717D01*
X0070952Y0065717D01*
X0070952Y0065603D01*
X0071076Y0064818D01*
X0071322Y0064062D01*
X0071683Y0063354D01*
X0072150Y0062711D01*
X0072711Y0062150D01*
X0073354Y0061683D01*
X0074062Y0061322D01*
X0074289Y0061248D01*
X0071924Y0061248D01*
X0070752Y0060076D01*
X0070752Y0051924D01*
X0070752Y0053751D02*
X0005800Y0053751D01*
X0005800Y0055349D02*
X0070752Y0055349D01*
X0070752Y0056948D02*
X0005800Y0056948D01*
X0005800Y0058546D02*
X0070752Y0058546D01*
X0070820Y0060145D02*
X0005800Y0060145D01*
X0005800Y0061743D02*
X0073270Y0061743D01*
X0071691Y0063342D02*
X0005800Y0063342D01*
X0005800Y0064940D02*
X0071057Y0064940D01*
X0070974Y0066539D02*
X0005800Y0066539D01*
X0005800Y0068137D02*
X0071424Y0068137D01*
X0072597Y0069736D02*
X0005800Y0069736D01*
X0005800Y0071334D02*
X0304901Y0071334D01*
X0304901Y0069736D02*
X0079403Y0069736D01*
X0080576Y0068137D02*
X0304901Y0068137D01*
X0304901Y0066539D02*
X0081026Y0066539D01*
X0080943Y0064940D02*
X0304901Y0064940D01*
X0304901Y0063342D02*
X0080309Y0063342D01*
X0078730Y0061743D02*
X0304901Y0061743D01*
X0304901Y0060145D02*
X0081180Y0060145D01*
X0081248Y0058546D02*
X0304901Y0058546D01*
X0304901Y0056948D02*
X0081248Y0056948D01*
X0081248Y0055349D02*
X0304901Y0055349D01*
X0304901Y0053751D02*
X0081248Y0053751D01*
X0081248Y0052152D02*
X0304901Y0052152D01*
X0304901Y0072933D02*
X0005800Y0072933D01*
X0005800Y0074532D02*
X0275872Y0074532D01*
X0276927Y0074094D02*
X0274022Y0075298D01*
X0271798Y0077522D01*
X0270594Y0080427D01*
X0270594Y0083573D01*
X0271798Y0086478D01*
X0274022Y0088702D01*
X0276927Y0089905D01*
X0280073Y0089905D01*
X0282978Y0088702D01*
X0285202Y0086478D01*
X0286405Y0083573D01*
X0286405Y0080427D01*
X0285202Y0077522D01*
X0282978Y0075298D01*
X0280073Y0074094D01*
X0276927Y0074094D01*
X0281128Y0074532D02*
X0304901Y0074532D01*
X0304901Y0076130D02*
X0283810Y0076130D01*
X0285288Y0077729D02*
X0304901Y0077729D01*
X0304901Y0079327D02*
X0285950Y0079327D01*
X0286405Y0080926D02*
X0304901Y0080926D01*
X0304901Y0082524D02*
X0286405Y0082524D01*
X0286178Y0084123D02*
X0304901Y0084123D01*
X0304901Y0085721D02*
X0285516Y0085721D01*
X0284360Y0087320D02*
X0304901Y0087320D01*
X0304901Y0088918D02*
X0282456Y0088918D01*
X0274544Y0088918D02*
X0248905Y0088918D01*
X0248905Y0087927D02*
X0248905Y0091073D01*
X0247702Y0093978D01*
X0245478Y0096202D01*
X0242573Y0097405D01*
X0239427Y0097405D01*
X0236522Y0096202D01*
X0234298Y0093978D01*
X0233094Y0091073D01*
X0233094Y0087927D01*
X0234298Y0085022D01*
X0236522Y0082798D01*
X0239427Y0081594D01*
X0242573Y0081594D01*
X0245478Y0082798D01*
X0247702Y0085022D01*
X0248905Y0087927D01*
X0248654Y0087320D02*
X0272640Y0087320D01*
X0271484Y0085721D02*
X0247992Y0085721D01*
X0246803Y0084123D02*
X0270822Y0084123D01*
X0270594Y0082524D02*
X0244817Y0082524D01*
X0237183Y0082524D02*
X0005800Y0082524D01*
X0005800Y0080926D02*
X0270594Y0080926D01*
X0271050Y0079327D02*
X0005800Y0079327D01*
X0005800Y0077729D02*
X0271712Y0077729D01*
X0273190Y0076130D02*
X0005800Y0076130D01*
X0005800Y0084123D02*
X0235197Y0084123D01*
X0234008Y0085721D02*
X0005800Y0085721D01*
X0005800Y0087320D02*
X0233346Y0087320D01*
X0233094Y0088918D02*
X0005800Y0088918D01*
X0005800Y0090517D02*
X0233094Y0090517D01*
X0233526Y0092115D02*
X0081248Y0092115D01*
X0081248Y0091924D02*
X0081248Y0100076D01*
X0080076Y0101248D01*
X0077711Y0101248D01*
X0077938Y0101322D01*
X0078646Y0101683D01*
X0079289Y0102150D01*
X0079850Y0102711D01*
X0080317Y0103354D01*
X0080678Y0104062D01*
X0080924Y0104818D01*
X0081048Y0105603D01*
X0081048Y0105717D01*
X0076283Y0105717D01*
X0076283Y0106283D01*
X0081048Y0106283D01*
X0081048Y0106397D01*
X0080924Y0107182D01*
X0080678Y0107938D01*
X0080317Y0108646D01*
X0079850Y0109289D01*
X0079289Y0109850D01*
X0078646Y0110317D01*
X0077938Y0110678D01*
X0077182Y0110924D01*
X0076397Y0111048D01*
X0076283Y0111048D01*
X0076283Y0106283D01*
X0075717Y0106283D01*
X0075717Y0111048D01*
X0075603Y0111048D01*
X0074818Y0110924D01*
X0074062Y0110678D01*
X0073354Y0110317D01*
X0072711Y0109850D01*
X0072150Y0109289D01*
X0071683Y0108646D01*
X0071322Y0107938D01*
X0071076Y0107182D01*
X0070952Y0106397D01*
X0070952Y0106283D01*
X0075717Y0106283D01*
X0075717Y0105717D01*
X0070952Y0105717D01*
X0070952Y0105603D01*
X0071076Y0104818D01*
X0071322Y0104062D01*
X0071683Y0103354D01*
X0072150Y0102711D01*
X0072711Y0102150D01*
X0073354Y0101683D01*
X0074062Y0101322D01*
X0074289Y0101248D01*
X0071924Y0101248D01*
X0070752Y0100076D01*
X0070752Y0091924D01*
X0071924Y0090752D01*
X0080076Y0090752D01*
X0081248Y0091924D01*
X0081248Y0093714D02*
X0234188Y0093714D01*
X0235632Y0095312D02*
X0081248Y0095312D01*
X0081248Y0096911D02*
X0238233Y0096911D01*
X0239427Y0100094D02*
X0236522Y0101298D01*
X0234298Y0103522D01*
X0233094Y0106427D01*
X0233094Y0109573D01*
X0234298Y0112478D01*
X0236522Y0114702D01*
X0239427Y0115905D01*
X0242573Y0115905D01*
X0245478Y0114702D01*
X0247702Y0112478D01*
X0248905Y0109573D01*
X0248905Y0106427D01*
X0247702Y0103522D01*
X0245478Y0101298D01*
X0242573Y0100094D01*
X0239427Y0100094D01*
X0239396Y0100108D02*
X0081217Y0100108D01*
X0081248Y0098509D02*
X0304901Y0098509D01*
X0304901Y0096911D02*
X0243767Y0096911D01*
X0246368Y0095312D02*
X0304901Y0095312D01*
X0304901Y0093714D02*
X0247812Y0093714D01*
X0248474Y0092115D02*
X0304901Y0092115D01*
X0304901Y0090517D02*
X0248905Y0090517D01*
X0242604Y0100108D02*
X0304901Y0100108D01*
X0304901Y0101706D02*
X0245886Y0101706D01*
X0247485Y0103305D02*
X0304901Y0103305D01*
X0304901Y0104903D02*
X0248274Y0104903D01*
X0248905Y0106502D02*
X0304901Y0106502D01*
X0304901Y0108100D02*
X0248905Y0108100D01*
X0248853Y0109699D02*
X0304901Y0109699D01*
X0304901Y0111297D02*
X0248191Y0111297D01*
X0247284Y0112896D02*
X0304901Y0112896D01*
X0304901Y0114494D02*
X0245686Y0114494D01*
X0247734Y0118594D02*
X0248905Y0119766D01*
X0248905Y0133234D01*
X0247734Y0134405D01*
X0234266Y0134405D01*
X0233094Y0133234D01*
X0233094Y0119766D01*
X0234266Y0118594D01*
X0247734Y0118594D01*
X0248429Y0119290D02*
X0304901Y0119290D01*
X0304901Y0120888D02*
X0248905Y0120888D01*
X0248905Y0122487D02*
X0304901Y0122487D01*
X0304901Y0124085D02*
X0248905Y0124085D01*
X0248905Y0125684D02*
X0304901Y0125684D01*
X0304901Y0127282D02*
X0282940Y0127282D01*
X0282978Y0127298D02*
X0285202Y0129522D01*
X0286405Y0132427D01*
X0286405Y0135573D01*
X0285202Y0138478D01*
X0282978Y0140702D01*
X0280073Y0141905D01*
X0276927Y0141905D01*
X0274022Y0140702D01*
X0271798Y0138478D01*
X0270594Y0135573D01*
X0270594Y0132427D01*
X0271798Y0129522D01*
X0274022Y0127298D01*
X0276927Y0126094D01*
X0280073Y0126094D01*
X0282978Y0127298D01*
X0284561Y0128881D02*
X0304901Y0128881D01*
X0304901Y0130479D02*
X0285599Y0130479D01*
X0286261Y0132078D02*
X0304901Y0132078D01*
X0304901Y0133676D02*
X0286405Y0133676D01*
X0286405Y0135275D02*
X0304901Y0135275D01*
X0304901Y0136873D02*
X0285867Y0136873D01*
X0285205Y0138472D02*
X0304901Y0138472D01*
X0304901Y0140070D02*
X0283610Y0140070D01*
X0280643Y0141669D02*
X0304901Y0141669D01*
X0304901Y0143268D02*
X0080254Y0143268D01*
X0080317Y0143354D02*
X0080678Y0144062D01*
X0080924Y0144818D01*
X0081048Y0145603D01*
X0081048Y0145717D01*
X0076283Y0145717D01*
X0076283Y0146283D01*
X0081048Y0146283D01*
X0081048Y0146397D01*
X0080924Y0147182D01*
X0080678Y0147938D01*
X0080317Y0148646D01*
X0079850Y0149289D01*
X0079289Y0149850D01*
X0078646Y0150317D01*
X0077938Y0150678D01*
X0077182Y0150924D01*
X0076397Y0151048D01*
X0076283Y0151048D01*
X0076283Y0146283D01*
X0075717Y0146283D01*
X0075717Y0151048D01*
X0075603Y0151048D01*
X0074818Y0150924D01*
X0074062Y0150678D01*
X0073354Y0150317D01*
X0072711Y0149850D01*
X0072150Y0149289D01*
X0071683Y0148646D01*
X0071322Y0147938D01*
X0071076Y0147182D01*
X0070952Y0146397D01*
X0070952Y0146283D01*
X0075717Y0146283D01*
X0075717Y0145717D01*
X0070952Y0145717D01*
X0070952Y0145603D01*
X0071076Y0144818D01*
X0071322Y0144062D01*
X0071683Y0143354D01*
X0072150Y0142711D01*
X0072711Y0142150D01*
X0073354Y0141683D01*
X0074062Y0141322D01*
X0074289Y0141248D01*
X0071924Y0141248D01*
X0070752Y0140076D01*
X0070752Y0131924D01*
X0071924Y0130752D01*
X0080076Y0130752D01*
X0081248Y0131924D01*
X0081248Y0140076D01*
X0080076Y0141248D01*
X0077711Y0141248D01*
X0077938Y0141322D01*
X0078646Y0141683D01*
X0079289Y0142150D01*
X0079850Y0142711D01*
X0080317Y0143354D01*
X0080931Y0144866D02*
X0304901Y0144866D01*
X0304901Y0146465D02*
X0081037Y0146465D01*
X0080614Y0148063D02*
X0304901Y0148063D01*
X0304901Y0149662D02*
X0079477Y0149662D01*
X0076283Y0149662D02*
X0075717Y0149662D01*
X0075717Y0148063D02*
X0076283Y0148063D01*
X0076283Y0146465D02*
X0075717Y0146465D01*
X0072523Y0149662D02*
X0005800Y0149662D01*
X0005800Y0151260D02*
X0136614Y0151260D01*
X0136522Y0151298D02*
X0139427Y0150094D01*
X0142573Y0150094D01*
X0145478Y0151298D01*
X0147702Y0153522D01*
X0148905Y0156427D01*
X0148905Y0159573D01*
X0147702Y0162478D01*
X0145478Y0164702D01*
X0142573Y0165905D01*
X0139427Y0165905D01*
X0136522Y0164702D01*
X0134298Y0162478D01*
X0133094Y0159573D01*
X0133094Y0156427D01*
X0134298Y0153522D01*
X0136522Y0151298D01*
X0134961Y0152859D02*
X0005800Y0152859D01*
X0005800Y0154457D02*
X0133911Y0154457D01*
X0133249Y0156056D02*
X0005800Y0156056D01*
X0005800Y0157654D02*
X0133094Y0157654D01*
X0133094Y0159253D02*
X0005800Y0159253D01*
X0005800Y0160851D02*
X0133624Y0160851D01*
X0134286Y0162450D02*
X0005800Y0162450D01*
X0005800Y0164048D02*
X0135868Y0164048D01*
X0138803Y0165647D02*
X0005800Y0165647D01*
X0005800Y0167245D02*
X0304901Y0167245D01*
X0304901Y0165647D02*
X0172952Y0165647D01*
X0172800Y0165647D02*
X0171200Y0165647D01*
X0171200Y0165667D02*
X0170493Y0165574D01*
X0169518Y0165312D01*
X0168585Y0164926D01*
X0167710Y0164421D01*
X0166909Y0163806D01*
X0166194Y0163091D01*
X0165579Y0162290D01*
X0165074Y0161415D01*
X0164688Y0160482D01*
X0164426Y0159506D01*
X0164333Y0158800D01*
X0171200Y0158800D01*
X0171200Y0165667D01*
X0171048Y0165647D02*
X0143197Y0165647D01*
X0146132Y0164048D02*
X0167224Y0164048D01*
X0165702Y0162450D02*
X0147714Y0162450D01*
X0148376Y0160851D02*
X0164841Y0160851D01*
X0164393Y0159253D02*
X0148905Y0159253D01*
X0148905Y0157654D02*
X0171200Y0157654D01*
X0171200Y0157200D02*
X0171200Y0158800D01*
X0172800Y0158800D01*
X0172800Y0165667D01*
X0173506Y0165574D01*
X0174482Y0165312D01*
X0175415Y0164926D01*
X0176290Y0164421D01*
X0177091Y0163806D01*
X0177806Y0163091D01*
X0178421Y0162290D01*
X0178926Y0161415D01*
X0179312Y0160482D01*
X0179574Y0159506D01*
X0179667Y0158800D01*
X0172800Y0158800D01*
X0172800Y0157200D01*
X0179667Y0157200D01*
X0179574Y0156493D01*
X0179312Y0155518D01*
X0178926Y0154585D01*
X0178421Y0153710D01*
X0177806Y0152909D01*
X0177091Y0152194D01*
X0176290Y0151579D01*
X0175415Y0151074D01*
X0174482Y0150688D01*
X0173506Y0150426D01*
X0172800Y0150333D01*
X0172800Y0157200D01*
X0171200Y0157200D01*
X0164333Y0157200D01*
X0164426Y0156493D01*
X0164688Y0155518D01*
X0165074Y0154585D01*
X0165579Y0153710D01*
X0166194Y0152909D01*
X0166909Y0152194D01*
X0167710Y0151579D01*
X0168585Y0151074D01*
X0169518Y0150688D01*
X0170493Y0150426D01*
X0171200Y0150333D01*
X0171200Y0157200D01*
X0171200Y0156056D02*
X0172800Y0156056D01*
X0172800Y0157654D02*
X0304901Y0157654D01*
X0304901Y0156056D02*
X0179456Y0156056D01*
X0178852Y0154457D02*
X0304901Y0154457D01*
X0304901Y0152859D02*
X0177756Y0152859D01*
X0175737Y0151260D02*
X0304901Y0151260D01*
X0304901Y0159253D02*
X0179607Y0159253D01*
X0179159Y0160851D02*
X0304901Y0160851D01*
X0304901Y0162450D02*
X0178298Y0162450D01*
X0176776Y0164048D02*
X0304901Y0164048D01*
X0304901Y0168844D02*
X0005800Y0168844D01*
X0005800Y0170442D02*
X0304901Y0170442D01*
X0304901Y0172041D02*
X0081248Y0172041D01*
X0081248Y0171924D02*
X0081248Y0180076D01*
X0080076Y0181248D01*
X0077711Y0181248D01*
X0077938Y0181322D01*
X0078646Y0181683D01*
X0079289Y0182150D01*
X0079850Y0182711D01*
X0080317Y0183354D01*
X0080678Y0184062D01*
X0080924Y0184818D01*
X0081048Y0185603D01*
X0081048Y0185717D01*
X0076283Y0185717D01*
X0076283Y0186283D01*
X0081048Y0186283D01*
X0081048Y0186397D01*
X0080924Y0187182D01*
X0080678Y0187938D01*
X0080317Y0188646D01*
X0079850Y0189289D01*
X0079289Y0189850D01*
X0078646Y0190317D01*
X0077938Y0190678D01*
X0077182Y0190924D01*
X0076397Y0191048D01*
X0076283Y0191048D01*
X0076283Y0186283D01*
X0075717Y0186283D01*
X0075717Y0191048D01*
X0075603Y0191048D01*
X0074818Y0190924D01*
X0074062Y0190678D01*
X0073354Y0190317D01*
X0072711Y0189850D01*
X0072150Y0189289D01*
X0071683Y0188646D01*
X0071322Y0187938D01*
X0071076Y0187182D01*
X0070952Y0186397D01*
X0070952Y0186283D01*
X0075717Y0186283D01*
X0075717Y0185717D01*
X0070952Y0185717D01*
X0070952Y0185603D01*
X0071076Y0184818D01*
X0071322Y0184062D01*
X0071683Y0183354D01*
X0072150Y0182711D01*
X0072711Y0182150D01*
X0073354Y0181683D01*
X0074062Y0181322D01*
X0074289Y0181248D01*
X0071924Y0181248D01*
X0070752Y0180076D01*
X0070752Y0171924D01*
X0071924Y0170752D01*
X0080076Y0170752D01*
X0081248Y0171924D01*
X0081248Y0173639D02*
X0304901Y0173639D01*
X0304901Y0175238D02*
X0081248Y0175238D01*
X0081248Y0176836D02*
X0304901Y0176836D01*
X0304901Y0178435D02*
X0081248Y0178435D01*
X0081248Y0180033D02*
X0304901Y0180033D01*
X0304901Y0181632D02*
X0078546Y0181632D01*
X0080227Y0183230D02*
X0304901Y0183230D01*
X0304901Y0184829D02*
X0080925Y0184829D01*
X0081043Y0186427D02*
X0304901Y0186427D01*
X0304901Y0188026D02*
X0080633Y0188026D01*
X0079515Y0189624D02*
X0304901Y0189624D01*
X0304901Y0191223D02*
X0005800Y0191223D01*
X0005800Y0192821D02*
X0304901Y0192821D01*
X0304901Y0194420D02*
X0005800Y0194420D01*
X0005800Y0196018D02*
X0304901Y0196018D01*
X0304901Y0197617D02*
X0005800Y0197617D01*
X0005800Y0199215D02*
X0304901Y0199215D01*
X0304901Y0200814D02*
X0005800Y0200814D01*
X0005800Y0202412D02*
X0304901Y0202412D01*
X0304901Y0204011D02*
X0005800Y0204011D01*
X0005800Y0205609D02*
X0304901Y0205609D01*
X0304901Y0207208D02*
X0005800Y0207208D01*
X0005800Y0208806D02*
X0304901Y0208806D01*
X0304901Y0210405D02*
X0005800Y0210405D01*
X0005800Y0212003D02*
X0070752Y0212003D01*
X0070752Y0211924D02*
X0071924Y0210752D01*
X0080076Y0210752D01*
X0081248Y0211924D01*
X0081248Y0220076D01*
X0080076Y0221248D01*
X0077711Y0221248D01*
X0077938Y0221322D01*
X0078646Y0221683D01*
X0079289Y0222150D01*
X0079850Y0222711D01*
X0080317Y0223354D01*
X0080678Y0224062D01*
X0080924Y0224818D01*
X0081048Y0225603D01*
X0081048Y0225717D01*
X0076283Y0225717D01*
X0076283Y0226283D01*
X0081048Y0226283D01*
X0081048Y0226397D01*
X0080924Y0227182D01*
X0080678Y0227938D01*
X0080317Y0228646D01*
X0079850Y0229289D01*
X0079289Y0229850D01*
X0078646Y0230317D01*
X0077938Y0230678D01*
X0077182Y0230924D01*
X0076397Y0231048D01*
X0076283Y0231048D01*
X0076283Y0226283D01*
X0075717Y0226283D01*
X0075717Y0231048D01*
X0075603Y0231048D01*
X0074818Y0230924D01*
X0074062Y0230678D01*
X0073354Y0230317D01*
X0072711Y0229850D01*
X0072150Y0229289D01*
X0071683Y0228646D01*
X0071322Y0227938D01*
X0071076Y0227182D01*
X0070952Y0226397D01*
X0070952Y0226283D01*
X0075717Y0226283D01*
X0075717Y0225717D01*
X0070952Y0225717D01*
X0070952Y0225603D01*
X0071076Y0224818D01*
X0071322Y0224062D01*
X0071683Y0223354D01*
X0072150Y0222711D01*
X0072711Y0222150D01*
X0073354Y0221683D01*
X0074062Y0221322D01*
X0074289Y0221248D01*
X0071924Y0221248D01*
X0070752Y0220076D01*
X0070752Y0211924D01*
X0070752Y0213602D02*
X0005800Y0213602D01*
X0005800Y0215201D02*
X0070752Y0215201D01*
X0070752Y0216799D02*
X0005800Y0216799D01*
X0005800Y0218398D02*
X0070752Y0218398D01*
X0070752Y0219996D02*
X0005800Y0219996D01*
X0005800Y0221595D02*
X0073527Y0221595D01*
X0071800Y0223193D02*
X0005800Y0223193D01*
X0005800Y0224792D02*
X0071085Y0224792D01*
X0070952Y0226390D02*
X0005800Y0226390D01*
X0005800Y0227989D02*
X0071348Y0227989D01*
X0072448Y0229587D02*
X0005800Y0229587D01*
X0005800Y0231186D02*
X0304901Y0231186D01*
X0304901Y0232784D02*
X0005800Y0232784D01*
X0005800Y0234383D02*
X0304901Y0234383D01*
X0304901Y0235981D02*
X0005800Y0235981D01*
X0005800Y0237580D02*
X0304901Y0237580D01*
X0304901Y0239178D02*
X0005800Y0239178D01*
X0005800Y0240777D02*
X0304901Y0240777D01*
X0304901Y0242375D02*
X0005800Y0242375D01*
X0005800Y0243974D02*
X0170740Y0243974D01*
X0171083Y0243631D02*
X0170131Y0244583D01*
X0169616Y0245827D01*
X0169616Y0247173D01*
X0170131Y0248417D01*
X0171083Y0249369D01*
X0172327Y0249884D01*
X0173116Y0249884D01*
X0173116Y0251173D01*
X0173631Y0252417D01*
X0174583Y0253369D01*
X0175827Y0253884D01*
X0177173Y0253884D01*
X0178417Y0253369D01*
X0179086Y0252700D01*
X0223375Y0252700D01*
X0223116Y0253327D01*
X0223116Y0254673D01*
X0223631Y0255917D01*
X0224583Y0256869D01*
X0225827Y0257384D01*
X0227173Y0257384D01*
X0228417Y0256869D01*
X0229369Y0255917D01*
X0229884Y0254673D01*
X0229884Y0253327D01*
X0229369Y0252083D01*
X0228700Y0251414D01*
X0228700Y0249589D01*
X0227411Y0248300D01*
X0188417Y0248300D01*
X0188884Y0247173D01*
X0188884Y0245827D01*
X0188369Y0244583D01*
X0187417Y0243631D01*
X0186173Y0243116D01*
X0184827Y0243116D01*
X0183583Y0243631D01*
X0182914Y0244300D01*
X0175586Y0244300D01*
X0174917Y0243631D01*
X0173673Y0243116D01*
X0172327Y0243116D01*
X0171083Y0243631D01*
X0169721Y0245572D02*
X0005800Y0245572D01*
X0005800Y0247171D02*
X0169616Y0247171D01*
X0170483Y0248769D02*
X0005800Y0248769D01*
X0005800Y0250368D02*
X0173116Y0250368D01*
X0173444Y0251966D02*
X0005800Y0251966D01*
X0005800Y0253565D02*
X0175056Y0253565D01*
X0177944Y0253565D02*
X0223116Y0253565D01*
X0223319Y0255163D02*
X0005800Y0255163D01*
X0005800Y0256762D02*
X0224476Y0256762D01*
X0228524Y0256762D02*
X0277152Y0256762D01*
X0277116Y0256673D02*
X0277116Y0255327D01*
X0277631Y0254083D01*
X0278583Y0253131D01*
X0279827Y0252616D01*
X0281173Y0252616D01*
X0282417Y0253131D01*
X0283369Y0254083D01*
X0283884Y0255327D01*
X0283884Y0256673D01*
X0283369Y0257917D01*
X0282700Y0258586D01*
X0282700Y0263911D01*
X0281411Y0265200D01*
X0242586Y0265200D01*
X0241917Y0265869D01*
X0240673Y0266384D01*
X0239327Y0266384D01*
X0238083Y0265869D01*
X0237131Y0264917D01*
X0236616Y0263673D01*
X0236616Y0262327D01*
X0237131Y0261083D01*
X0238083Y0260131D01*
X0239327Y0259616D01*
X0240673Y0259616D01*
X0241917Y0260131D01*
X0242586Y0260800D01*
X0278300Y0260800D01*
X0278300Y0258586D01*
X0277631Y0257917D01*
X0277116Y0256673D01*
X0277183Y0255163D02*
X0229681Y0255163D01*
X0229884Y0253565D02*
X0267279Y0253565D01*
X0267583Y0253869D02*
X0266631Y0252917D01*
X0266116Y0251673D01*
X0266116Y0250327D01*
X0266631Y0249083D01*
X0267300Y0248414D01*
X0267300Y0248200D01*
X0256086Y0248200D01*
X0255417Y0248869D01*
X0254173Y0249384D01*
X0252827Y0249384D01*
X0251583Y0248869D01*
X0250631Y0247917D01*
X0250116Y0246673D01*
X0250116Y0245327D01*
X0250631Y0244083D01*
X0251583Y0243131D01*
X0252827Y0242616D01*
X0254173Y0242616D01*
X0255417Y0243131D01*
X0256086Y0243800D01*
X0268589Y0243800D01*
X0270411Y0243800D01*
X0271700Y0245089D01*
X0271700Y0248414D01*
X0272369Y0249083D01*
X0272884Y0250327D01*
X0272884Y0251673D01*
X0272369Y0252917D01*
X0271417Y0253869D01*
X0270173Y0254384D01*
X0268827Y0254384D01*
X0267583Y0253869D01*
X0266237Y0251966D02*
X0229252Y0251966D01*
X0228700Y0250368D02*
X0266116Y0250368D01*
X0266945Y0248769D02*
X0255517Y0248769D01*
X0251483Y0248769D02*
X0227881Y0248769D01*
X0238499Y0259959D02*
X0005800Y0259959D01*
X0005800Y0261557D02*
X0202261Y0261557D01*
X0202083Y0261631D02*
X0203327Y0261116D01*
X0204673Y0261116D01*
X0205917Y0261631D01*
X0206869Y0262583D01*
X0207384Y0263827D01*
X0207384Y0265173D01*
X0206869Y0266417D01*
X0206100Y0267186D01*
X0206100Y0272870D01*
X0204870Y0274100D01*
X0193186Y0274100D01*
X0192417Y0274869D01*
X0191173Y0275384D01*
X0189827Y0275384D01*
X0188583Y0274869D01*
X0187631Y0273917D01*
X0187116Y0272673D01*
X0187116Y0271327D01*
X0187631Y0270083D01*
X0188583Y0269131D01*
X0189827Y0268616D01*
X0191173Y0268616D01*
X0192417Y0269131D01*
X0193186Y0269900D01*
X0201900Y0269900D01*
X0201900Y0267186D01*
X0201131Y0266417D01*
X0200616Y0265173D01*
X0200616Y0263827D01*
X0201131Y0262583D01*
X0202083Y0261631D01*
X0200894Y0263156D02*
X0005800Y0263156D01*
X0005800Y0264754D02*
X0200616Y0264754D01*
X0201104Y0266353D02*
X0005800Y0266353D01*
X0005800Y0267951D02*
X0201900Y0267951D01*
X0201900Y0269550D02*
X0192836Y0269550D01*
X0188164Y0269550D02*
X0005800Y0269550D01*
X0005800Y0271148D02*
X0187190Y0271148D01*
X0187146Y0272747D02*
X0005800Y0272747D01*
X0005800Y0274345D02*
X0188059Y0274345D01*
X0192941Y0274345D02*
X0235601Y0274345D01*
X0235631Y0274417D02*
X0235116Y0273173D01*
X0235116Y0271827D01*
X0235631Y0270583D01*
X0236583Y0269631D01*
X0237827Y0269116D01*
X0239173Y0269116D01*
X0240417Y0269631D01*
X0241086Y0270300D01*
X0258144Y0270300D01*
X0258185Y0270263D01*
X0258523Y0270277D01*
X0259083Y0269718D01*
X0260327Y0269202D01*
X0261673Y0269202D01*
X0262917Y0269718D01*
X0263869Y0270670D01*
X0264384Y0271913D01*
X0264384Y0273260D01*
X0263869Y0274504D01*
X0262917Y0275456D01*
X0261673Y0275971D01*
X0260327Y0275971D01*
X0259083Y0275456D01*
X0258327Y0274700D01*
X0241086Y0274700D01*
X0240417Y0275369D01*
X0239173Y0275884D01*
X0237827Y0275884D01*
X0236583Y0275369D01*
X0235631Y0274417D01*
X0235116Y0272747D02*
X0206100Y0272747D01*
X0206100Y0271148D02*
X0235397Y0271148D01*
X0236779Y0269550D02*
X0206100Y0269550D01*
X0206100Y0267951D02*
X0304901Y0267951D01*
X0304901Y0266353D02*
X0240749Y0266353D01*
X0239251Y0266353D02*
X0206896Y0266353D01*
X0207384Y0264754D02*
X0237064Y0264754D01*
X0236616Y0263156D02*
X0207106Y0263156D01*
X0205739Y0261557D02*
X0236934Y0261557D01*
X0241501Y0259959D02*
X0278300Y0259959D01*
X0278074Y0258360D02*
X0005800Y0258360D01*
X0005800Y0275944D02*
X0260262Y0275944D01*
X0261738Y0275944D02*
X0304901Y0275944D01*
X0304901Y0277542D02*
X0005800Y0277542D01*
X0005800Y0279141D02*
X0304901Y0279141D01*
X0304901Y0280739D02*
X0005800Y0280739D01*
X0005800Y0282338D02*
X0304901Y0282338D01*
X0304901Y0283937D02*
X0005800Y0283937D01*
X0005800Y0285535D02*
X0304901Y0285535D01*
X0304901Y0287134D02*
X0005800Y0287134D01*
X0005800Y0288732D02*
X0304901Y0288732D01*
X0304901Y0290331D02*
X0005800Y0290331D01*
X0005800Y0291929D02*
X0304901Y0291929D01*
X0304901Y0293528D02*
X0005800Y0293528D01*
X0005800Y0295126D02*
X0304901Y0295126D01*
X0304901Y0296725D02*
X0005800Y0296725D01*
X0005800Y0298323D02*
X0304901Y0298323D01*
X0304901Y0299922D02*
X0005800Y0299922D01*
X0005800Y0301520D02*
X0304901Y0301520D01*
X0304901Y0303119D02*
X0005800Y0303119D01*
X0005800Y0304717D02*
X0304901Y0304717D01*
X0304901Y0306316D02*
X0005800Y0306316D01*
X0005800Y0307914D02*
X0304901Y0307914D01*
X0304901Y0309513D02*
X0005800Y0309513D01*
X0005800Y0311111D02*
X0304901Y0311111D01*
X0304901Y0312710D02*
X0005800Y0312710D01*
X0005800Y0314308D02*
X0304901Y0314308D01*
X0304901Y0315907D02*
X0005800Y0315907D01*
X0005800Y0317505D02*
X0020640Y0317505D01*
X0020393Y0317608D02*
X0024031Y0316101D01*
X0027969Y0316101D01*
X0031607Y0317608D01*
X0034392Y0320393D01*
X0035899Y0324031D01*
X0035899Y0327969D01*
X0034392Y0331607D01*
X0031607Y0334392D01*
X0027969Y0335899D01*
X0024031Y0335899D01*
X0020393Y0334392D01*
X0017608Y0331607D01*
X0016101Y0327969D01*
X0016101Y0324031D01*
X0017608Y0320393D01*
X0020393Y0317608D01*
X0018897Y0319104D02*
X0005800Y0319104D01*
X0005800Y0320702D02*
X0017480Y0320702D01*
X0016817Y0322301D02*
X0005800Y0322301D01*
X0005800Y0323899D02*
X0016155Y0323899D01*
X0016101Y0325498D02*
X0005800Y0325498D01*
X0005800Y0327096D02*
X0016101Y0327096D01*
X0016401Y0328695D02*
X0005800Y0328695D01*
X0005800Y0330293D02*
X0017064Y0330293D01*
X0017892Y0331892D02*
X0005800Y0331892D01*
X0005800Y0333490D02*
X0019491Y0333490D01*
X0022075Y0335089D02*
X0005800Y0335089D01*
X0029925Y0335089D02*
X0282075Y0335089D01*
X0280393Y0334392D02*
X0277608Y0331607D01*
X0276101Y0327969D01*
X0276101Y0324031D01*
X0277608Y0320393D01*
X0280393Y0317608D01*
X0284031Y0316101D01*
X0287969Y0316101D01*
X0291607Y0317608D01*
X0294392Y0320393D01*
X0295899Y0324031D01*
X0295899Y0327969D01*
X0294392Y0331607D01*
X0291607Y0334392D01*
X0287969Y0335899D01*
X0284031Y0335899D01*
X0280393Y0334392D01*
X0279491Y0333490D02*
X0032509Y0333490D01*
X0034108Y0331892D02*
X0277892Y0331892D01*
X0277064Y0330293D02*
X0034936Y0330293D01*
X0035599Y0328695D02*
X0276401Y0328695D01*
X0276101Y0327096D02*
X0035899Y0327096D01*
X0035899Y0325498D02*
X0276101Y0325498D01*
X0276155Y0323899D02*
X0035845Y0323899D01*
X0035183Y0322301D02*
X0276817Y0322301D01*
X0277480Y0320702D02*
X0034520Y0320702D01*
X0033103Y0319104D02*
X0278897Y0319104D01*
X0280640Y0317505D02*
X0031360Y0317505D01*
X0075717Y0229587D02*
X0076283Y0229587D01*
X0076283Y0227989D02*
X0075717Y0227989D01*
X0075717Y0226390D02*
X0076283Y0226390D01*
X0079552Y0229587D02*
X0304901Y0229587D01*
X0304901Y0227989D02*
X0080652Y0227989D01*
X0081048Y0226390D02*
X0304901Y0226390D01*
X0304901Y0224792D02*
X0080915Y0224792D01*
X0080200Y0223193D02*
X0304901Y0223193D01*
X0304901Y0221595D02*
X0078473Y0221595D01*
X0081248Y0219996D02*
X0304901Y0219996D01*
X0304901Y0218398D02*
X0081248Y0218398D01*
X0081248Y0216799D02*
X0304901Y0216799D01*
X0304901Y0215201D02*
X0081248Y0215201D01*
X0081248Y0213602D02*
X0304901Y0213602D01*
X0304901Y0212003D02*
X0081248Y0212003D01*
X0076283Y0189624D02*
X0075717Y0189624D01*
X0075717Y0188026D02*
X0076283Y0188026D01*
X0076283Y0186427D02*
X0075717Y0186427D01*
X0072485Y0189624D02*
X0005800Y0189624D01*
X0005800Y0188026D02*
X0071367Y0188026D01*
X0070957Y0186427D02*
X0005800Y0186427D01*
X0005800Y0184829D02*
X0071075Y0184829D01*
X0071773Y0183230D02*
X0005800Y0183230D01*
X0005800Y0181632D02*
X0073454Y0181632D01*
X0070752Y0180033D02*
X0005800Y0180033D01*
X0005800Y0178435D02*
X0070752Y0178435D01*
X0070752Y0176836D02*
X0005800Y0176836D01*
X0005800Y0175238D02*
X0070752Y0175238D01*
X0070752Y0173639D02*
X0005800Y0173639D01*
X0005800Y0172041D02*
X0070752Y0172041D01*
X0071386Y0148063D02*
X0005800Y0148063D01*
X0005800Y0146465D02*
X0070963Y0146465D01*
X0071069Y0144866D02*
X0005800Y0144866D01*
X0005800Y0143268D02*
X0071746Y0143268D01*
X0073381Y0141669D02*
X0005800Y0141669D01*
X0005800Y0140070D02*
X0070752Y0140070D01*
X0070752Y0138472D02*
X0005800Y0138472D01*
X0005800Y0136873D02*
X0070752Y0136873D01*
X0070752Y0135275D02*
X0005800Y0135275D01*
X0005800Y0133676D02*
X0070752Y0133676D01*
X0070752Y0132078D02*
X0005800Y0132078D01*
X0005800Y0130479D02*
X0100347Y0130479D01*
X0099657Y0129284D02*
X0101118Y0131815D01*
X0103185Y0133882D01*
X0105716Y0135343D01*
X0108539Y0136099D01*
X0111461Y0136099D01*
X0114284Y0135343D01*
X0116815Y0133882D01*
X0118882Y0131815D01*
X0120343Y0129284D01*
X0121099Y0126461D01*
X0121099Y0123539D01*
X0120343Y0120716D01*
X0118882Y0118185D01*
X0116815Y0116118D01*
X0114284Y0114657D01*
X0111461Y0113901D01*
X0108539Y0113901D01*
X0105716Y0114657D01*
X0103185Y0116118D01*
X0101118Y0118185D01*
X0099657Y0120716D01*
X0098901Y0123539D01*
X0098901Y0126461D01*
X0099657Y0129284D01*
X0099549Y0128881D02*
X0005800Y0128881D01*
X0005800Y0127282D02*
X0099121Y0127282D01*
X0098901Y0125684D02*
X0005800Y0125684D01*
X0005800Y0124085D02*
X0098901Y0124085D01*
X0099183Y0122487D02*
X0005800Y0122487D01*
X0005800Y0120888D02*
X0099611Y0120888D01*
X0100480Y0119290D02*
X0005800Y0119290D01*
X0005800Y0117691D02*
X0101612Y0117691D01*
X0103229Y0116093D02*
X0005800Y0116093D01*
X0005800Y0114494D02*
X0106324Y0114494D01*
X0113676Y0114494D02*
X0199324Y0114494D01*
X0198716Y0114657D02*
X0201539Y0113901D01*
X0204461Y0113901D01*
X0207284Y0114657D01*
X0209815Y0116118D01*
X0211882Y0118185D01*
X0213343Y0120716D01*
X0214099Y0123539D01*
X0214099Y0126461D01*
X0213343Y0129284D01*
X0211882Y0131815D01*
X0209815Y0133882D01*
X0207284Y0135343D01*
X0204461Y0136099D01*
X0201539Y0136099D01*
X0198716Y0135343D01*
X0196185Y0133882D01*
X0194118Y0131815D01*
X0192657Y0129284D01*
X0191901Y0126461D01*
X0191901Y0123539D01*
X0192657Y0120716D01*
X0194118Y0118185D01*
X0196185Y0116118D01*
X0198716Y0114657D01*
X0196229Y0116093D02*
X0116771Y0116093D01*
X0118388Y0117691D02*
X0194612Y0117691D01*
X0193480Y0119290D02*
X0119519Y0119290D01*
X0120389Y0120888D02*
X0192611Y0120888D01*
X0192183Y0122487D02*
X0120817Y0122487D01*
X0121099Y0124085D02*
X0191901Y0124085D01*
X0191901Y0125684D02*
X0121099Y0125684D01*
X0120879Y0127282D02*
X0192121Y0127282D01*
X0192549Y0128881D02*
X0120451Y0128881D01*
X0119653Y0130479D02*
X0193347Y0130479D01*
X0194381Y0132078D02*
X0118619Y0132078D01*
X0117020Y0133676D02*
X0195980Y0133676D01*
X0198598Y0135275D02*
X0114402Y0135275D01*
X0105598Y0135275D02*
X0081248Y0135275D01*
X0081248Y0136873D02*
X0271133Y0136873D01*
X0270594Y0135275D02*
X0207402Y0135275D01*
X0210020Y0133676D02*
X0233537Y0133676D01*
X0233094Y0132078D02*
X0211619Y0132078D01*
X0212653Y0130479D02*
X0233094Y0130479D01*
X0233094Y0128881D02*
X0213451Y0128881D01*
X0213879Y0127282D02*
X0233094Y0127282D01*
X0233094Y0125684D02*
X0214099Y0125684D01*
X0214099Y0124085D02*
X0233094Y0124085D01*
X0233094Y0122487D02*
X0213817Y0122487D01*
X0213389Y0120888D02*
X0233094Y0120888D01*
X0233571Y0119290D02*
X0212519Y0119290D01*
X0211388Y0117691D02*
X0304901Y0117691D01*
X0304901Y0116093D02*
X0209771Y0116093D01*
X0206676Y0114494D02*
X0236314Y0114494D01*
X0234716Y0112896D02*
X0005800Y0112896D01*
X0005800Y0111297D02*
X0233809Y0111297D01*
X0233147Y0109699D02*
X0079440Y0109699D01*
X0080595Y0108100D02*
X0233094Y0108100D01*
X0233094Y0106502D02*
X0081031Y0106502D01*
X0080937Y0104903D02*
X0233726Y0104903D01*
X0234515Y0103305D02*
X0080281Y0103305D01*
X0078678Y0101706D02*
X0236114Y0101706D01*
X0248905Y0127282D02*
X0274060Y0127282D01*
X0272439Y0128881D02*
X0248905Y0128881D01*
X0248905Y0130479D02*
X0271401Y0130479D01*
X0270739Y0132078D02*
X0248905Y0132078D01*
X0248463Y0133676D02*
X0270594Y0133676D01*
X0271795Y0138472D02*
X0081248Y0138472D01*
X0081248Y0140070D02*
X0273390Y0140070D01*
X0276357Y0141669D02*
X0078619Y0141669D01*
X0081248Y0133676D02*
X0102980Y0133676D01*
X0101381Y0132078D02*
X0081248Y0132078D01*
X0076283Y0109699D02*
X0075717Y0109699D01*
X0075717Y0108100D02*
X0076283Y0108100D01*
X0076283Y0106502D02*
X0075717Y0106502D01*
X0072560Y0109699D02*
X0005800Y0109699D01*
X0005800Y0108100D02*
X0071405Y0108100D01*
X0070969Y0106502D02*
X0005800Y0106502D01*
X0005800Y0104903D02*
X0071063Y0104903D01*
X0071719Y0103305D02*
X0005800Y0103305D01*
X0005800Y0101706D02*
X0073322Y0101706D01*
X0070783Y0100108D02*
X0005800Y0100108D01*
X0005800Y0098509D02*
X0070752Y0098509D01*
X0070752Y0096911D02*
X0005800Y0096911D01*
X0005800Y0095312D02*
X0070752Y0095312D01*
X0070752Y0093714D02*
X0005800Y0093714D01*
X0005800Y0092115D02*
X0070752Y0092115D01*
X0075717Y0069736D02*
X0076283Y0069736D01*
X0076283Y0068137D02*
X0075717Y0068137D01*
X0075717Y0066539D02*
X0076283Y0066539D01*
X0034490Y0031372D02*
X0277510Y0031372D01*
X0276848Y0029773D02*
X0035152Y0029773D01*
X0035814Y0028175D02*
X0276186Y0028175D01*
X0276101Y0026576D02*
X0035899Y0026576D01*
X0035899Y0024978D02*
X0276101Y0024978D01*
X0276371Y0023379D02*
X0035629Y0023379D01*
X0034967Y0021781D02*
X0277033Y0021781D01*
X0277818Y0020182D02*
X0034182Y0020182D01*
X0032583Y0018584D02*
X0279417Y0018584D01*
X0281896Y0016985D02*
X0030104Y0016985D01*
X0033029Y0032970D02*
X0278971Y0032970D01*
X0280819Y0034569D02*
X0031181Y0034569D01*
X0145386Y0151260D02*
X0168263Y0151260D01*
X0166244Y0152859D02*
X0147039Y0152859D01*
X0148089Y0154457D02*
X0165148Y0154457D01*
X0164544Y0156056D02*
X0148751Y0156056D01*
X0171200Y0154457D02*
X0172800Y0154457D01*
X0172800Y0152859D02*
X0171200Y0152859D01*
X0171200Y0151260D02*
X0172800Y0151260D01*
X0172800Y0159253D02*
X0171200Y0159253D01*
X0171200Y0160851D02*
X0172800Y0160851D01*
X0172800Y0162450D02*
X0171200Y0162450D01*
X0171200Y0164048D02*
X0172800Y0164048D01*
X0175260Y0243974D02*
X0183240Y0243974D01*
X0187760Y0243974D02*
X0250740Y0243974D01*
X0250116Y0245572D02*
X0188779Y0245572D01*
X0188884Y0247171D02*
X0250322Y0247171D01*
X0259488Y0269550D02*
X0240221Y0269550D01*
X0262512Y0269550D02*
X0304901Y0269550D01*
X0304901Y0271148D02*
X0264067Y0271148D01*
X0264384Y0272747D02*
X0304901Y0272747D01*
X0304901Y0274345D02*
X0263935Y0274345D01*
X0281857Y0264754D02*
X0304901Y0264754D01*
X0304901Y0263156D02*
X0282700Y0263156D01*
X0282700Y0261557D02*
X0304901Y0261557D01*
X0304901Y0259959D02*
X0282700Y0259959D01*
X0282926Y0258360D02*
X0304901Y0258360D01*
X0304901Y0256762D02*
X0283848Y0256762D01*
X0283816Y0255163D02*
X0304901Y0255163D01*
X0304901Y0253565D02*
X0282851Y0253565D01*
X0278149Y0253565D02*
X0271721Y0253565D01*
X0272763Y0251966D02*
X0304901Y0251966D01*
X0304901Y0250368D02*
X0272884Y0250368D01*
X0272055Y0248769D02*
X0304901Y0248769D01*
X0304901Y0247171D02*
X0271700Y0247171D01*
X0271700Y0245572D02*
X0304901Y0245572D01*
X0304901Y0243974D02*
X0270585Y0243974D01*
X0291360Y0317505D02*
X0304901Y0317505D01*
X0304901Y0319104D02*
X0293103Y0319104D01*
X0294520Y0320702D02*
X0304901Y0320702D01*
X0304901Y0322301D02*
X0295183Y0322301D01*
X0295845Y0323899D02*
X0304901Y0323899D01*
X0304901Y0325498D02*
X0295899Y0325498D01*
X0295899Y0327096D02*
X0304901Y0327096D01*
X0304901Y0328695D02*
X0295599Y0328695D01*
X0294936Y0330293D02*
X0304901Y0330293D01*
X0304901Y0331892D02*
X0294108Y0331892D01*
X0292509Y0333490D02*
X0304901Y0333490D01*
X0304901Y0335089D02*
X0289925Y0335089D01*
D19*
X0286000Y0326000D03*
X0026000Y0326000D03*
X0026000Y0026000D03*
X0286000Y0026000D03*
M02*
