G75*
%MOIN*%
%OFA0B0*%
%FSLAX25Y25*%
%IPPOS*%
%LPD*%
%AMOC8*
5,1,8,0,0,1.08239X$1,22.5*
%
%ADD10C,0.13398*%
%ADD11C,0.12611*%
%ADD12R,0.12611X0.12611*%
%ADD13R,0.07296X0.07296*%
%ADD14C,0.07296*%
%ADD15C,0.04369*%
%ADD16C,0.17398*%
D10*
X0110000Y0125000D03*
X0203000Y0125000D03*
D11*
X0172000Y0158000D03*
X0141000Y0158000D03*
X0241000Y0108000D03*
X0241000Y0089500D03*
X0278500Y0082000D03*
X0278500Y0134000D03*
D12*
X0241000Y0126500D03*
D13*
X0076000Y0136000D03*
X0076000Y0096000D03*
X0076000Y0056000D03*
X0076000Y0176000D03*
X0076000Y0216000D03*
D14*
X0076000Y0226000D03*
X0076000Y0186000D03*
X0076000Y0146000D03*
X0076000Y0106000D03*
X0076000Y0066000D03*
D15*
X0089000Y0225500D03*
X0089000Y0231500D03*
X0089000Y0237500D03*
X0096000Y0237500D03*
X0096000Y0231500D03*
X0096000Y0225500D03*
X0103000Y0225500D03*
X0103000Y0231500D03*
X0103000Y0237500D03*
X0111000Y0237500D03*
X0111000Y0231500D03*
X0111000Y0225500D03*
X0119000Y0231500D03*
X0119000Y0237500D03*
X0127000Y0237500D03*
X0154000Y0261000D03*
X0168000Y0276000D03*
X0187000Y0261500D03*
X0190500Y0272000D03*
X0204000Y0264500D03*
X0222000Y0258000D03*
X0226500Y0254000D03*
X0233500Y0266500D03*
X0240000Y0263000D03*
X0238500Y0272500D03*
X0250000Y0291500D03*
X0261000Y0272587D03*
X0269500Y0251000D03*
X0280500Y0256000D03*
X0283000Y0238000D03*
X0263000Y0221000D03*
X0275000Y0202500D03*
X0245000Y0202500D03*
X0239000Y0234500D03*
X0222000Y0235000D03*
X0209000Y0245000D03*
X0185500Y0246500D03*
X0176500Y0250500D03*
X0173000Y0246500D03*
X0174000Y0235500D03*
X0127000Y0300500D03*
X0120000Y0300500D03*
X0112000Y0300500D03*
X0104000Y0300500D03*
X0097000Y0300500D03*
X0090000Y0300500D03*
X0043000Y0309000D03*
X0253500Y0246000D03*
X0256500Y0156000D03*
D16*
X0026000Y0026000D03*
X0286000Y0026000D03*
X0286000Y0326000D03*
X0026000Y0326000D03*
M02*
