G75*
%MOIN*%
%OFA0B0*%
%FSLAX25Y25*%
%IPPOS*%
%LPD*%
%AMOC8*
5,1,8,0,0,1.08239X$1,22.5*
%
%ADD10C,0.01100*%
%ADD11C,0.00700*%
%ADD12C,0.00600*%
%ADD13C,0.00800*%
%ADD14C,0.00400*%
%ADD15C,0.00080*%
%ADD16R,0.00787X0.00787*%
%ADD17C,0.00500*%
D10*
X0018518Y0052534D02*
X0018518Y0056471D01*
X0016550Y0054503D02*
X0020487Y0054503D01*
X0020487Y0064503D02*
X0016550Y0064503D01*
X0018518Y0092534D02*
X0018518Y0096471D01*
X0016550Y0094503D02*
X0020487Y0094503D01*
X0020487Y0104503D02*
X0016550Y0104503D01*
X0018518Y0132534D02*
X0018518Y0136471D01*
X0016550Y0134503D02*
X0020487Y0134503D01*
X0020487Y0144503D02*
X0016550Y0144503D01*
X0018518Y0172534D02*
X0018518Y0176471D01*
X0016550Y0174503D02*
X0020487Y0174503D01*
X0020487Y0184503D02*
X0016550Y0184503D01*
X0018518Y0212534D02*
X0018518Y0216471D01*
X0016550Y0214503D02*
X0020487Y0214503D01*
X0020487Y0224503D02*
X0016550Y0224503D01*
X0016371Y0232113D02*
X0014403Y0232113D01*
X0013418Y0233097D01*
X0013418Y0236050D01*
X0011450Y0236050D02*
X0017355Y0236050D01*
X0017355Y0233097D01*
X0016371Y0232113D01*
X0013418Y0234081D02*
X0011450Y0232113D01*
X0011450Y0238558D02*
X0011450Y0242495D01*
X0017355Y0242495D01*
X0017355Y0238558D01*
X0014403Y0240527D02*
X0014403Y0242495D01*
X0011450Y0245004D02*
X0017355Y0245004D01*
X0017355Y0248941D02*
X0011450Y0248941D01*
X0013418Y0246972D01*
X0011450Y0245004D01*
X0012434Y0251449D02*
X0011450Y0252434D01*
X0011450Y0254402D01*
X0012434Y0255386D01*
X0016371Y0255386D01*
X0017355Y0254402D01*
X0017355Y0252434D01*
X0016371Y0251449D01*
X0012434Y0251449D01*
X0014403Y0257895D02*
X0013418Y0258879D01*
X0013418Y0261832D01*
X0011450Y0261832D02*
X0017355Y0261832D01*
X0017355Y0258879D01*
X0016371Y0257895D01*
X0014403Y0257895D01*
X0017355Y0270786D02*
X0017355Y0274723D01*
X0017355Y0272754D02*
X0011450Y0272754D01*
X0012434Y0277231D02*
X0011450Y0278215D01*
X0011450Y0280184D01*
X0012434Y0281168D01*
X0017355Y0281168D01*
X0016371Y0283677D02*
X0014403Y0283677D01*
X0013418Y0284661D01*
X0013418Y0287614D01*
X0011450Y0287614D02*
X0017355Y0287614D01*
X0017355Y0284661D01*
X0016371Y0283677D01*
X0017355Y0277231D02*
X0012434Y0277231D01*
X0017355Y0290122D02*
X0017355Y0294059D01*
X0017355Y0292091D02*
X0011450Y0292091D01*
X0012434Y0296568D02*
X0017355Y0296568D01*
X0017355Y0300505D02*
X0012434Y0300505D01*
X0011450Y0299520D01*
X0011450Y0297552D01*
X0012434Y0296568D01*
X0012434Y0303013D02*
X0011450Y0303997D01*
X0011450Y0305966D01*
X0012434Y0306950D01*
X0016371Y0306950D01*
X0017355Y0305966D01*
X0017355Y0303997D01*
X0016371Y0303013D01*
X0012434Y0303013D01*
X0061050Y0311550D02*
X0064987Y0311550D01*
X0063018Y0314503D02*
X0061050Y0314503D01*
X0061050Y0317455D02*
X0061050Y0311550D01*
X0061050Y0317455D02*
X0064987Y0317455D01*
X0067495Y0315487D02*
X0069464Y0317455D01*
X0071432Y0315487D01*
X0073941Y0316471D02*
X0074925Y0317455D01*
X0076894Y0317455D01*
X0077878Y0316471D01*
X0077878Y0315487D01*
X0076894Y0314503D01*
X0077878Y0313518D01*
X0077878Y0312534D01*
X0076894Y0311550D01*
X0074925Y0311550D01*
X0073941Y0312534D01*
X0075909Y0314503D02*
X0076894Y0314503D01*
X0086832Y0313518D02*
X0089785Y0313518D01*
X0090769Y0314503D01*
X0090769Y0316471D01*
X0089785Y0317455D01*
X0086832Y0317455D01*
X0086832Y0311550D01*
X0088800Y0313518D02*
X0090769Y0311550D01*
X0093277Y0312534D02*
X0093277Y0316471D01*
X0094262Y0317455D01*
X0096230Y0317455D01*
X0097214Y0316471D01*
X0099723Y0317455D02*
X0099723Y0311550D01*
X0097214Y0312534D02*
X0096230Y0311550D01*
X0094262Y0311550D01*
X0093277Y0312534D01*
X0099723Y0317455D02*
X0101691Y0315487D01*
X0103660Y0317455D01*
X0103660Y0311550D01*
X0106168Y0314503D02*
X0110105Y0314503D01*
X0112614Y0313518D02*
X0115566Y0313518D01*
X0116551Y0314503D01*
X0116551Y0316471D01*
X0115566Y0317455D01*
X0112614Y0317455D01*
X0112614Y0311550D01*
X0119059Y0311550D02*
X0122012Y0311550D01*
X0122996Y0312534D01*
X0122996Y0313518D01*
X0122012Y0314503D01*
X0119059Y0314503D01*
X0119059Y0317455D02*
X0119059Y0311550D01*
X0122012Y0314503D02*
X0122996Y0315487D01*
X0122996Y0316471D01*
X0122012Y0317455D01*
X0119059Y0317455D01*
X0125505Y0317455D02*
X0125505Y0311550D01*
X0128457Y0311550D01*
X0129442Y0312534D01*
X0129442Y0313518D01*
X0128457Y0314503D01*
X0125505Y0314503D01*
X0125505Y0317455D02*
X0128457Y0317455D01*
X0129442Y0316471D01*
X0129442Y0315487D01*
X0128457Y0314503D01*
X0131950Y0311550D02*
X0135887Y0317455D01*
X0138396Y0317455D02*
X0138396Y0311550D01*
X0142333Y0311550D01*
X0144841Y0311550D02*
X0148778Y0311550D01*
X0146810Y0311550D02*
X0146810Y0317455D01*
X0144841Y0315487D01*
X0142333Y0317455D02*
X0138396Y0317455D01*
X0138396Y0314503D02*
X0140364Y0314503D01*
X0157732Y0316471D02*
X0157732Y0312534D01*
X0158717Y0311550D01*
X0160685Y0311550D01*
X0161669Y0312534D01*
X0164178Y0312534D02*
X0165162Y0311550D01*
X0167130Y0311550D01*
X0168115Y0312534D01*
X0168115Y0314503D01*
X0167130Y0315487D01*
X0165162Y0315487D01*
X0164178Y0314503D01*
X0164178Y0312534D01*
X0161669Y0316471D02*
X0160685Y0317455D01*
X0158717Y0317455D01*
X0157732Y0316471D01*
X0170623Y0315487D02*
X0170623Y0311550D01*
X0170623Y0315487D02*
X0173576Y0315487D01*
X0174560Y0314503D01*
X0174560Y0311550D01*
X0178053Y0312534D02*
X0178053Y0316471D01*
X0177069Y0315487D02*
X0179037Y0315487D01*
X0181366Y0315487D02*
X0181366Y0311550D01*
X0181366Y0313518D02*
X0183334Y0315487D01*
X0184318Y0315487D01*
X0186737Y0314503D02*
X0186737Y0312534D01*
X0187721Y0311550D01*
X0189690Y0311550D01*
X0190674Y0312534D01*
X0190674Y0314503D01*
X0189690Y0315487D01*
X0187721Y0315487D01*
X0186737Y0314503D01*
X0193183Y0317455D02*
X0194167Y0317455D01*
X0194167Y0311550D01*
X0193183Y0311550D02*
X0195151Y0311550D01*
X0203925Y0311550D02*
X0206878Y0311550D01*
X0207862Y0312534D01*
X0207862Y0313518D01*
X0206878Y0314503D01*
X0203925Y0314503D01*
X0203925Y0317455D02*
X0203925Y0311550D01*
X0206878Y0314503D02*
X0207862Y0315487D01*
X0207862Y0316471D01*
X0206878Y0317455D01*
X0203925Y0317455D01*
X0210371Y0314503D02*
X0210371Y0312534D01*
X0211355Y0311550D01*
X0213323Y0311550D01*
X0214307Y0312534D01*
X0214307Y0314503D01*
X0213323Y0315487D01*
X0211355Y0315487D01*
X0210371Y0314503D01*
X0216816Y0312534D02*
X0217800Y0313518D01*
X0220753Y0313518D01*
X0220753Y0314503D02*
X0220753Y0311550D01*
X0217800Y0311550D01*
X0216816Y0312534D01*
X0217800Y0315487D02*
X0219769Y0315487D01*
X0220753Y0314503D01*
X0223262Y0315487D02*
X0223262Y0311550D01*
X0223262Y0313518D02*
X0225230Y0315487D01*
X0226214Y0315487D01*
X0228633Y0314503D02*
X0229617Y0315487D01*
X0232570Y0315487D01*
X0232570Y0317455D02*
X0232570Y0311550D01*
X0229617Y0311550D01*
X0228633Y0312534D01*
X0228633Y0314503D01*
X0236063Y0312534D02*
X0236063Y0311550D01*
X0237047Y0311550D01*
X0237047Y0312534D01*
X0236063Y0312534D01*
X0237047Y0311550D02*
X0235078Y0309582D01*
X0245821Y0315487D02*
X0247789Y0311550D01*
X0249758Y0315487D01*
X0252266Y0316471D02*
X0253251Y0317455D01*
X0255219Y0317455D01*
X0256203Y0316471D01*
X0256203Y0315487D01*
X0252266Y0311550D01*
X0256203Y0311550D01*
X0258712Y0311550D02*
X0259696Y0311550D01*
X0259696Y0312534D01*
X0258712Y0312534D01*
X0258712Y0311550D01*
X0261935Y0312534D02*
X0261935Y0316471D01*
X0262919Y0317455D01*
X0264887Y0317455D01*
X0265871Y0316471D01*
X0261935Y0312534D01*
X0262919Y0311550D01*
X0264887Y0311550D01*
X0265871Y0312534D01*
X0265871Y0316471D01*
X0280518Y0263471D02*
X0280518Y0259534D01*
X0278550Y0261503D02*
X0282487Y0261503D01*
X0281518Y0249471D02*
X0281518Y0245534D01*
X0279550Y0247503D02*
X0283487Y0247503D01*
X0282018Y0229471D02*
X0282018Y0225534D01*
X0280050Y0227503D02*
X0283987Y0227503D01*
X0293545Y0143378D02*
X0293545Y0139441D01*
X0299450Y0139441D01*
X0296497Y0139441D02*
X0296497Y0141409D01*
X0293545Y0136932D02*
X0293545Y0132995D01*
X0299450Y0132995D01*
X0298466Y0130487D02*
X0294529Y0130487D01*
X0293545Y0129503D01*
X0293545Y0127534D01*
X0294529Y0126550D01*
X0298466Y0126550D01*
X0299450Y0127534D01*
X0299450Y0129503D01*
X0298466Y0130487D01*
X0296497Y0132995D02*
X0296497Y0134964D01*
X0294545Y0086932D02*
X0300450Y0086932D01*
X0294545Y0082995D01*
X0300450Y0082995D01*
X0299466Y0080487D02*
X0295529Y0080487D01*
X0294545Y0079503D01*
X0294545Y0077534D01*
X0295529Y0076550D01*
X0299466Y0076550D01*
X0300450Y0077534D01*
X0300450Y0079503D01*
X0299466Y0080487D01*
X0192793Y0021471D02*
X0192793Y0019503D01*
X0191809Y0018518D01*
X0188856Y0018518D01*
X0188856Y0016550D02*
X0188856Y0022455D01*
X0191809Y0022455D01*
X0192793Y0021471D01*
X0190825Y0018518D02*
X0192793Y0016550D01*
X0186348Y0016550D02*
X0182411Y0016550D01*
X0182411Y0022455D01*
X0186348Y0022455D01*
X0184379Y0019503D02*
X0182411Y0019503D01*
X0179902Y0016550D02*
X0179902Y0022455D01*
X0175965Y0022455D02*
X0175965Y0016550D01*
X0177934Y0018518D01*
X0179902Y0016550D01*
X0173457Y0017534D02*
X0173457Y0021471D01*
X0172473Y0022455D01*
X0170504Y0022455D01*
X0169520Y0021471D01*
X0169520Y0017534D01*
X0170504Y0016550D01*
X0172473Y0016550D01*
X0173457Y0017534D01*
X0167011Y0019503D02*
X0166027Y0018518D01*
X0163074Y0018518D01*
X0163074Y0016550D02*
X0163074Y0022455D01*
X0166027Y0022455D01*
X0167011Y0021471D01*
X0167011Y0019503D01*
X0154120Y0022455D02*
X0150183Y0022455D01*
X0152152Y0022455D02*
X0152152Y0016550D01*
X0147675Y0017534D02*
X0147675Y0022455D01*
X0143738Y0022455D02*
X0143738Y0017534D01*
X0144722Y0016550D01*
X0146691Y0016550D01*
X0147675Y0017534D01*
X0141229Y0019503D02*
X0140245Y0018518D01*
X0137292Y0018518D01*
X0137292Y0016550D02*
X0137292Y0022455D01*
X0140245Y0022455D01*
X0141229Y0021471D01*
X0141229Y0019503D01*
X0134784Y0022455D02*
X0134784Y0016550D01*
X0130847Y0022455D01*
X0130847Y0016550D01*
X0128518Y0016550D02*
X0126550Y0016550D01*
X0127534Y0016550D02*
X0127534Y0022455D01*
X0126550Y0022455D02*
X0128518Y0022455D01*
X0098518Y0083534D02*
X0098518Y0087471D01*
X0096550Y0085503D02*
X0100487Y0085503D01*
X0090487Y0094503D02*
X0086550Y0094503D01*
X0088518Y0096471D02*
X0088518Y0092534D01*
X0088518Y0132534D02*
X0088518Y0136471D01*
X0086550Y0134503D02*
X0090487Y0134503D01*
X0088518Y0172534D02*
X0088518Y0176471D01*
X0086550Y0174503D02*
X0090487Y0174503D01*
X0088518Y0212534D02*
X0088518Y0216471D01*
X0086550Y0214503D02*
X0090487Y0214503D01*
X0179037Y0311550D02*
X0178053Y0312534D01*
D11*
X0178382Y0260500D02*
X0178384Y0260566D01*
X0178390Y0260632D01*
X0178400Y0260698D01*
X0178413Y0260763D01*
X0178431Y0260827D01*
X0178452Y0260889D01*
X0178477Y0260951D01*
X0178505Y0261011D01*
X0178537Y0261069D01*
X0178573Y0261125D01*
X0178611Y0261178D01*
X0178653Y0261230D01*
X0178698Y0261279D01*
X0178745Y0261325D01*
X0178796Y0261368D01*
X0178848Y0261408D01*
X0178903Y0261445D01*
X0178960Y0261479D01*
X0179019Y0261509D01*
X0179080Y0261536D01*
X0179142Y0261559D01*
X0179205Y0261578D01*
X0179270Y0261594D01*
X0179335Y0261606D01*
X0179401Y0261614D01*
X0179467Y0261618D01*
X0179533Y0261618D01*
X0179599Y0261614D01*
X0179665Y0261606D01*
X0179730Y0261594D01*
X0179795Y0261578D01*
X0179858Y0261559D01*
X0179920Y0261536D01*
X0179981Y0261509D01*
X0180040Y0261479D01*
X0180097Y0261445D01*
X0180152Y0261408D01*
X0180204Y0261368D01*
X0180255Y0261325D01*
X0180302Y0261279D01*
X0180347Y0261230D01*
X0180389Y0261178D01*
X0180427Y0261125D01*
X0180463Y0261069D01*
X0180495Y0261011D01*
X0180523Y0260951D01*
X0180548Y0260889D01*
X0180569Y0260827D01*
X0180587Y0260763D01*
X0180600Y0260698D01*
X0180610Y0260632D01*
X0180616Y0260566D01*
X0180618Y0260500D01*
X0180616Y0260434D01*
X0180610Y0260368D01*
X0180600Y0260302D01*
X0180587Y0260237D01*
X0180569Y0260173D01*
X0180548Y0260111D01*
X0180523Y0260049D01*
X0180495Y0259989D01*
X0180463Y0259931D01*
X0180427Y0259875D01*
X0180389Y0259822D01*
X0180347Y0259770D01*
X0180302Y0259721D01*
X0180255Y0259675D01*
X0180204Y0259632D01*
X0180152Y0259592D01*
X0180097Y0259555D01*
X0180040Y0259521D01*
X0179981Y0259491D01*
X0179920Y0259464D01*
X0179858Y0259441D01*
X0179795Y0259422D01*
X0179730Y0259406D01*
X0179665Y0259394D01*
X0179599Y0259386D01*
X0179533Y0259382D01*
X0179467Y0259382D01*
X0179401Y0259386D01*
X0179335Y0259394D01*
X0179270Y0259406D01*
X0179205Y0259422D01*
X0179142Y0259441D01*
X0179080Y0259464D01*
X0179019Y0259491D01*
X0178960Y0259521D01*
X0178903Y0259555D01*
X0178848Y0259592D01*
X0178796Y0259632D01*
X0178745Y0259675D01*
X0178698Y0259721D01*
X0178653Y0259770D01*
X0178611Y0259822D01*
X0178573Y0259875D01*
X0178537Y0259931D01*
X0178505Y0259989D01*
X0178477Y0260049D01*
X0178452Y0260111D01*
X0178431Y0260173D01*
X0178413Y0260237D01*
X0178400Y0260302D01*
X0178390Y0260368D01*
X0178384Y0260434D01*
X0178382Y0260500D01*
D12*
X0170362Y0254181D02*
X0170362Y0251819D01*
X0165638Y0251819D02*
X0165638Y0254181D01*
X0163362Y0254181D02*
X0163362Y0251819D01*
X0158638Y0251819D02*
X0158638Y0254181D01*
X0156362Y0254181D02*
X0156362Y0251819D01*
X0151638Y0251819D02*
X0151638Y0254181D01*
X0165638Y0266819D02*
X0165638Y0269181D01*
X0170362Y0269181D02*
X0170362Y0266819D01*
X0170362Y0282819D02*
X0170362Y0285181D01*
X0165638Y0285181D02*
X0165638Y0282819D01*
X0195638Y0269181D02*
X0195638Y0266819D01*
X0200362Y0266819D02*
X0200362Y0269181D01*
X0199362Y0254181D02*
X0199362Y0251819D01*
X0202638Y0251819D02*
X0202638Y0254181D01*
X0207362Y0254181D02*
X0207362Y0251819D01*
X0210638Y0251819D02*
X0210638Y0254181D01*
X0215362Y0254181D02*
X0215362Y0251819D01*
X0219638Y0244181D02*
X0219638Y0241819D01*
X0224362Y0241819D02*
X0224362Y0244181D01*
X0224362Y0264819D02*
X0224362Y0267181D01*
X0219638Y0267181D02*
X0219638Y0264819D01*
X0230638Y0286819D02*
X0230638Y0289181D01*
X0235362Y0289181D02*
X0235362Y0286819D01*
X0241638Y0286819D02*
X0241638Y0289181D01*
X0246362Y0289181D02*
X0246362Y0286819D01*
X0289819Y0264362D02*
X0292181Y0264362D01*
X0292181Y0259638D02*
X0289819Y0259638D01*
X0289819Y0252362D02*
X0292181Y0252362D01*
X0292181Y0247638D02*
X0289819Y0247638D01*
X0289819Y0240362D02*
X0292181Y0240362D01*
X0292181Y0235638D02*
X0289819Y0235638D01*
X0277362Y0195181D02*
X0277362Y0192819D01*
X0272638Y0192819D02*
X0272638Y0195181D01*
X0247362Y0195181D02*
X0247362Y0192819D01*
X0242638Y0192819D02*
X0242638Y0195181D01*
X0235700Y0178000D02*
X0233500Y0178000D01*
X0235700Y0178000D02*
X0235700Y0174800D01*
X0241638Y0174819D02*
X0241638Y0177181D01*
X0246362Y0177181D02*
X0246362Y0174819D01*
X0226700Y0178000D02*
X0224500Y0178000D01*
X0224500Y0174800D01*
X0192362Y0237819D02*
X0192362Y0240181D01*
X0187638Y0240181D02*
X0187638Y0237819D01*
X0183362Y0237819D02*
X0183362Y0240181D01*
X0178638Y0240181D02*
X0178638Y0237819D01*
X0170362Y0237819D02*
X0170362Y0240181D01*
X0165638Y0240181D02*
X0165638Y0237819D01*
X0194638Y0251819D02*
X0194638Y0254181D01*
X0076862Y0244681D02*
X0076862Y0242319D01*
X0072138Y0242319D02*
X0072138Y0244681D01*
X0069862Y0244681D02*
X0069862Y0242319D01*
X0065138Y0242319D02*
X0065138Y0244681D01*
X0062862Y0244681D02*
X0062862Y0242319D01*
X0058138Y0242319D02*
X0058138Y0244681D01*
X0059638Y0297319D02*
X0059638Y0299681D01*
X0064362Y0299681D02*
X0064362Y0297319D01*
D13*
X0031593Y0044400D02*
X0030893Y0044400D01*
X0030192Y0045101D01*
X0031593Y0044400D02*
X0032294Y0045101D01*
X0032294Y0048604D01*
X0031593Y0048604D02*
X0032995Y0048604D01*
X0034796Y0048604D02*
X0037598Y0048604D01*
X0037598Y0047903D01*
X0034796Y0045101D01*
X0034796Y0044400D01*
X0033593Y0084400D02*
X0034294Y0085101D01*
X0034294Y0088604D01*
X0033593Y0088604D02*
X0034995Y0088604D01*
X0036796Y0086502D02*
X0038898Y0086502D01*
X0039598Y0085801D01*
X0039598Y0085101D01*
X0038898Y0084400D01*
X0037497Y0084400D01*
X0036796Y0085101D01*
X0036796Y0086502D01*
X0038197Y0087903D01*
X0039598Y0088604D01*
X0033593Y0084400D02*
X0032893Y0084400D01*
X0032192Y0085101D01*
X0033893Y0124400D02*
X0034593Y0124400D01*
X0035294Y0125101D01*
X0035294Y0128604D01*
X0034593Y0128604D02*
X0035995Y0128604D01*
X0037796Y0128604D02*
X0037796Y0126502D01*
X0039197Y0127202D01*
X0039898Y0127202D01*
X0040598Y0126502D01*
X0040598Y0125101D01*
X0039898Y0124400D01*
X0038497Y0124400D01*
X0037796Y0125101D01*
X0037796Y0128604D02*
X0040598Y0128604D01*
X0033893Y0124400D02*
X0033192Y0125101D01*
X0033893Y0164400D02*
X0034593Y0164400D01*
X0035294Y0165101D01*
X0035294Y0168604D01*
X0034593Y0168604D02*
X0035995Y0168604D01*
X0037796Y0166502D02*
X0040598Y0166502D01*
X0039898Y0168604D02*
X0037796Y0166502D01*
X0039898Y0164400D02*
X0039898Y0168604D01*
X0033893Y0164400D02*
X0033192Y0165101D01*
X0031593Y0204400D02*
X0030893Y0204400D01*
X0030192Y0205101D01*
X0031593Y0204400D02*
X0032294Y0205101D01*
X0032294Y0208604D01*
X0031593Y0208604D02*
X0032995Y0208604D01*
X0034796Y0207903D02*
X0035497Y0208604D01*
X0036898Y0208604D01*
X0037598Y0207903D01*
X0037598Y0207202D01*
X0036898Y0206502D01*
X0037598Y0205801D01*
X0037598Y0205101D01*
X0036898Y0204400D01*
X0035497Y0204400D01*
X0034796Y0205101D01*
X0036197Y0206502D02*
X0036898Y0206502D01*
X0042646Y0239900D02*
X0042646Y0242002D01*
X0043347Y0242702D01*
X0044748Y0242702D01*
X0045449Y0242002D01*
X0045449Y0239900D01*
X0046850Y0239900D02*
X0042646Y0239900D01*
X0045449Y0241301D02*
X0046850Y0242702D01*
X0046149Y0244504D02*
X0046850Y0245205D01*
X0046850Y0246606D01*
X0046149Y0247306D01*
X0045449Y0247306D01*
X0044748Y0246606D01*
X0044748Y0245905D01*
X0044748Y0246606D02*
X0044048Y0247306D01*
X0043347Y0247306D01*
X0042646Y0246606D01*
X0042646Y0245205D01*
X0043347Y0244504D01*
X0051146Y0244296D02*
X0051146Y0247098D01*
X0051847Y0247098D01*
X0054649Y0244296D01*
X0055350Y0244296D01*
X0055350Y0242495D02*
X0053949Y0241093D01*
X0053949Y0241794D02*
X0053949Y0239692D01*
X0055350Y0239692D02*
X0051146Y0239692D01*
X0051146Y0241794D01*
X0051847Y0242495D01*
X0053248Y0242495D01*
X0053949Y0241794D01*
X0080146Y0243098D02*
X0080847Y0241697D01*
X0082248Y0240296D01*
X0082248Y0242398D01*
X0082949Y0243098D01*
X0083649Y0243098D01*
X0084350Y0242398D01*
X0084350Y0240997D01*
X0083649Y0240296D01*
X0082248Y0240296D01*
X0082248Y0238495D02*
X0082949Y0237794D01*
X0082949Y0235692D01*
X0084350Y0235692D02*
X0080146Y0235692D01*
X0080146Y0237794D01*
X0080847Y0238495D01*
X0082248Y0238495D01*
X0082949Y0237093D02*
X0084350Y0238495D01*
X0050087Y0277358D02*
X0046543Y0277358D01*
X0042905Y0274604D02*
X0042905Y0270400D01*
X0041504Y0270400D02*
X0044306Y0270400D01*
X0041504Y0273202D02*
X0042905Y0274604D01*
X0039702Y0273903D02*
X0039002Y0274604D01*
X0037601Y0274604D01*
X0036900Y0273903D01*
X0036900Y0271101D01*
X0037601Y0270400D01*
X0039002Y0270400D01*
X0039702Y0271101D01*
X0039457Y0277358D02*
X0035913Y0277358D01*
X0029858Y0283413D01*
X0029858Y0303642D01*
X0039457Y0303642D01*
X0046543Y0303642D02*
X0056142Y0303642D01*
X0056142Y0283413D01*
X0050087Y0277358D01*
X0070393Y0297150D02*
X0069692Y0297851D01*
X0069692Y0300653D01*
X0070393Y0301354D01*
X0071794Y0301354D01*
X0072495Y0300653D01*
X0074296Y0301354D02*
X0077098Y0301354D01*
X0077098Y0300653D01*
X0074296Y0297851D01*
X0074296Y0297150D01*
X0072495Y0297851D02*
X0071794Y0297150D01*
X0070393Y0297150D01*
X0136588Y0254653D02*
X0136588Y0251851D01*
X0137289Y0251150D01*
X0138690Y0251150D01*
X0139391Y0251851D01*
X0141192Y0251150D02*
X0143995Y0251150D01*
X0142593Y0251150D02*
X0142593Y0255354D01*
X0141192Y0253952D01*
X0139391Y0254653D02*
X0138690Y0255354D01*
X0137289Y0255354D01*
X0136588Y0254653D01*
X0145796Y0254653D02*
X0146497Y0255354D01*
X0147898Y0255354D01*
X0148598Y0254653D01*
X0148598Y0253952D01*
X0147898Y0253252D01*
X0148598Y0252551D01*
X0148598Y0251851D01*
X0147898Y0251150D01*
X0146497Y0251150D01*
X0145796Y0251851D01*
X0147197Y0253252D02*
X0147898Y0253252D01*
X0150588Y0245354D02*
X0152690Y0245354D01*
X0153391Y0244653D01*
X0153391Y0243252D01*
X0152690Y0242551D01*
X0150588Y0242551D01*
X0150588Y0241150D02*
X0150588Y0245354D01*
X0151989Y0242551D02*
X0153391Y0241150D01*
X0155192Y0241150D02*
X0157995Y0241150D01*
X0156593Y0241150D02*
X0156593Y0245354D01*
X0155192Y0243952D01*
X0159796Y0243252D02*
X0159796Y0241851D01*
X0160497Y0241150D01*
X0161898Y0241150D01*
X0162598Y0241851D01*
X0162598Y0242551D01*
X0161898Y0243252D01*
X0159796Y0243252D01*
X0161197Y0244653D01*
X0162598Y0245354D01*
X0161306Y0236354D02*
X0159905Y0235653D01*
X0158504Y0234252D01*
X0160606Y0234252D01*
X0161306Y0233551D01*
X0161306Y0232851D01*
X0160606Y0232150D01*
X0159205Y0232150D01*
X0158504Y0232851D01*
X0158504Y0234252D01*
X0156702Y0235653D02*
X0156002Y0236354D01*
X0154601Y0236354D01*
X0153900Y0235653D01*
X0153900Y0232851D01*
X0154601Y0232150D01*
X0156002Y0232150D01*
X0156702Y0232851D01*
X0169588Y0231354D02*
X0169588Y0227150D01*
X0169588Y0228551D02*
X0171690Y0228551D01*
X0172391Y0229252D01*
X0172391Y0230653D01*
X0171690Y0231354D01*
X0169588Y0231354D01*
X0170989Y0228551D02*
X0172391Y0227150D01*
X0174192Y0227150D02*
X0176995Y0227150D01*
X0175593Y0227150D02*
X0175593Y0231354D01*
X0174192Y0229952D01*
X0178796Y0230653D02*
X0179497Y0231354D01*
X0180898Y0231354D01*
X0181598Y0230653D01*
X0181598Y0229952D01*
X0178796Y0227150D01*
X0181598Y0227150D01*
X0188900Y0227650D02*
X0188900Y0231854D01*
X0191002Y0231854D01*
X0191702Y0231153D01*
X0191702Y0229752D01*
X0191002Y0229051D01*
X0188900Y0229051D01*
X0190301Y0229051D02*
X0191702Y0227650D01*
X0193504Y0227650D02*
X0196306Y0227650D01*
X0194905Y0227650D02*
X0194905Y0231854D01*
X0193504Y0230452D01*
X0198108Y0230452D02*
X0199509Y0231854D01*
X0199509Y0227650D01*
X0198108Y0227650D02*
X0200910Y0227650D01*
X0201146Y0233900D02*
X0201146Y0236002D01*
X0201847Y0236702D01*
X0203248Y0236702D01*
X0203949Y0236002D01*
X0203949Y0233900D01*
X0205350Y0233900D02*
X0201146Y0233900D01*
X0203949Y0235301D02*
X0205350Y0236702D01*
X0205350Y0238504D02*
X0205350Y0241306D01*
X0205350Y0239905D02*
X0201146Y0239905D01*
X0202548Y0238504D01*
X0201847Y0243108D02*
X0201146Y0243808D01*
X0201146Y0245210D01*
X0201847Y0245910D01*
X0202548Y0245910D01*
X0203248Y0245210D01*
X0203949Y0245910D01*
X0204649Y0245910D01*
X0205350Y0245210D01*
X0205350Y0243808D01*
X0204649Y0243108D01*
X0203248Y0244509D02*
X0203248Y0245210D01*
X0193350Y0246400D02*
X0189146Y0246400D01*
X0189146Y0248502D01*
X0189847Y0249202D01*
X0191248Y0249202D01*
X0191949Y0248502D01*
X0191949Y0246400D01*
X0191949Y0247801D02*
X0193350Y0249202D01*
X0192649Y0251004D02*
X0191949Y0251004D01*
X0191248Y0251705D01*
X0191248Y0253106D01*
X0191949Y0253806D01*
X0192649Y0253806D01*
X0193350Y0253106D01*
X0193350Y0251705D01*
X0192649Y0251004D01*
X0191248Y0251705D02*
X0190548Y0251004D01*
X0189847Y0251004D01*
X0189146Y0251705D01*
X0189146Y0253106D01*
X0189847Y0253806D01*
X0190548Y0253806D01*
X0191248Y0253106D01*
X0209400Y0260851D02*
X0210101Y0260150D01*
X0211502Y0260150D01*
X0212202Y0260851D01*
X0214004Y0260851D02*
X0214705Y0260150D01*
X0216106Y0260150D01*
X0216806Y0260851D01*
X0216806Y0263653D01*
X0216106Y0264354D01*
X0214705Y0264354D01*
X0214004Y0263653D01*
X0214004Y0262952D01*
X0214705Y0262252D01*
X0216806Y0262252D01*
X0212202Y0263653D02*
X0211502Y0264354D01*
X0210101Y0264354D01*
X0209400Y0263653D01*
X0209400Y0260851D01*
X0209101Y0272150D02*
X0210502Y0272150D01*
X0211202Y0272851D01*
X0213004Y0272150D02*
X0215806Y0272150D01*
X0214405Y0272150D02*
X0214405Y0276354D01*
X0213004Y0274952D01*
X0211202Y0275653D02*
X0210502Y0276354D01*
X0209101Y0276354D01*
X0208400Y0275653D01*
X0208400Y0272851D01*
X0209101Y0272150D01*
X0202598Y0279351D02*
X0201898Y0278650D01*
X0200497Y0278650D01*
X0199796Y0279351D01*
X0199796Y0280752D02*
X0201197Y0281452D01*
X0201898Y0281452D01*
X0202598Y0280752D01*
X0202598Y0279351D01*
X0199796Y0280752D02*
X0199796Y0282854D01*
X0202598Y0282854D01*
X0196593Y0282854D02*
X0196593Y0278650D01*
X0195192Y0278650D02*
X0197995Y0278650D01*
X0195192Y0281452D02*
X0196593Y0282854D01*
X0193391Y0282153D02*
X0193391Y0280752D01*
X0192690Y0280051D01*
X0190588Y0280051D01*
X0190588Y0278650D02*
X0190588Y0282854D01*
X0192690Y0282854D01*
X0193391Y0282153D01*
X0191989Y0280051D02*
X0193391Y0278650D01*
X0185135Y0279703D02*
X0184434Y0279002D01*
X0183033Y0279002D01*
X0182332Y0279703D01*
X0182332Y0281104D02*
X0183733Y0281805D01*
X0184434Y0281805D01*
X0185135Y0281104D01*
X0185135Y0279703D01*
X0182332Y0281104D02*
X0182332Y0283206D01*
X0185135Y0283206D01*
X0180531Y0283206D02*
X0180531Y0279703D01*
X0179830Y0279002D01*
X0178429Y0279002D01*
X0177728Y0279703D01*
X0177728Y0283206D01*
X0163410Y0271153D02*
X0163410Y0268351D01*
X0162710Y0267650D01*
X0161308Y0267650D01*
X0160608Y0268351D01*
X0163410Y0271153D01*
X0162710Y0271854D01*
X0161308Y0271854D01*
X0160608Y0271153D01*
X0160608Y0268351D01*
X0158806Y0267650D02*
X0156004Y0267650D01*
X0157405Y0267650D02*
X0157405Y0271854D01*
X0156004Y0270452D01*
X0154202Y0269752D02*
X0153502Y0269051D01*
X0151400Y0269051D01*
X0151400Y0267650D02*
X0151400Y0271854D01*
X0153502Y0271854D01*
X0154202Y0271153D01*
X0154202Y0269752D01*
X0152801Y0269051D02*
X0154202Y0267650D01*
X0157400Y0263854D02*
X0159502Y0263854D01*
X0160202Y0263153D01*
X0160202Y0261752D01*
X0159502Y0261051D01*
X0157400Y0261051D01*
X0157400Y0259650D02*
X0157400Y0263854D01*
X0158801Y0261051D02*
X0160202Y0259650D01*
X0162004Y0260351D02*
X0162705Y0259650D01*
X0164106Y0259650D01*
X0164806Y0260351D01*
X0164806Y0263153D01*
X0164106Y0263854D01*
X0162705Y0263854D01*
X0162004Y0263153D01*
X0162004Y0262452D01*
X0162705Y0261752D01*
X0164806Y0261752D01*
X0160606Y0282150D02*
X0159205Y0282150D01*
X0158504Y0282851D01*
X0158504Y0284252D02*
X0159905Y0284952D01*
X0160606Y0284952D01*
X0161306Y0284252D01*
X0161306Y0282851D01*
X0160606Y0282150D01*
X0158504Y0284252D02*
X0158504Y0286354D01*
X0161306Y0286354D01*
X0156702Y0285653D02*
X0156002Y0286354D01*
X0154601Y0286354D01*
X0153900Y0285653D01*
X0153900Y0282851D01*
X0154601Y0282150D01*
X0156002Y0282150D01*
X0156702Y0282851D01*
X0145775Y0273312D02*
X0145074Y0274013D01*
X0143673Y0274013D01*
X0142972Y0273312D01*
X0141171Y0274013D02*
X0141171Y0270510D01*
X0140470Y0269809D01*
X0139069Y0269809D01*
X0138369Y0270510D01*
X0138369Y0274013D01*
X0142972Y0269809D02*
X0145775Y0272612D01*
X0145775Y0273312D01*
X0145775Y0269809D02*
X0142972Y0269809D01*
X0214400Y0286150D02*
X0214400Y0290354D01*
X0216502Y0290354D01*
X0217202Y0289653D01*
X0217202Y0288252D01*
X0216502Y0287551D01*
X0214400Y0287551D01*
X0215801Y0287551D02*
X0217202Y0286150D01*
X0219004Y0286150D02*
X0221806Y0286150D01*
X0220405Y0286150D02*
X0220405Y0290354D01*
X0219004Y0288952D01*
X0223608Y0288952D02*
X0223608Y0289653D01*
X0224308Y0290354D01*
X0225710Y0290354D01*
X0226410Y0289653D01*
X0226410Y0288952D01*
X0225710Y0288252D01*
X0224308Y0288252D01*
X0223608Y0288952D01*
X0224308Y0288252D02*
X0223608Y0287551D01*
X0223608Y0286851D01*
X0224308Y0286150D01*
X0225710Y0286150D01*
X0226410Y0286851D01*
X0226410Y0287551D01*
X0225710Y0288252D01*
X0225766Y0280812D02*
X0225766Y0277309D01*
X0226467Y0276609D01*
X0227868Y0276609D01*
X0228569Y0277309D01*
X0228569Y0280812D01*
X0230370Y0278710D02*
X0232472Y0278710D01*
X0233172Y0278010D01*
X0233172Y0277309D01*
X0232472Y0276609D01*
X0231071Y0276609D01*
X0230370Y0277309D01*
X0230370Y0278710D01*
X0231771Y0280112D01*
X0233172Y0280812D01*
X0219009Y0276354D02*
X0219009Y0272150D01*
X0217608Y0272150D02*
X0220410Y0272150D01*
X0217608Y0274952D02*
X0219009Y0276354D01*
X0239766Y0246312D02*
X0239766Y0242809D01*
X0240467Y0242109D01*
X0241868Y0242109D01*
X0242569Y0242809D01*
X0242569Y0246312D01*
X0244370Y0246312D02*
X0247172Y0246312D01*
X0247172Y0245612D01*
X0244370Y0242809D01*
X0244370Y0242109D01*
X0243905Y0228104D02*
X0243905Y0223900D01*
X0242504Y0223900D02*
X0245306Y0223900D01*
X0242504Y0226702D02*
X0243905Y0228104D01*
X0240702Y0227403D02*
X0240702Y0224601D01*
X0240002Y0223900D01*
X0238601Y0223900D01*
X0237900Y0224601D01*
X0237900Y0227403D01*
X0238601Y0228104D01*
X0240002Y0228104D01*
X0240702Y0227403D01*
X0239301Y0225301D02*
X0240702Y0223900D01*
X0226410Y0226851D02*
X0225710Y0226150D01*
X0224308Y0226150D01*
X0223608Y0226851D01*
X0226410Y0229653D01*
X0226410Y0226851D01*
X0226410Y0229653D02*
X0225710Y0230354D01*
X0224308Y0230354D01*
X0223608Y0229653D01*
X0223608Y0226851D01*
X0221806Y0226150D02*
X0219004Y0226150D01*
X0220405Y0226150D02*
X0220405Y0230354D01*
X0219004Y0228952D01*
X0217202Y0229653D02*
X0216502Y0230354D01*
X0215101Y0230354D01*
X0214400Y0229653D01*
X0214400Y0226851D01*
X0215101Y0226150D01*
X0216502Y0226150D01*
X0217202Y0226851D01*
X0229393Y0193854D02*
X0228692Y0193153D01*
X0228692Y0190351D01*
X0229393Y0189650D01*
X0230794Y0189650D01*
X0231495Y0190351D01*
X0233296Y0190351D02*
X0233997Y0189650D01*
X0235398Y0189650D01*
X0236098Y0190351D01*
X0236098Y0191051D01*
X0235398Y0191752D01*
X0234697Y0191752D01*
X0235398Y0191752D02*
X0236098Y0192452D01*
X0236098Y0193153D01*
X0235398Y0193854D01*
X0233997Y0193854D01*
X0233296Y0193153D01*
X0231495Y0193153D02*
X0230794Y0193854D01*
X0229393Y0193854D01*
X0219706Y0177504D02*
X0220406Y0176803D01*
X0220406Y0176102D01*
X0219706Y0175402D01*
X0220406Y0174701D01*
X0220406Y0174001D01*
X0219706Y0173300D01*
X0218305Y0173300D01*
X0217604Y0174001D01*
X0215802Y0174001D02*
X0215802Y0176803D01*
X0215102Y0177504D01*
X0213000Y0177504D01*
X0213000Y0173300D01*
X0215102Y0173300D01*
X0215802Y0174001D01*
X0217604Y0176803D02*
X0218305Y0177504D01*
X0219706Y0177504D01*
X0219706Y0175402D02*
X0219005Y0175402D01*
X0235692Y0167854D02*
X0235692Y0163650D01*
X0235692Y0165051D02*
X0237794Y0165051D01*
X0238495Y0165752D01*
X0238495Y0167153D01*
X0237794Y0167854D01*
X0235692Y0167854D01*
X0237093Y0165051D02*
X0238495Y0163650D01*
X0240296Y0163650D02*
X0243098Y0163650D01*
X0241697Y0163650D02*
X0241697Y0167854D01*
X0240296Y0166452D01*
X0240997Y0159604D02*
X0240296Y0158903D01*
X0240997Y0159604D02*
X0242398Y0159604D01*
X0243098Y0158903D01*
X0243098Y0158202D01*
X0240296Y0155400D01*
X0243098Y0155400D01*
X0238495Y0156101D02*
X0237794Y0155400D01*
X0236393Y0155400D01*
X0235692Y0156101D01*
X0235692Y0158903D01*
X0236393Y0159604D01*
X0237794Y0159604D01*
X0238495Y0158903D01*
X0250858Y0151858D02*
X0250858Y0172087D01*
X0256913Y0178142D01*
X0260457Y0178142D01*
X0267543Y0178142D02*
X0271087Y0178142D01*
X0277142Y0172087D01*
X0277142Y0151858D01*
X0267543Y0151858D01*
X0260457Y0151858D02*
X0250858Y0151858D01*
X0281393Y0191650D02*
X0282794Y0191650D01*
X0283495Y0192351D01*
X0281393Y0191650D02*
X0280692Y0192351D01*
X0280692Y0195153D01*
X0281393Y0195854D01*
X0282794Y0195854D01*
X0283495Y0195153D01*
X0285296Y0193752D02*
X0288098Y0193752D01*
X0287398Y0191650D02*
X0287398Y0195854D01*
X0285296Y0193752D01*
X0264806Y0206900D02*
X0262004Y0206900D01*
X0263405Y0206900D02*
X0263405Y0211104D01*
X0262004Y0209702D01*
X0260202Y0211104D02*
X0260202Y0207601D01*
X0259502Y0206900D01*
X0258101Y0206900D01*
X0257400Y0207601D01*
X0257400Y0211104D01*
X0261400Y0228400D02*
X0264202Y0228400D01*
X0266004Y0228400D02*
X0268806Y0228400D01*
X0270608Y0228400D02*
X0272710Y0228400D01*
X0273410Y0229101D01*
X0273410Y0231903D01*
X0272710Y0232604D01*
X0270608Y0232604D01*
X0270608Y0228400D01*
X0267405Y0230502D02*
X0266004Y0230502D01*
X0266004Y0232604D02*
X0266004Y0228400D01*
X0261400Y0228400D02*
X0261400Y0232604D01*
X0266004Y0232604D02*
X0268806Y0232604D01*
X0270400Y0235650D02*
X0270400Y0239854D01*
X0272502Y0239854D01*
X0273202Y0239153D01*
X0273202Y0237752D01*
X0272502Y0237051D01*
X0270400Y0237051D01*
X0271801Y0237051D02*
X0273202Y0235650D01*
X0275004Y0236351D02*
X0275705Y0235650D01*
X0277106Y0235650D01*
X0277806Y0236351D01*
X0277806Y0237752D01*
X0277106Y0238452D01*
X0276405Y0238452D01*
X0275004Y0237752D01*
X0275004Y0239854D01*
X0277806Y0239854D01*
X0278014Y0242400D02*
X0275212Y0242400D01*
X0278014Y0245202D01*
X0278014Y0245903D01*
X0277314Y0246604D01*
X0275912Y0246604D01*
X0275212Y0245903D01*
X0273410Y0245903D02*
X0272710Y0246604D01*
X0270608Y0246604D01*
X0270608Y0242400D01*
X0272710Y0242400D01*
X0273410Y0243101D01*
X0273410Y0245903D01*
X0268806Y0246604D02*
X0266004Y0246604D01*
X0266004Y0242400D01*
X0268806Y0242400D01*
X0267405Y0244502D02*
X0266004Y0244502D01*
X0264202Y0242400D02*
X0261400Y0242400D01*
X0261400Y0246604D01*
X0259702Y0249150D02*
X0258301Y0250551D01*
X0259002Y0250551D02*
X0256900Y0250551D01*
X0256900Y0249150D02*
X0256900Y0253354D01*
X0259002Y0253354D01*
X0259702Y0252653D01*
X0259702Y0251252D01*
X0259002Y0250551D01*
X0261504Y0251252D02*
X0263606Y0253354D01*
X0263606Y0249150D01*
X0264306Y0251252D02*
X0261504Y0251252D01*
X0260400Y0256400D02*
X0263202Y0256400D01*
X0265004Y0256400D02*
X0267806Y0256400D01*
X0269608Y0256400D02*
X0271710Y0256400D01*
X0272410Y0257101D01*
X0272410Y0259903D01*
X0271710Y0260604D01*
X0269608Y0260604D01*
X0269608Y0256400D01*
X0266405Y0258502D02*
X0265004Y0258502D01*
X0265004Y0260604D02*
X0265004Y0256400D01*
X0265004Y0260604D02*
X0267806Y0260604D01*
X0274212Y0259202D02*
X0275613Y0260604D01*
X0275613Y0256400D01*
X0274212Y0256400D02*
X0277014Y0256400D01*
X0287900Y0267150D02*
X0287900Y0271354D01*
X0290002Y0271354D01*
X0290702Y0270653D01*
X0290702Y0269252D01*
X0290002Y0268551D01*
X0287900Y0268551D01*
X0289301Y0268551D02*
X0290702Y0267150D01*
X0292504Y0267150D02*
X0295306Y0269952D01*
X0295306Y0270653D01*
X0294606Y0271354D01*
X0293205Y0271354D01*
X0292504Y0270653D01*
X0292504Y0267150D02*
X0295306Y0267150D01*
X0277314Y0232604D02*
X0275912Y0232604D01*
X0275212Y0231903D01*
X0276613Y0230502D02*
X0277314Y0230502D01*
X0278014Y0229801D01*
X0278014Y0229101D01*
X0277314Y0228400D01*
X0275912Y0228400D01*
X0275212Y0229101D01*
X0277314Y0230502D02*
X0278014Y0231202D01*
X0278014Y0231903D01*
X0277314Y0232604D01*
X0260400Y0256400D02*
X0260400Y0260604D01*
X0257898Y0282650D02*
X0256497Y0282650D01*
X0255796Y0283351D01*
X0255796Y0284051D01*
X0256497Y0284752D01*
X0257898Y0284752D01*
X0258598Y0284051D01*
X0258598Y0283351D01*
X0257898Y0282650D01*
X0257898Y0284752D02*
X0258598Y0285452D01*
X0258598Y0286153D01*
X0257898Y0286854D01*
X0256497Y0286854D01*
X0255796Y0286153D01*
X0255796Y0285452D01*
X0256497Y0284752D01*
X0253995Y0286153D02*
X0253294Y0286854D01*
X0251893Y0286854D01*
X0251192Y0286153D01*
X0251192Y0283351D01*
X0251893Y0282650D01*
X0253294Y0282650D01*
X0253995Y0283351D01*
X0190106Y0160604D02*
X0188705Y0160604D01*
X0188004Y0159903D01*
X0186202Y0160604D02*
X0184801Y0160604D01*
X0185502Y0160604D02*
X0185502Y0157101D01*
X0184801Y0156400D01*
X0184101Y0156400D01*
X0183400Y0157101D01*
X0188004Y0156400D02*
X0190806Y0159202D01*
X0190806Y0159903D01*
X0190106Y0160604D01*
X0190806Y0156400D02*
X0188004Y0156400D01*
X0130806Y0155400D02*
X0128004Y0155400D01*
X0129405Y0155400D02*
X0129405Y0159604D01*
X0128004Y0158202D01*
X0126202Y0159604D02*
X0124801Y0159604D01*
X0125502Y0159604D02*
X0125502Y0156101D01*
X0124801Y0155400D01*
X0124101Y0155400D01*
X0123400Y0156101D01*
D14*
X0177193Y0257893D02*
X0177193Y0269507D01*
X0188807Y0269507D01*
X0188807Y0257893D01*
X0177193Y0257893D01*
X0260800Y0061665D02*
X0260800Y0058596D01*
X0260800Y0060131D02*
X0256196Y0060131D01*
X0257731Y0058596D01*
X0256963Y0057061D02*
X0256196Y0056294D01*
X0256196Y0054759D01*
X0256963Y0053992D01*
X0257731Y0053992D01*
X0258498Y0054759D01*
X0258498Y0056294D01*
X0259265Y0057061D01*
X0260033Y0057061D01*
X0260800Y0056294D01*
X0260800Y0054759D01*
X0260033Y0053992D01*
D15*
X0261350Y0178503D02*
X0261486Y0177796D01*
X0261185Y0177733D01*
X0260885Y0177663D01*
X0260587Y0177586D01*
X0260292Y0177501D01*
X0259998Y0177410D01*
X0259706Y0177311D01*
X0259418Y0177205D01*
X0259131Y0177092D01*
X0258848Y0176972D01*
X0258568Y0176845D01*
X0258290Y0176712D01*
X0258017Y0176571D01*
X0257746Y0176425D01*
X0257479Y0176271D01*
X0257216Y0176111D01*
X0256957Y0175945D01*
X0256703Y0175773D01*
X0256452Y0175594D01*
X0256206Y0175410D01*
X0255964Y0175219D01*
X0255727Y0175023D01*
X0255495Y0174821D01*
X0255268Y0174613D01*
X0255046Y0174400D01*
X0254830Y0174182D01*
X0254618Y0173958D01*
X0254412Y0173729D01*
X0254212Y0173496D01*
X0254018Y0173257D01*
X0253829Y0173014D01*
X0253647Y0172766D01*
X0253470Y0172514D01*
X0253300Y0172258D01*
X0253136Y0171998D01*
X0252978Y0171734D01*
X0252827Y0171466D01*
X0252682Y0171194D01*
X0252544Y0170919D01*
X0252413Y0170641D01*
X0252288Y0170360D01*
X0252171Y0170075D01*
X0252060Y0169788D01*
X0251956Y0169498D01*
X0251860Y0169206D01*
X0251770Y0168912D01*
X0251688Y0168615D01*
X0251613Y0168317D01*
X0251545Y0168017D01*
X0251485Y0167715D01*
X0251432Y0167412D01*
X0251386Y0167108D01*
X0251348Y0166803D01*
X0251317Y0166496D01*
X0251294Y0166190D01*
X0251278Y0165882D01*
X0251269Y0165575D01*
X0251269Y0165267D01*
X0251275Y0164959D01*
X0251289Y0164652D01*
X0251311Y0164345D01*
X0251340Y0164039D01*
X0251376Y0163733D01*
X0251420Y0163429D01*
X0251471Y0163125D01*
X0251530Y0162823D01*
X0251596Y0162523D01*
X0251669Y0162224D01*
X0251749Y0161927D01*
X0251837Y0161632D01*
X0251932Y0161339D01*
X0252034Y0161049D01*
X0252143Y0160761D01*
X0252259Y0160476D01*
X0252381Y0160194D01*
X0252511Y0159915D01*
X0252647Y0159639D01*
X0252790Y0159367D01*
X0252940Y0159098D01*
X0253096Y0158833D01*
X0253259Y0158571D01*
X0253428Y0158314D01*
X0253603Y0158061D01*
X0253784Y0157812D01*
X0253971Y0157568D01*
X0254164Y0157329D01*
X0254363Y0157094D01*
X0254567Y0156864D01*
X0254777Y0156639D01*
X0254992Y0156419D01*
X0255213Y0156205D01*
X0255439Y0155996D01*
X0255670Y0155792D01*
X0255906Y0155595D01*
X0256146Y0155403D01*
X0256391Y0155217D01*
X0256641Y0155036D01*
X0256894Y0154863D01*
X0257152Y0154695D01*
X0257414Y0154533D01*
X0257680Y0154379D01*
X0257950Y0154230D01*
X0258223Y0154088D01*
X0258499Y0153953D01*
X0258779Y0153825D01*
X0259061Y0153703D01*
X0259347Y0153588D01*
X0259635Y0153481D01*
X0259926Y0153380D01*
X0260219Y0153287D01*
X0260514Y0153200D01*
X0260323Y0152507D01*
X0260323Y0152506D01*
X0260011Y0152597D01*
X0259701Y0152696D01*
X0259393Y0152803D01*
X0259089Y0152916D01*
X0258787Y0153037D01*
X0258488Y0153166D01*
X0258193Y0153302D01*
X0257900Y0153444D01*
X0257612Y0153594D01*
X0257327Y0153751D01*
X0257046Y0153915D01*
X0256769Y0154086D01*
X0256496Y0154263D01*
X0256228Y0154447D01*
X0255964Y0154637D01*
X0255705Y0154833D01*
X0255451Y0155036D01*
X0255202Y0155245D01*
X0254958Y0155460D01*
X0254719Y0155681D01*
X0254485Y0155908D01*
X0254258Y0156140D01*
X0254036Y0156378D01*
X0253820Y0156621D01*
X0253609Y0156869D01*
X0253405Y0157122D01*
X0253208Y0157381D01*
X0253016Y0157643D01*
X0252831Y0157911D01*
X0252653Y0158183D01*
X0252481Y0158459D01*
X0252316Y0158739D01*
X0252157Y0159023D01*
X0252006Y0159311D01*
X0251862Y0159603D01*
X0251725Y0159898D01*
X0251595Y0160196D01*
X0251473Y0160497D01*
X0251358Y0160802D01*
X0251250Y0161108D01*
X0251150Y0161418D01*
X0251057Y0161730D01*
X0250972Y0162044D01*
X0250894Y0162359D01*
X0250825Y0162677D01*
X0250763Y0162996D01*
X0250709Y0163317D01*
X0250662Y0163639D01*
X0250624Y0163962D01*
X0250593Y0164286D01*
X0250570Y0164610D01*
X0250556Y0164935D01*
X0250549Y0165260D01*
X0250550Y0165586D01*
X0250558Y0165911D01*
X0250575Y0166236D01*
X0250600Y0166560D01*
X0250632Y0166883D01*
X0250673Y0167206D01*
X0250721Y0167528D01*
X0250777Y0167848D01*
X0250841Y0168167D01*
X0250913Y0168484D01*
X0250992Y0168800D01*
X0251079Y0169113D01*
X0251173Y0169424D01*
X0251276Y0169733D01*
X0251385Y0170039D01*
X0251502Y0170343D01*
X0251626Y0170643D01*
X0251758Y0170941D01*
X0251897Y0171235D01*
X0252043Y0171526D01*
X0252196Y0171813D01*
X0252356Y0172096D01*
X0252522Y0172375D01*
X0252696Y0172650D01*
X0252876Y0172921D01*
X0253063Y0173188D01*
X0253256Y0173449D01*
X0253455Y0173706D01*
X0253661Y0173958D01*
X0253872Y0174205D01*
X0254090Y0174447D01*
X0254313Y0174683D01*
X0254542Y0174914D01*
X0254777Y0175139D01*
X0255017Y0175359D01*
X0255262Y0175573D01*
X0255513Y0175780D01*
X0255768Y0175981D01*
X0256028Y0176176D01*
X0256293Y0176365D01*
X0256563Y0176547D01*
X0256836Y0176723D01*
X0257114Y0176892D01*
X0257396Y0177054D01*
X0257682Y0177209D01*
X0257972Y0177357D01*
X0258265Y0177498D01*
X0258561Y0177632D01*
X0258861Y0177759D01*
X0259163Y0177878D01*
X0259469Y0177990D01*
X0259777Y0178095D01*
X0260087Y0178192D01*
X0260400Y0178281D01*
X0260715Y0178363D01*
X0261031Y0178437D01*
X0261350Y0178503D01*
X0261364Y0178430D01*
X0261047Y0178364D01*
X0260732Y0178290D01*
X0260419Y0178209D01*
X0260108Y0178120D01*
X0259800Y0178023D01*
X0259493Y0177919D01*
X0259190Y0177808D01*
X0258889Y0177689D01*
X0258591Y0177564D01*
X0258296Y0177430D01*
X0258005Y0177290D01*
X0257717Y0177143D01*
X0257433Y0176988D01*
X0257152Y0176827D01*
X0256876Y0176659D01*
X0256604Y0176485D01*
X0256336Y0176304D01*
X0256072Y0176116D01*
X0255814Y0175922D01*
X0255560Y0175722D01*
X0255311Y0175515D01*
X0255067Y0175303D01*
X0254828Y0175085D01*
X0254595Y0174861D01*
X0254367Y0174631D01*
X0254145Y0174396D01*
X0253928Y0174156D01*
X0253718Y0173910D01*
X0253514Y0173659D01*
X0253315Y0173404D01*
X0253123Y0173144D01*
X0252938Y0172879D01*
X0252759Y0172610D01*
X0252586Y0172336D01*
X0252420Y0172058D01*
X0252261Y0171777D01*
X0252109Y0171491D01*
X0251964Y0171202D01*
X0251826Y0170910D01*
X0251695Y0170614D01*
X0251572Y0170315D01*
X0251455Y0170013D01*
X0251346Y0169709D01*
X0251245Y0169402D01*
X0251151Y0169092D01*
X0251064Y0168781D01*
X0250986Y0168467D01*
X0250914Y0168151D01*
X0250851Y0167834D01*
X0250795Y0167516D01*
X0250747Y0167196D01*
X0250707Y0166875D01*
X0250675Y0166553D01*
X0250650Y0166231D01*
X0250633Y0165908D01*
X0250625Y0165584D01*
X0250624Y0165261D01*
X0250630Y0164938D01*
X0250645Y0164615D01*
X0250668Y0164292D01*
X0250698Y0163970D01*
X0250737Y0163649D01*
X0250783Y0163329D01*
X0250837Y0163010D01*
X0250898Y0162692D01*
X0250967Y0162376D01*
X0251044Y0162062D01*
X0251129Y0161750D01*
X0251221Y0161440D01*
X0251321Y0161132D01*
X0251428Y0160827D01*
X0251542Y0160525D01*
X0251664Y0160225D01*
X0251793Y0159929D01*
X0251930Y0159635D01*
X0252073Y0159346D01*
X0252223Y0159059D01*
X0252381Y0158777D01*
X0252545Y0158498D01*
X0252716Y0158223D01*
X0252893Y0157953D01*
X0253077Y0157687D01*
X0253268Y0157426D01*
X0253464Y0157169D01*
X0253667Y0156917D01*
X0253876Y0156670D01*
X0254091Y0156429D01*
X0254312Y0156192D01*
X0254538Y0155961D01*
X0254770Y0155736D01*
X0255008Y0155516D01*
X0255250Y0155302D01*
X0255498Y0155095D01*
X0255751Y0154893D01*
X0256008Y0154697D01*
X0256271Y0154508D01*
X0256538Y0154325D01*
X0256809Y0154149D01*
X0257084Y0153979D01*
X0257364Y0153817D01*
X0257647Y0153661D01*
X0257934Y0153511D01*
X0258224Y0153369D01*
X0258518Y0153235D01*
X0258816Y0153107D01*
X0259116Y0152986D01*
X0259419Y0152873D01*
X0259724Y0152767D01*
X0260032Y0152669D01*
X0260343Y0152578D01*
X0260363Y0152651D01*
X0260054Y0152741D01*
X0259748Y0152839D01*
X0259444Y0152944D01*
X0259143Y0153056D01*
X0258844Y0153176D01*
X0258549Y0153303D01*
X0258256Y0153437D01*
X0257967Y0153579D01*
X0257682Y0153727D01*
X0257400Y0153882D01*
X0257123Y0154044D01*
X0256849Y0154212D01*
X0256579Y0154388D01*
X0256314Y0154569D01*
X0256053Y0154758D01*
X0255797Y0154952D01*
X0255545Y0155153D01*
X0255299Y0155359D01*
X0255058Y0155572D01*
X0254822Y0155790D01*
X0254591Y0156014D01*
X0254366Y0156244D01*
X0254146Y0156479D01*
X0253933Y0156719D01*
X0253725Y0156965D01*
X0253523Y0157215D01*
X0253328Y0157471D01*
X0253138Y0157730D01*
X0252955Y0157995D01*
X0252779Y0158264D01*
X0252609Y0158537D01*
X0252446Y0158814D01*
X0252289Y0159095D01*
X0252140Y0159380D01*
X0251997Y0159668D01*
X0251862Y0159960D01*
X0251733Y0160254D01*
X0251612Y0160552D01*
X0251498Y0160853D01*
X0251392Y0161157D01*
X0251293Y0161462D01*
X0251201Y0161771D01*
X0251117Y0162081D01*
X0251040Y0162393D01*
X0250972Y0162708D01*
X0250910Y0163023D01*
X0250857Y0163340D01*
X0250811Y0163659D01*
X0250773Y0163978D01*
X0250743Y0164298D01*
X0250720Y0164619D01*
X0250705Y0164940D01*
X0250699Y0165262D01*
X0250700Y0165583D01*
X0250708Y0165905D01*
X0250725Y0166226D01*
X0250749Y0166547D01*
X0250782Y0166867D01*
X0250821Y0167186D01*
X0250869Y0167504D01*
X0250925Y0167820D01*
X0250988Y0168136D01*
X0251059Y0168449D01*
X0251137Y0168761D01*
X0251223Y0169071D01*
X0251316Y0169379D01*
X0251417Y0169684D01*
X0251526Y0169987D01*
X0251641Y0170287D01*
X0251764Y0170584D01*
X0251894Y0170878D01*
X0252032Y0171169D01*
X0252176Y0171457D01*
X0252327Y0171740D01*
X0252485Y0172021D01*
X0252650Y0172297D01*
X0252822Y0172569D01*
X0253000Y0172836D01*
X0253184Y0173100D01*
X0253375Y0173359D01*
X0253572Y0173613D01*
X0253776Y0173862D01*
X0253985Y0174106D01*
X0254200Y0174345D01*
X0254421Y0174579D01*
X0254647Y0174807D01*
X0254879Y0175030D01*
X0255117Y0175247D01*
X0255359Y0175458D01*
X0255607Y0175663D01*
X0255859Y0175862D01*
X0256117Y0176055D01*
X0256379Y0176242D01*
X0256645Y0176422D01*
X0256916Y0176596D01*
X0257190Y0176763D01*
X0257469Y0176923D01*
X0257752Y0177076D01*
X0258038Y0177223D01*
X0258328Y0177362D01*
X0258621Y0177495D01*
X0258917Y0177620D01*
X0259216Y0177738D01*
X0259518Y0177849D01*
X0259823Y0177952D01*
X0260130Y0178048D01*
X0260439Y0178136D01*
X0260750Y0178217D01*
X0261063Y0178290D01*
X0261378Y0178356D01*
X0261392Y0178282D01*
X0261079Y0178217D01*
X0260768Y0178144D01*
X0260458Y0178064D01*
X0260151Y0177976D01*
X0259846Y0177881D01*
X0259543Y0177778D01*
X0259243Y0177668D01*
X0258945Y0177550D01*
X0258651Y0177426D01*
X0258359Y0177294D01*
X0258071Y0177156D01*
X0257787Y0177010D01*
X0257506Y0176857D01*
X0257228Y0176698D01*
X0256955Y0176532D01*
X0256686Y0176359D01*
X0256421Y0176180D01*
X0256161Y0175995D01*
X0255905Y0175803D01*
X0255654Y0175605D01*
X0255408Y0175401D01*
X0255166Y0175191D01*
X0254930Y0174975D01*
X0254700Y0174754D01*
X0254475Y0174527D01*
X0254255Y0174294D01*
X0254041Y0174057D01*
X0253833Y0173814D01*
X0253631Y0173566D01*
X0253435Y0173313D01*
X0253245Y0173056D01*
X0253062Y0172794D01*
X0252884Y0172528D01*
X0252714Y0172257D01*
X0252550Y0171983D01*
X0252393Y0171704D01*
X0252243Y0171422D01*
X0252099Y0171136D01*
X0251963Y0170847D01*
X0251833Y0170555D01*
X0251711Y0170259D01*
X0251596Y0169961D01*
X0251488Y0169660D01*
X0251388Y0169356D01*
X0251295Y0169050D01*
X0251209Y0168742D01*
X0251132Y0168432D01*
X0251061Y0168120D01*
X0250998Y0167807D01*
X0250943Y0167492D01*
X0250896Y0167175D01*
X0250856Y0166858D01*
X0250824Y0166540D01*
X0250800Y0166221D01*
X0250783Y0165902D01*
X0250775Y0165582D01*
X0250774Y0165262D01*
X0250780Y0164943D01*
X0250795Y0164623D01*
X0250817Y0164304D01*
X0250847Y0163986D01*
X0250885Y0163668D01*
X0250931Y0163352D01*
X0250984Y0163037D01*
X0251045Y0162723D01*
X0251114Y0162410D01*
X0251190Y0162100D01*
X0251273Y0161791D01*
X0251364Y0161485D01*
X0251463Y0161181D01*
X0251569Y0160879D01*
X0251682Y0160580D01*
X0251803Y0160284D01*
X0251930Y0159990D01*
X0252065Y0159700D01*
X0252207Y0159414D01*
X0252355Y0159131D01*
X0252511Y0158851D01*
X0252673Y0158576D01*
X0252842Y0158304D01*
X0253017Y0158037D01*
X0253199Y0157774D01*
X0253388Y0157516D01*
X0253582Y0157262D01*
X0253783Y0157013D01*
X0253989Y0156769D01*
X0254202Y0156530D01*
X0254420Y0156296D01*
X0254644Y0156068D01*
X0254873Y0155845D01*
X0255108Y0155628D01*
X0255348Y0155416D01*
X0255593Y0155211D01*
X0255843Y0155011D01*
X0256097Y0154818D01*
X0256357Y0154631D01*
X0256621Y0154450D01*
X0256889Y0154276D01*
X0257161Y0154108D01*
X0257437Y0153947D01*
X0257717Y0153793D01*
X0258001Y0153646D01*
X0258288Y0153505D01*
X0258579Y0153372D01*
X0258873Y0153245D01*
X0259169Y0153126D01*
X0259469Y0153014D01*
X0259771Y0152910D01*
X0260076Y0152813D01*
X0260383Y0152723D01*
X0260403Y0152795D01*
X0260098Y0152885D01*
X0259795Y0152981D01*
X0259494Y0153085D01*
X0259196Y0153196D01*
X0258901Y0153315D01*
X0258609Y0153440D01*
X0258320Y0153573D01*
X0258035Y0153713D01*
X0257752Y0153859D01*
X0257474Y0154013D01*
X0257199Y0154173D01*
X0256929Y0154339D01*
X0256662Y0154513D01*
X0256400Y0154692D01*
X0256142Y0154878D01*
X0255889Y0155071D01*
X0255640Y0155269D01*
X0255397Y0155473D01*
X0255158Y0155683D01*
X0254925Y0155899D01*
X0254697Y0156121D01*
X0254474Y0156348D01*
X0254257Y0156580D01*
X0254046Y0156818D01*
X0253840Y0157061D01*
X0253641Y0157308D01*
X0253448Y0157561D01*
X0253260Y0157818D01*
X0253080Y0158079D01*
X0252905Y0158345D01*
X0252737Y0158615D01*
X0252576Y0158889D01*
X0252421Y0159166D01*
X0252273Y0159448D01*
X0252132Y0159733D01*
X0251999Y0160021D01*
X0251872Y0160313D01*
X0251752Y0160607D01*
X0251639Y0160905D01*
X0251534Y0161205D01*
X0251436Y0161507D01*
X0251345Y0161812D01*
X0251262Y0162119D01*
X0251187Y0162427D01*
X0251118Y0162738D01*
X0251058Y0163050D01*
X0251005Y0163364D01*
X0250960Y0163678D01*
X0250922Y0163994D01*
X0250892Y0164311D01*
X0250870Y0164628D01*
X0250855Y0164945D01*
X0250849Y0165263D01*
X0250850Y0165581D01*
X0250858Y0165899D01*
X0250875Y0166216D01*
X0250899Y0166533D01*
X0250931Y0166850D01*
X0250970Y0167165D01*
X0251017Y0167480D01*
X0251072Y0167793D01*
X0251135Y0168104D01*
X0251204Y0168415D01*
X0251282Y0168723D01*
X0251367Y0169029D01*
X0251459Y0169334D01*
X0251559Y0169635D01*
X0251666Y0169935D01*
X0251781Y0170231D01*
X0251902Y0170525D01*
X0252031Y0170816D01*
X0252166Y0171103D01*
X0252309Y0171388D01*
X0252459Y0171668D01*
X0252615Y0171945D01*
X0252778Y0172218D01*
X0252947Y0172487D01*
X0253123Y0172752D01*
X0253306Y0173012D01*
X0253495Y0173268D01*
X0253689Y0173519D01*
X0253890Y0173766D01*
X0254097Y0174007D01*
X0254310Y0174243D01*
X0254528Y0174474D01*
X0254752Y0174700D01*
X0254982Y0174920D01*
X0255216Y0175135D01*
X0255456Y0175343D01*
X0255701Y0175546D01*
X0255951Y0175743D01*
X0256205Y0175934D01*
X0256464Y0176118D01*
X0256727Y0176297D01*
X0256995Y0176468D01*
X0257266Y0176633D01*
X0257542Y0176792D01*
X0257822Y0176943D01*
X0258105Y0177088D01*
X0258391Y0177226D01*
X0258681Y0177357D01*
X0258974Y0177481D01*
X0259269Y0177598D01*
X0259568Y0177707D01*
X0259869Y0177809D01*
X0260172Y0177904D01*
X0260478Y0177991D01*
X0260786Y0178071D01*
X0261095Y0178144D01*
X0261407Y0178209D01*
X0261421Y0178135D01*
X0261111Y0178070D01*
X0260803Y0177998D01*
X0260498Y0177919D01*
X0260194Y0177832D01*
X0259892Y0177738D01*
X0259593Y0177636D01*
X0259296Y0177527D01*
X0259002Y0177411D01*
X0258711Y0177288D01*
X0258423Y0177158D01*
X0258138Y0177021D01*
X0257856Y0176877D01*
X0257579Y0176726D01*
X0257305Y0176569D01*
X0257034Y0176404D01*
X0256768Y0176234D01*
X0256506Y0176057D01*
X0256249Y0175873D01*
X0255996Y0175684D01*
X0255748Y0175488D01*
X0255505Y0175286D01*
X0255266Y0175079D01*
X0255033Y0174865D01*
X0254805Y0174646D01*
X0254582Y0174422D01*
X0254365Y0174192D01*
X0254154Y0173957D01*
X0253948Y0173717D01*
X0253748Y0173472D01*
X0253554Y0173223D01*
X0253367Y0172968D01*
X0253185Y0172709D01*
X0253010Y0172446D01*
X0252842Y0172179D01*
X0252680Y0171907D01*
X0252524Y0171632D01*
X0252376Y0171353D01*
X0252234Y0171071D01*
X0252099Y0170785D01*
X0251971Y0170496D01*
X0251850Y0170204D01*
X0251737Y0169909D01*
X0251630Y0169611D01*
X0251531Y0169311D01*
X0251439Y0169008D01*
X0251354Y0168704D01*
X0251277Y0168397D01*
X0251208Y0168089D01*
X0251146Y0167779D01*
X0251091Y0167468D01*
X0251044Y0167155D01*
X0251005Y0166841D01*
X0250973Y0166527D01*
X0250949Y0166212D01*
X0250933Y0165896D01*
X0250924Y0165580D01*
X0250924Y0165264D01*
X0250930Y0164948D01*
X0250945Y0164632D01*
X0250967Y0164317D01*
X0250997Y0164002D01*
X0251034Y0163688D01*
X0251079Y0163375D01*
X0251132Y0163064D01*
X0251192Y0162753D01*
X0251260Y0162444D01*
X0251335Y0162137D01*
X0251418Y0161832D01*
X0251508Y0161529D01*
X0251605Y0161229D01*
X0251710Y0160930D01*
X0251822Y0160635D01*
X0251941Y0160342D01*
X0252067Y0160052D01*
X0252200Y0159765D01*
X0252340Y0159482D01*
X0252487Y0159202D01*
X0252641Y0158926D01*
X0252801Y0158654D01*
X0252968Y0158385D01*
X0253142Y0158121D01*
X0253322Y0157861D01*
X0253508Y0157606D01*
X0253700Y0157355D01*
X0253898Y0157108D01*
X0254102Y0156867D01*
X0254313Y0156631D01*
X0254528Y0156400D01*
X0254750Y0156174D01*
X0254976Y0155954D01*
X0255208Y0155739D01*
X0255445Y0155530D01*
X0255688Y0155327D01*
X0255935Y0155130D01*
X0256186Y0154939D01*
X0256443Y0154754D01*
X0256704Y0154575D01*
X0256969Y0154403D01*
X0257238Y0154237D01*
X0257511Y0154078D01*
X0257788Y0153925D01*
X0258068Y0153780D01*
X0258352Y0153641D01*
X0258639Y0153509D01*
X0258930Y0153384D01*
X0259223Y0153266D01*
X0259519Y0153156D01*
X0259818Y0153052D01*
X0260119Y0152956D01*
X0260423Y0152868D01*
X0260443Y0152940D01*
X0260141Y0153028D01*
X0259842Y0153124D01*
X0259545Y0153226D01*
X0259250Y0153336D01*
X0258958Y0153453D01*
X0258670Y0153578D01*
X0258384Y0153709D01*
X0258102Y0153847D01*
X0257823Y0153992D01*
X0257548Y0154143D01*
X0257276Y0154302D01*
X0257009Y0154466D01*
X0256745Y0154638D01*
X0256486Y0154815D01*
X0256231Y0154999D01*
X0255981Y0155189D01*
X0255735Y0155385D01*
X0255494Y0155587D01*
X0255258Y0155795D01*
X0255028Y0156008D01*
X0254802Y0156227D01*
X0254582Y0156452D01*
X0254368Y0156682D01*
X0254159Y0156916D01*
X0253956Y0157156D01*
X0253759Y0157401D01*
X0253568Y0157650D01*
X0253383Y0157905D01*
X0253204Y0158163D01*
X0253031Y0158426D01*
X0252865Y0158693D01*
X0252706Y0158963D01*
X0252553Y0159238D01*
X0252407Y0159516D01*
X0252268Y0159798D01*
X0252135Y0160083D01*
X0252010Y0160371D01*
X0251891Y0160662D01*
X0251780Y0160956D01*
X0251676Y0161253D01*
X0251579Y0161552D01*
X0251490Y0161853D01*
X0251407Y0162156D01*
X0251333Y0162461D01*
X0251265Y0162768D01*
X0251205Y0163077D01*
X0251153Y0163387D01*
X0251108Y0163698D01*
X0251071Y0164010D01*
X0251042Y0164323D01*
X0251020Y0164636D01*
X0251005Y0164950D01*
X0250999Y0165265D01*
X0250999Y0165579D01*
X0251008Y0165893D01*
X0251024Y0166207D01*
X0251048Y0166520D01*
X0251080Y0166833D01*
X0251119Y0167145D01*
X0251165Y0167455D01*
X0251220Y0167765D01*
X0251281Y0168073D01*
X0251350Y0168380D01*
X0251427Y0168685D01*
X0251511Y0168987D01*
X0251602Y0169288D01*
X0251701Y0169586D01*
X0251807Y0169882D01*
X0251920Y0170176D01*
X0252040Y0170466D01*
X0252167Y0170753D01*
X0252301Y0171038D01*
X0252442Y0171319D01*
X0252590Y0171596D01*
X0252745Y0171870D01*
X0252906Y0172139D01*
X0253073Y0172405D01*
X0253247Y0172667D01*
X0253428Y0172924D01*
X0253614Y0173177D01*
X0253807Y0173426D01*
X0254005Y0173669D01*
X0254210Y0173908D01*
X0254420Y0174141D01*
X0254636Y0174370D01*
X0254857Y0174593D01*
X0255084Y0174811D01*
X0255316Y0175023D01*
X0255553Y0175229D01*
X0255795Y0175430D01*
X0256042Y0175624D01*
X0256293Y0175813D01*
X0256549Y0175995D01*
X0256809Y0176171D01*
X0257074Y0176341D01*
X0257343Y0176504D01*
X0257615Y0176661D01*
X0257891Y0176811D01*
X0258171Y0176954D01*
X0258454Y0177090D01*
X0258740Y0177220D01*
X0259030Y0177342D01*
X0259322Y0177457D01*
X0259617Y0177566D01*
X0259915Y0177666D01*
X0260215Y0177760D01*
X0260517Y0177847D01*
X0260821Y0177926D01*
X0261127Y0177997D01*
X0261435Y0178061D01*
X0261449Y0177988D01*
X0261143Y0177924D01*
X0260839Y0177853D01*
X0260537Y0177774D01*
X0260236Y0177688D01*
X0259938Y0177595D01*
X0259642Y0177495D01*
X0259349Y0177387D01*
X0259058Y0177272D01*
X0258770Y0177151D01*
X0258486Y0177022D01*
X0258204Y0176887D01*
X0257926Y0176744D01*
X0257651Y0176595D01*
X0257381Y0176439D01*
X0257114Y0176277D01*
X0256851Y0176108D01*
X0256592Y0175933D01*
X0256337Y0175752D01*
X0256087Y0175565D01*
X0255842Y0175371D01*
X0255601Y0175172D01*
X0255366Y0174967D01*
X0255135Y0174756D01*
X0254910Y0174539D01*
X0254690Y0174318D01*
X0254475Y0174090D01*
X0254266Y0173858D01*
X0254063Y0173621D01*
X0253865Y0173379D01*
X0253674Y0173132D01*
X0253488Y0172881D01*
X0253309Y0172625D01*
X0253136Y0172364D01*
X0252969Y0172100D01*
X0252809Y0171832D01*
X0252656Y0171560D01*
X0252509Y0171284D01*
X0252369Y0171005D01*
X0252235Y0170722D01*
X0252109Y0170436D01*
X0251989Y0170148D01*
X0251877Y0169856D01*
X0251772Y0169562D01*
X0251674Y0169265D01*
X0251583Y0168966D01*
X0251499Y0168665D01*
X0251423Y0168362D01*
X0251355Y0168058D01*
X0251293Y0167751D01*
X0251239Y0167443D01*
X0251193Y0167134D01*
X0251154Y0166824D01*
X0251123Y0166514D01*
X0251099Y0166202D01*
X0251083Y0165890D01*
X0251074Y0165578D01*
X0251074Y0165265D01*
X0251080Y0164953D01*
X0251094Y0164641D01*
X0251116Y0164329D01*
X0251146Y0164018D01*
X0251183Y0163708D01*
X0251227Y0163398D01*
X0251279Y0163090D01*
X0251339Y0162784D01*
X0251406Y0162478D01*
X0251480Y0162175D01*
X0251562Y0161873D01*
X0251651Y0161574D01*
X0251747Y0161277D01*
X0251851Y0160982D01*
X0251961Y0160690D01*
X0252079Y0160400D01*
X0252204Y0160114D01*
X0252335Y0159830D01*
X0252474Y0159550D01*
X0252619Y0159274D01*
X0252771Y0159001D01*
X0252929Y0158731D01*
X0253095Y0158466D01*
X0253266Y0158205D01*
X0253444Y0157948D01*
X0253628Y0157695D01*
X0253818Y0157447D01*
X0254014Y0157204D01*
X0254216Y0156966D01*
X0254423Y0156732D01*
X0254636Y0156504D01*
X0254855Y0156281D01*
X0255079Y0156063D01*
X0255309Y0155851D01*
X0255543Y0155644D01*
X0255782Y0155443D01*
X0256027Y0155248D01*
X0256275Y0155060D01*
X0256529Y0154877D01*
X0256787Y0154700D01*
X0257048Y0154530D01*
X0257315Y0154366D01*
X0257584Y0154209D01*
X0257858Y0154058D01*
X0258135Y0153914D01*
X0258416Y0153777D01*
X0258700Y0153646D01*
X0258987Y0153523D01*
X0259277Y0153406D01*
X0259570Y0153297D01*
X0259865Y0153195D01*
X0260163Y0153100D01*
X0260463Y0153012D01*
X0260482Y0153085D01*
X0260184Y0153172D01*
X0259888Y0153266D01*
X0259595Y0153368D01*
X0259304Y0153476D01*
X0259016Y0153592D01*
X0258730Y0153715D01*
X0258448Y0153844D01*
X0258169Y0153981D01*
X0257893Y0154124D01*
X0257621Y0154274D01*
X0257353Y0154430D01*
X0257088Y0154593D01*
X0256828Y0154763D01*
X0256572Y0154938D01*
X0256320Y0155120D01*
X0256072Y0155308D01*
X0255830Y0155502D01*
X0255592Y0155701D01*
X0255359Y0155907D01*
X0255131Y0156118D01*
X0254908Y0156334D01*
X0254691Y0156556D01*
X0254479Y0156783D01*
X0254272Y0157015D01*
X0254071Y0157252D01*
X0253877Y0157494D01*
X0253688Y0157740D01*
X0253505Y0157992D01*
X0253328Y0158247D01*
X0253158Y0158507D01*
X0252994Y0158770D01*
X0252836Y0159038D01*
X0252685Y0159309D01*
X0252541Y0159584D01*
X0252403Y0159863D01*
X0252272Y0160145D01*
X0252148Y0160429D01*
X0252031Y0160717D01*
X0251921Y0161008D01*
X0251818Y0161301D01*
X0251722Y0161596D01*
X0251634Y0161894D01*
X0251553Y0162194D01*
X0251479Y0162495D01*
X0251412Y0162799D01*
X0251353Y0163104D01*
X0251301Y0163410D01*
X0251257Y0163718D01*
X0251220Y0164026D01*
X0251191Y0164335D01*
X0251169Y0164645D01*
X0251155Y0164955D01*
X0251149Y0165266D01*
X0251149Y0165577D01*
X0251158Y0165887D01*
X0251174Y0166197D01*
X0251198Y0166507D01*
X0251229Y0166816D01*
X0251267Y0167124D01*
X0251313Y0167431D01*
X0251367Y0167737D01*
X0251428Y0168042D01*
X0251496Y0168345D01*
X0251572Y0168646D01*
X0251655Y0168945D01*
X0251745Y0169243D01*
X0251843Y0169538D01*
X0251947Y0169830D01*
X0252059Y0170120D01*
X0252178Y0170407D01*
X0252304Y0170691D01*
X0252436Y0170972D01*
X0252575Y0171249D01*
X0252721Y0171524D01*
X0252874Y0171794D01*
X0253033Y0172061D01*
X0253199Y0172324D01*
X0253371Y0172582D01*
X0253549Y0172837D01*
X0253734Y0173087D01*
X0253924Y0173332D01*
X0254120Y0173573D01*
X0254322Y0173809D01*
X0254530Y0174040D01*
X0254744Y0174265D01*
X0254962Y0174486D01*
X0255186Y0174701D01*
X0255416Y0174911D01*
X0255650Y0175114D01*
X0255889Y0175313D01*
X0256133Y0175505D01*
X0256381Y0175691D01*
X0256634Y0175872D01*
X0256892Y0176046D01*
X0257153Y0176213D01*
X0257419Y0176375D01*
X0257688Y0176530D01*
X0257961Y0176678D01*
X0258237Y0176819D01*
X0258517Y0176954D01*
X0258800Y0177082D01*
X0259086Y0177203D01*
X0259375Y0177317D01*
X0259667Y0177424D01*
X0259961Y0177524D01*
X0260257Y0177616D01*
X0260556Y0177702D01*
X0260857Y0177780D01*
X0261159Y0177851D01*
X0261463Y0177914D01*
X0261477Y0177840D01*
X0261175Y0177777D01*
X0260875Y0177707D01*
X0260576Y0177629D01*
X0260279Y0177544D01*
X0259984Y0177452D01*
X0259692Y0177353D01*
X0259402Y0177247D01*
X0259114Y0177133D01*
X0258830Y0177013D01*
X0258549Y0176886D01*
X0258271Y0176752D01*
X0257996Y0176611D01*
X0257724Y0176464D01*
X0257457Y0176310D01*
X0257193Y0176150D01*
X0256933Y0175983D01*
X0256677Y0175810D01*
X0256426Y0175631D01*
X0256179Y0175445D01*
X0255936Y0175254D01*
X0255698Y0175057D01*
X0255465Y0174854D01*
X0255238Y0174646D01*
X0255015Y0174432D01*
X0254797Y0174213D01*
X0254585Y0173989D01*
X0254379Y0173759D01*
X0254178Y0173525D01*
X0253983Y0173285D01*
X0253793Y0173041D01*
X0253610Y0172793D01*
X0253433Y0172540D01*
X0253262Y0172283D01*
X0253097Y0172022D01*
X0252939Y0171756D01*
X0252787Y0171487D01*
X0252642Y0171215D01*
X0252503Y0170939D01*
X0252372Y0170660D01*
X0252247Y0170377D01*
X0252129Y0170092D01*
X0252018Y0169804D01*
X0251914Y0169513D01*
X0251817Y0169220D01*
X0251727Y0168924D01*
X0251644Y0168627D01*
X0251569Y0168327D01*
X0251501Y0168026D01*
X0251441Y0167723D01*
X0251387Y0167419D01*
X0251342Y0167114D01*
X0251303Y0166808D01*
X0251272Y0166500D01*
X0251249Y0166192D01*
X0251233Y0165884D01*
X0251224Y0165575D01*
X0251224Y0165267D01*
X0251230Y0164958D01*
X0251244Y0164649D01*
X0251266Y0164341D01*
X0251295Y0164034D01*
X0251331Y0163727D01*
X0251375Y0163422D01*
X0251427Y0163117D01*
X0251486Y0162814D01*
X0251552Y0162512D01*
X0251625Y0162213D01*
X0251706Y0161915D01*
X0251794Y0161619D01*
X0251889Y0161325D01*
X0251991Y0161033D01*
X0252101Y0160745D01*
X0252217Y0160459D01*
X0252340Y0160175D01*
X0252470Y0159895D01*
X0252607Y0159619D01*
X0252751Y0159345D01*
X0252901Y0159075D01*
X0253058Y0158809D01*
X0253221Y0158547D01*
X0253390Y0158289D01*
X0253566Y0158035D01*
X0253748Y0157785D01*
X0253936Y0157540D01*
X0254129Y0157300D01*
X0254329Y0157064D01*
X0254534Y0156833D01*
X0254745Y0156608D01*
X0254961Y0156387D01*
X0255182Y0156172D01*
X0255409Y0155962D01*
X0255641Y0155758D01*
X0255877Y0155560D01*
X0256118Y0155367D01*
X0256364Y0155180D01*
X0256615Y0155000D01*
X0256869Y0154825D01*
X0257128Y0154657D01*
X0257391Y0154495D01*
X0257658Y0154339D01*
X0257929Y0154190D01*
X0258203Y0154048D01*
X0258480Y0153912D01*
X0258761Y0153783D01*
X0259044Y0153661D01*
X0259331Y0153546D01*
X0259620Y0153438D01*
X0259912Y0153337D01*
X0260206Y0153244D01*
X0260502Y0153157D01*
X0266663Y0152502D02*
X0266499Y0153203D01*
X0266500Y0153202D02*
X0266798Y0153277D01*
X0267094Y0153359D01*
X0267389Y0153448D01*
X0267681Y0153544D01*
X0267970Y0153647D01*
X0268257Y0153757D01*
X0268542Y0153874D01*
X0268823Y0153998D01*
X0269101Y0154129D01*
X0269376Y0154267D01*
X0269648Y0154411D01*
X0269916Y0154562D01*
X0270180Y0154719D01*
X0270440Y0154883D01*
X0270696Y0155053D01*
X0270948Y0155229D01*
X0271196Y0155411D01*
X0271439Y0155599D01*
X0271677Y0155793D01*
X0271911Y0155993D01*
X0272140Y0156198D01*
X0272364Y0156409D01*
X0272582Y0156625D01*
X0272795Y0156847D01*
X0273003Y0157074D01*
X0273205Y0157305D01*
X0273402Y0157542D01*
X0273592Y0157783D01*
X0273777Y0158029D01*
X0273956Y0158279D01*
X0274129Y0158533D01*
X0274295Y0158792D01*
X0274455Y0159054D01*
X0274608Y0159321D01*
X0274755Y0159591D01*
X0274896Y0159864D01*
X0275030Y0160141D01*
X0275157Y0160421D01*
X0275277Y0160704D01*
X0275390Y0160990D01*
X0275496Y0161278D01*
X0275595Y0161569D01*
X0275687Y0161863D01*
X0275772Y0162158D01*
X0275850Y0162456D01*
X0275920Y0162755D01*
X0275983Y0163056D01*
X0276039Y0163358D01*
X0276088Y0163662D01*
X0276129Y0163967D01*
X0276162Y0164272D01*
X0276188Y0164578D01*
X0276207Y0164885D01*
X0276218Y0165193D01*
X0276222Y0165500D01*
X0276218Y0165807D01*
X0276207Y0166115D01*
X0276188Y0166422D01*
X0276162Y0166728D01*
X0276129Y0167033D01*
X0276088Y0167338D01*
X0276039Y0167642D01*
X0275983Y0167944D01*
X0275920Y0168245D01*
X0275850Y0168544D01*
X0275772Y0168842D01*
X0275687Y0169137D01*
X0275595Y0169431D01*
X0275496Y0169722D01*
X0275390Y0170010D01*
X0275277Y0170296D01*
X0275157Y0170579D01*
X0275030Y0170859D01*
X0274896Y0171136D01*
X0274755Y0171409D01*
X0274608Y0171679D01*
X0274455Y0171946D01*
X0274295Y0172208D01*
X0274129Y0172467D01*
X0273956Y0172721D01*
X0273777Y0172971D01*
X0273592Y0173217D01*
X0273402Y0173458D01*
X0273205Y0173695D01*
X0273003Y0173926D01*
X0272795Y0174153D01*
X0272582Y0174375D01*
X0272364Y0174591D01*
X0272140Y0174802D01*
X0271911Y0175007D01*
X0271677Y0175207D01*
X0271439Y0175401D01*
X0271196Y0175589D01*
X0270948Y0175771D01*
X0270696Y0175947D01*
X0270440Y0176117D01*
X0270180Y0176281D01*
X0269916Y0176438D01*
X0269648Y0176589D01*
X0269376Y0176733D01*
X0269101Y0176871D01*
X0268823Y0177002D01*
X0268542Y0177126D01*
X0268257Y0177243D01*
X0267970Y0177353D01*
X0267681Y0177456D01*
X0267389Y0177552D01*
X0267094Y0177641D01*
X0266798Y0177723D01*
X0266500Y0177798D01*
X0266663Y0178498D01*
X0266664Y0178499D01*
X0266979Y0178420D01*
X0267292Y0178334D01*
X0267603Y0178240D01*
X0267912Y0178138D01*
X0268218Y0178029D01*
X0268522Y0177913D01*
X0268822Y0177789D01*
X0269120Y0177658D01*
X0269414Y0177519D01*
X0269704Y0177374D01*
X0269991Y0177222D01*
X0270275Y0177062D01*
X0270554Y0176896D01*
X0270829Y0176723D01*
X0271100Y0176543D01*
X0271366Y0176357D01*
X0271628Y0176165D01*
X0271885Y0175966D01*
X0272137Y0175761D01*
X0272385Y0175550D01*
X0272626Y0175333D01*
X0272863Y0175110D01*
X0273094Y0174881D01*
X0273319Y0174647D01*
X0273539Y0174407D01*
X0273753Y0174163D01*
X0273960Y0173913D01*
X0274162Y0173658D01*
X0274357Y0173398D01*
X0274546Y0173133D01*
X0274729Y0172864D01*
X0274905Y0172591D01*
X0275074Y0172314D01*
X0275236Y0172032D01*
X0275392Y0171747D01*
X0275540Y0171458D01*
X0275681Y0171165D01*
X0275816Y0170869D01*
X0275943Y0170570D01*
X0276062Y0170268D01*
X0276175Y0169963D01*
X0276279Y0169655D01*
X0276377Y0169345D01*
X0276466Y0169033D01*
X0276549Y0168718D01*
X0276623Y0168402D01*
X0276690Y0168084D01*
X0276749Y0167764D01*
X0276800Y0167443D01*
X0276843Y0167121D01*
X0276879Y0166798D01*
X0276906Y0166474D01*
X0276926Y0166150D01*
X0276938Y0165825D01*
X0276942Y0165500D01*
X0276938Y0165175D01*
X0276926Y0164850D01*
X0276906Y0164526D01*
X0276879Y0164202D01*
X0276843Y0163879D01*
X0276800Y0163557D01*
X0276749Y0163236D01*
X0276690Y0162916D01*
X0276623Y0162598D01*
X0276549Y0162282D01*
X0276466Y0161967D01*
X0276377Y0161655D01*
X0276279Y0161345D01*
X0276175Y0161037D01*
X0276062Y0160732D01*
X0275943Y0160430D01*
X0275816Y0160131D01*
X0275681Y0159835D01*
X0275540Y0159542D01*
X0275392Y0159253D01*
X0275236Y0158968D01*
X0275074Y0158686D01*
X0274905Y0158409D01*
X0274729Y0158136D01*
X0274546Y0157867D01*
X0274357Y0157602D01*
X0274162Y0157342D01*
X0273960Y0157087D01*
X0273753Y0156837D01*
X0273539Y0156593D01*
X0273319Y0156353D01*
X0273094Y0156119D01*
X0272863Y0155890D01*
X0272626Y0155667D01*
X0272385Y0155450D01*
X0272137Y0155239D01*
X0271885Y0155034D01*
X0271628Y0154835D01*
X0271366Y0154643D01*
X0271100Y0154457D01*
X0270829Y0154277D01*
X0270554Y0154104D01*
X0270275Y0153938D01*
X0269991Y0153778D01*
X0269704Y0153626D01*
X0269414Y0153481D01*
X0269120Y0153342D01*
X0268822Y0153211D01*
X0268522Y0153087D01*
X0268218Y0152971D01*
X0267912Y0152862D01*
X0267603Y0152760D01*
X0267292Y0152666D01*
X0266979Y0152580D01*
X0266664Y0152501D01*
X0266647Y0152574D01*
X0266960Y0152652D01*
X0267272Y0152738D01*
X0267581Y0152832D01*
X0267888Y0152933D01*
X0268193Y0153041D01*
X0268494Y0153157D01*
X0268793Y0153280D01*
X0269089Y0153411D01*
X0269381Y0153548D01*
X0269670Y0153693D01*
X0269956Y0153844D01*
X0270237Y0154003D01*
X0270515Y0154168D01*
X0270789Y0154340D01*
X0271058Y0154519D01*
X0271323Y0154704D01*
X0271583Y0154895D01*
X0271839Y0155093D01*
X0272090Y0155297D01*
X0272335Y0155507D01*
X0272576Y0155723D01*
X0272811Y0155944D01*
X0273041Y0156172D01*
X0273265Y0156405D01*
X0273483Y0156643D01*
X0273696Y0156886D01*
X0273902Y0157135D01*
X0274103Y0157388D01*
X0274297Y0157647D01*
X0274485Y0157909D01*
X0274666Y0158177D01*
X0274841Y0158449D01*
X0275009Y0158725D01*
X0275171Y0159005D01*
X0275325Y0159288D01*
X0275473Y0159576D01*
X0275613Y0159867D01*
X0275747Y0160161D01*
X0275873Y0160459D01*
X0275992Y0160759D01*
X0276104Y0161062D01*
X0276208Y0161368D01*
X0276305Y0161677D01*
X0276394Y0161987D01*
X0276476Y0162300D01*
X0276550Y0162615D01*
X0276616Y0162931D01*
X0276675Y0163249D01*
X0276726Y0163568D01*
X0276769Y0163888D01*
X0276804Y0164209D01*
X0276832Y0164531D01*
X0276851Y0164854D01*
X0276863Y0165177D01*
X0276867Y0165500D01*
X0276863Y0165823D01*
X0276851Y0166146D01*
X0276832Y0166469D01*
X0276804Y0166791D01*
X0276769Y0167112D01*
X0276726Y0167432D01*
X0276675Y0167751D01*
X0276616Y0168069D01*
X0276550Y0168385D01*
X0276476Y0168700D01*
X0276394Y0169013D01*
X0276305Y0169323D01*
X0276208Y0169632D01*
X0276104Y0169938D01*
X0275992Y0170241D01*
X0275873Y0170541D01*
X0275747Y0170839D01*
X0275613Y0171133D01*
X0275473Y0171424D01*
X0275325Y0171712D01*
X0275171Y0171995D01*
X0275009Y0172275D01*
X0274841Y0172551D01*
X0274666Y0172823D01*
X0274485Y0173091D01*
X0274297Y0173353D01*
X0274103Y0173612D01*
X0273902Y0173865D01*
X0273696Y0174114D01*
X0273483Y0174357D01*
X0273265Y0174595D01*
X0273041Y0174828D01*
X0272811Y0175056D01*
X0272576Y0175277D01*
X0272335Y0175493D01*
X0272090Y0175703D01*
X0271839Y0175907D01*
X0271583Y0176105D01*
X0271323Y0176296D01*
X0271058Y0176481D01*
X0270789Y0176660D01*
X0270515Y0176832D01*
X0270237Y0176997D01*
X0269956Y0177156D01*
X0269670Y0177307D01*
X0269381Y0177452D01*
X0269089Y0177589D01*
X0268793Y0177720D01*
X0268494Y0177843D01*
X0268193Y0177959D01*
X0267888Y0178067D01*
X0267581Y0178168D01*
X0267272Y0178262D01*
X0266960Y0178348D01*
X0266647Y0178426D01*
X0266630Y0178353D01*
X0266941Y0178275D01*
X0267251Y0178189D01*
X0267559Y0178096D01*
X0267864Y0177996D01*
X0268167Y0177888D01*
X0268467Y0177773D01*
X0268764Y0177651D01*
X0269058Y0177521D01*
X0269349Y0177384D01*
X0269636Y0177240D01*
X0269920Y0177090D01*
X0270200Y0176932D01*
X0270476Y0176768D01*
X0270748Y0176597D01*
X0271016Y0176419D01*
X0271279Y0176235D01*
X0271538Y0176045D01*
X0271792Y0175848D01*
X0272042Y0175645D01*
X0272286Y0175437D01*
X0272525Y0175222D01*
X0272759Y0175002D01*
X0272987Y0174776D01*
X0273210Y0174544D01*
X0273427Y0174307D01*
X0273639Y0174065D01*
X0273844Y0173818D01*
X0274043Y0173566D01*
X0274236Y0173309D01*
X0274423Y0173048D01*
X0274604Y0172782D01*
X0274778Y0172511D01*
X0274945Y0172237D01*
X0275105Y0171959D01*
X0275259Y0171676D01*
X0275406Y0171391D01*
X0275546Y0171101D01*
X0275678Y0170809D01*
X0275804Y0170513D01*
X0275922Y0170214D01*
X0276033Y0169912D01*
X0276137Y0169608D01*
X0276233Y0169302D01*
X0276322Y0168993D01*
X0276403Y0168682D01*
X0276477Y0168369D01*
X0276543Y0168055D01*
X0276601Y0167739D01*
X0276652Y0167421D01*
X0276694Y0167103D01*
X0276730Y0166783D01*
X0276757Y0166463D01*
X0276776Y0166142D01*
X0276788Y0165821D01*
X0276792Y0165500D01*
X0276788Y0165179D01*
X0276776Y0164858D01*
X0276757Y0164537D01*
X0276730Y0164217D01*
X0276694Y0163897D01*
X0276652Y0163579D01*
X0276601Y0163261D01*
X0276543Y0162945D01*
X0276477Y0162631D01*
X0276403Y0162318D01*
X0276322Y0162007D01*
X0276233Y0161698D01*
X0276137Y0161392D01*
X0276033Y0161088D01*
X0275922Y0160786D01*
X0275804Y0160487D01*
X0275678Y0160191D01*
X0275546Y0159899D01*
X0275406Y0159609D01*
X0275259Y0159324D01*
X0275105Y0159041D01*
X0274945Y0158763D01*
X0274778Y0158489D01*
X0274604Y0158218D01*
X0274423Y0157952D01*
X0274236Y0157691D01*
X0274043Y0157434D01*
X0273844Y0157182D01*
X0273639Y0156935D01*
X0273427Y0156693D01*
X0273210Y0156456D01*
X0272987Y0156224D01*
X0272759Y0155998D01*
X0272525Y0155778D01*
X0272286Y0155563D01*
X0272042Y0155355D01*
X0271792Y0155152D01*
X0271538Y0154955D01*
X0271279Y0154765D01*
X0271016Y0154581D01*
X0270748Y0154403D01*
X0270476Y0154232D01*
X0270200Y0154068D01*
X0269920Y0153910D01*
X0269636Y0153760D01*
X0269349Y0153616D01*
X0269058Y0153479D01*
X0268764Y0153349D01*
X0268467Y0153227D01*
X0268167Y0153112D01*
X0267864Y0153004D01*
X0267559Y0152904D01*
X0267251Y0152811D01*
X0266941Y0152725D01*
X0266630Y0152647D01*
X0266613Y0152720D01*
X0266923Y0152798D01*
X0267231Y0152883D01*
X0267536Y0152975D01*
X0267840Y0153075D01*
X0268141Y0153182D01*
X0268439Y0153297D01*
X0268735Y0153418D01*
X0269027Y0153547D01*
X0269316Y0153683D01*
X0269602Y0153826D01*
X0269884Y0153976D01*
X0270162Y0154133D01*
X0270437Y0154296D01*
X0270708Y0154466D01*
X0270974Y0154643D01*
X0271236Y0154826D01*
X0271493Y0155015D01*
X0271746Y0155211D01*
X0271994Y0155412D01*
X0272237Y0155620D01*
X0272474Y0155833D01*
X0272707Y0156052D01*
X0272934Y0156277D01*
X0273156Y0156507D01*
X0273372Y0156743D01*
X0273582Y0156984D01*
X0273786Y0157229D01*
X0273984Y0157480D01*
X0274176Y0157735D01*
X0274362Y0157995D01*
X0274541Y0158260D01*
X0274714Y0158528D01*
X0274880Y0158801D01*
X0275040Y0159078D01*
X0275193Y0159359D01*
X0275339Y0159643D01*
X0275478Y0159931D01*
X0275610Y0160222D01*
X0275735Y0160516D01*
X0275852Y0160813D01*
X0275963Y0161113D01*
X0276066Y0161415D01*
X0276161Y0161720D01*
X0276250Y0162027D01*
X0276330Y0162336D01*
X0276403Y0162647D01*
X0276469Y0162960D01*
X0276527Y0163274D01*
X0276577Y0163590D01*
X0276620Y0163906D01*
X0276655Y0164224D01*
X0276682Y0164542D01*
X0276701Y0164861D01*
X0276713Y0165181D01*
X0276717Y0165500D01*
X0276713Y0165819D01*
X0276701Y0166139D01*
X0276682Y0166458D01*
X0276655Y0166776D01*
X0276620Y0167094D01*
X0276577Y0167410D01*
X0276527Y0167726D01*
X0276469Y0168040D01*
X0276403Y0168353D01*
X0276330Y0168664D01*
X0276250Y0168973D01*
X0276161Y0169280D01*
X0276066Y0169585D01*
X0275963Y0169887D01*
X0275852Y0170187D01*
X0275735Y0170484D01*
X0275610Y0170778D01*
X0275478Y0171069D01*
X0275339Y0171357D01*
X0275193Y0171641D01*
X0275040Y0171922D01*
X0274880Y0172199D01*
X0274714Y0172472D01*
X0274541Y0172740D01*
X0274362Y0173005D01*
X0274176Y0173265D01*
X0273984Y0173520D01*
X0273786Y0173771D01*
X0273582Y0174016D01*
X0273372Y0174257D01*
X0273156Y0174493D01*
X0272934Y0174723D01*
X0272707Y0174948D01*
X0272474Y0175167D01*
X0272237Y0175380D01*
X0271994Y0175588D01*
X0271746Y0175789D01*
X0271493Y0175985D01*
X0271236Y0176174D01*
X0270974Y0176357D01*
X0270708Y0176534D01*
X0270437Y0176704D01*
X0270162Y0176867D01*
X0269884Y0177024D01*
X0269602Y0177174D01*
X0269316Y0177317D01*
X0269027Y0177453D01*
X0268735Y0177582D01*
X0268439Y0177703D01*
X0268141Y0177818D01*
X0267840Y0177925D01*
X0267536Y0178025D01*
X0267231Y0178117D01*
X0266923Y0178202D01*
X0266613Y0178280D01*
X0266595Y0178207D01*
X0266904Y0178130D01*
X0267210Y0178045D01*
X0267514Y0177953D01*
X0267816Y0177854D01*
X0268115Y0177747D01*
X0268412Y0177634D01*
X0268705Y0177512D01*
X0268996Y0177384D01*
X0269283Y0177249D01*
X0269568Y0177107D01*
X0269848Y0176958D01*
X0270125Y0176802D01*
X0270398Y0176640D01*
X0270667Y0176471D01*
X0270932Y0176295D01*
X0271192Y0176113D01*
X0271448Y0175925D01*
X0271699Y0175730D01*
X0271946Y0175530D01*
X0272187Y0175324D01*
X0272424Y0175111D01*
X0272655Y0174893D01*
X0272881Y0174670D01*
X0273101Y0174441D01*
X0273316Y0174207D01*
X0273525Y0173968D01*
X0273728Y0173723D01*
X0273925Y0173474D01*
X0274116Y0173220D01*
X0274300Y0172962D01*
X0274479Y0172699D01*
X0274651Y0172432D01*
X0274816Y0172160D01*
X0274975Y0171885D01*
X0275127Y0171606D01*
X0275272Y0171324D01*
X0275410Y0171037D01*
X0275541Y0170748D01*
X0275665Y0170456D01*
X0275782Y0170160D01*
X0275892Y0169862D01*
X0275994Y0169562D01*
X0276089Y0169258D01*
X0276177Y0168953D01*
X0276257Y0168646D01*
X0276330Y0168336D01*
X0276395Y0168026D01*
X0276453Y0167713D01*
X0276503Y0167399D01*
X0276546Y0167085D01*
X0276580Y0166769D01*
X0276607Y0166452D01*
X0276627Y0166135D01*
X0276638Y0165818D01*
X0276642Y0165500D01*
X0276638Y0165182D01*
X0276627Y0164865D01*
X0276607Y0164548D01*
X0276580Y0164231D01*
X0276546Y0163915D01*
X0276503Y0163601D01*
X0276453Y0163287D01*
X0276395Y0162974D01*
X0276330Y0162664D01*
X0276257Y0162354D01*
X0276177Y0162047D01*
X0276089Y0161742D01*
X0275994Y0161438D01*
X0275892Y0161138D01*
X0275782Y0160840D01*
X0275665Y0160544D01*
X0275541Y0160252D01*
X0275410Y0159963D01*
X0275272Y0159676D01*
X0275127Y0159394D01*
X0274975Y0159115D01*
X0274816Y0158840D01*
X0274651Y0158568D01*
X0274479Y0158301D01*
X0274300Y0158038D01*
X0274116Y0157780D01*
X0273925Y0157526D01*
X0273728Y0157277D01*
X0273525Y0157032D01*
X0273316Y0156793D01*
X0273101Y0156559D01*
X0272881Y0156330D01*
X0272655Y0156107D01*
X0272424Y0155889D01*
X0272187Y0155676D01*
X0271946Y0155470D01*
X0271699Y0155270D01*
X0271448Y0155075D01*
X0271192Y0154887D01*
X0270932Y0154705D01*
X0270667Y0154529D01*
X0270398Y0154360D01*
X0270125Y0154198D01*
X0269848Y0154042D01*
X0269568Y0153893D01*
X0269283Y0153751D01*
X0268996Y0153616D01*
X0268705Y0153488D01*
X0268412Y0153366D01*
X0268115Y0153253D01*
X0267816Y0153146D01*
X0267514Y0153047D01*
X0267210Y0152955D01*
X0266904Y0152870D01*
X0266595Y0152793D01*
X0266578Y0152866D01*
X0266885Y0152943D01*
X0267189Y0153027D01*
X0267492Y0153118D01*
X0267792Y0153217D01*
X0268089Y0153323D01*
X0268384Y0153436D01*
X0268676Y0153557D01*
X0268965Y0153684D01*
X0269251Y0153818D01*
X0269533Y0153960D01*
X0269812Y0154108D01*
X0270088Y0154263D01*
X0270359Y0154424D01*
X0270626Y0154592D01*
X0270890Y0154767D01*
X0271149Y0154948D01*
X0271403Y0155135D01*
X0271653Y0155328D01*
X0271898Y0155528D01*
X0272138Y0155733D01*
X0272373Y0155944D01*
X0272603Y0156161D01*
X0272827Y0156383D01*
X0273046Y0156610D01*
X0273260Y0156843D01*
X0273468Y0157081D01*
X0273669Y0157324D01*
X0273865Y0157572D01*
X0274055Y0157824D01*
X0274239Y0158081D01*
X0274416Y0158343D01*
X0274587Y0158608D01*
X0274751Y0158878D01*
X0274909Y0159152D01*
X0275060Y0159429D01*
X0275205Y0159710D01*
X0275342Y0159994D01*
X0275472Y0160282D01*
X0275596Y0160573D01*
X0275712Y0160866D01*
X0275821Y0161163D01*
X0275923Y0161462D01*
X0276018Y0161763D01*
X0276105Y0162067D01*
X0276185Y0162372D01*
X0276257Y0162680D01*
X0276322Y0162989D01*
X0276379Y0163300D01*
X0276429Y0163612D01*
X0276471Y0163925D01*
X0276506Y0164239D01*
X0276532Y0164553D01*
X0276552Y0164869D01*
X0276563Y0165184D01*
X0276567Y0165500D01*
X0276563Y0165816D01*
X0276552Y0166131D01*
X0276532Y0166447D01*
X0276506Y0166761D01*
X0276471Y0167075D01*
X0276429Y0167388D01*
X0276379Y0167700D01*
X0276322Y0168011D01*
X0276257Y0168320D01*
X0276185Y0168628D01*
X0276105Y0168933D01*
X0276018Y0169237D01*
X0275923Y0169538D01*
X0275821Y0169837D01*
X0275712Y0170134D01*
X0275596Y0170427D01*
X0275472Y0170718D01*
X0275342Y0171006D01*
X0275205Y0171290D01*
X0275060Y0171571D01*
X0274909Y0171848D01*
X0274751Y0172122D01*
X0274587Y0172392D01*
X0274416Y0172657D01*
X0274239Y0172919D01*
X0274055Y0173176D01*
X0273865Y0173428D01*
X0273669Y0173676D01*
X0273468Y0173919D01*
X0273260Y0174157D01*
X0273046Y0174390D01*
X0272827Y0174617D01*
X0272603Y0174839D01*
X0272373Y0175056D01*
X0272138Y0175267D01*
X0271898Y0175472D01*
X0271653Y0175672D01*
X0271403Y0175865D01*
X0271149Y0176052D01*
X0270890Y0176233D01*
X0270626Y0176408D01*
X0270359Y0176576D01*
X0270088Y0176737D01*
X0269812Y0176892D01*
X0269533Y0177040D01*
X0269251Y0177182D01*
X0268965Y0177316D01*
X0268676Y0177443D01*
X0268384Y0177564D01*
X0268089Y0177677D01*
X0267792Y0177783D01*
X0267492Y0177882D01*
X0267189Y0177973D01*
X0266885Y0178057D01*
X0266578Y0178134D01*
X0266561Y0178061D01*
X0266866Y0177985D01*
X0267169Y0177901D01*
X0267469Y0177810D01*
X0267768Y0177712D01*
X0268063Y0177607D01*
X0268357Y0177494D01*
X0268647Y0177374D01*
X0268934Y0177248D01*
X0269218Y0177114D01*
X0269499Y0176973D01*
X0269777Y0176826D01*
X0270050Y0176672D01*
X0270320Y0176512D01*
X0270586Y0176344D01*
X0270848Y0176171D01*
X0271105Y0175991D01*
X0271358Y0175805D01*
X0271606Y0175613D01*
X0271850Y0175415D01*
X0272089Y0175211D01*
X0272322Y0175001D01*
X0272551Y0174785D01*
X0272774Y0174565D01*
X0272992Y0174338D01*
X0273204Y0174107D01*
X0273411Y0173870D01*
X0273611Y0173629D01*
X0273806Y0173382D01*
X0273995Y0173131D01*
X0274177Y0172876D01*
X0274354Y0172616D01*
X0274524Y0172352D01*
X0274687Y0172084D01*
X0274844Y0171812D01*
X0274994Y0171536D01*
X0275137Y0171257D01*
X0275274Y0170974D01*
X0275404Y0170688D01*
X0275526Y0170399D01*
X0275642Y0170107D01*
X0275751Y0169812D01*
X0275852Y0169515D01*
X0275946Y0169215D01*
X0276033Y0168913D01*
X0276112Y0168609D01*
X0276184Y0168304D01*
X0276248Y0167996D01*
X0276305Y0167688D01*
X0276355Y0167378D01*
X0276397Y0167066D01*
X0276431Y0166754D01*
X0276458Y0166441D01*
X0276477Y0166128D01*
X0276488Y0165814D01*
X0276492Y0165500D01*
X0276488Y0165186D01*
X0276477Y0164872D01*
X0276458Y0164559D01*
X0276431Y0164246D01*
X0276397Y0163934D01*
X0276355Y0163622D01*
X0276305Y0163312D01*
X0276248Y0163004D01*
X0276184Y0162696D01*
X0276112Y0162391D01*
X0276033Y0162087D01*
X0275946Y0161785D01*
X0275852Y0161485D01*
X0275751Y0161188D01*
X0275642Y0160893D01*
X0275526Y0160601D01*
X0275404Y0160312D01*
X0275274Y0160026D01*
X0275137Y0159743D01*
X0274994Y0159464D01*
X0274844Y0159188D01*
X0274687Y0158916D01*
X0274524Y0158648D01*
X0274354Y0158384D01*
X0274177Y0158124D01*
X0273995Y0157869D01*
X0273806Y0157618D01*
X0273611Y0157371D01*
X0273411Y0157130D01*
X0273204Y0156893D01*
X0272992Y0156662D01*
X0272774Y0156435D01*
X0272551Y0156215D01*
X0272322Y0155999D01*
X0272089Y0155789D01*
X0271850Y0155585D01*
X0271606Y0155387D01*
X0271358Y0155195D01*
X0271105Y0155009D01*
X0270848Y0154829D01*
X0270586Y0154656D01*
X0270320Y0154488D01*
X0270050Y0154328D01*
X0269777Y0154174D01*
X0269499Y0154027D01*
X0269218Y0153886D01*
X0268934Y0153752D01*
X0268647Y0153626D01*
X0268357Y0153506D01*
X0268063Y0153393D01*
X0267768Y0153288D01*
X0267469Y0153190D01*
X0267169Y0153099D01*
X0266866Y0153015D01*
X0266561Y0152939D01*
X0266544Y0153012D01*
X0266847Y0153088D01*
X0267148Y0153171D01*
X0267447Y0153261D01*
X0267743Y0153359D01*
X0268038Y0153464D01*
X0268329Y0153576D01*
X0268618Y0153695D01*
X0268903Y0153821D01*
X0269186Y0153954D01*
X0269465Y0154093D01*
X0269741Y0154240D01*
X0270013Y0154393D01*
X0270281Y0154553D01*
X0270545Y0154719D01*
X0270806Y0154891D01*
X0271061Y0155070D01*
X0271313Y0155255D01*
X0271560Y0155446D01*
X0271802Y0155643D01*
X0272039Y0155846D01*
X0272272Y0156054D01*
X0272499Y0156269D01*
X0272721Y0156488D01*
X0272937Y0156713D01*
X0273148Y0156943D01*
X0273354Y0157179D01*
X0273553Y0157419D01*
X0273747Y0157664D01*
X0273934Y0157913D01*
X0274116Y0158167D01*
X0274291Y0158425D01*
X0274460Y0158688D01*
X0274622Y0158955D01*
X0274778Y0159225D01*
X0274928Y0159499D01*
X0275070Y0159777D01*
X0275206Y0160058D01*
X0275335Y0160342D01*
X0275457Y0160630D01*
X0275572Y0160920D01*
X0275680Y0161213D01*
X0275781Y0161509D01*
X0275874Y0161806D01*
X0275960Y0162107D01*
X0276039Y0162409D01*
X0276111Y0162713D01*
X0276175Y0163018D01*
X0276231Y0163325D01*
X0276281Y0163633D01*
X0276322Y0163943D01*
X0276356Y0164253D01*
X0276383Y0164564D01*
X0276402Y0164876D01*
X0276413Y0165188D01*
X0276417Y0165500D01*
X0276413Y0165812D01*
X0276402Y0166124D01*
X0276383Y0166436D01*
X0276356Y0166747D01*
X0276322Y0167057D01*
X0276281Y0167367D01*
X0276231Y0167675D01*
X0276175Y0167982D01*
X0276111Y0168287D01*
X0276039Y0168591D01*
X0275960Y0168893D01*
X0275874Y0169194D01*
X0275781Y0169491D01*
X0275680Y0169787D01*
X0275572Y0170080D01*
X0275457Y0170370D01*
X0275335Y0170658D01*
X0275206Y0170942D01*
X0275070Y0171223D01*
X0274928Y0171501D01*
X0274778Y0171775D01*
X0274622Y0172045D01*
X0274460Y0172312D01*
X0274291Y0172575D01*
X0274116Y0172833D01*
X0273934Y0173087D01*
X0273747Y0173336D01*
X0273553Y0173581D01*
X0273354Y0173821D01*
X0273148Y0174057D01*
X0272937Y0174287D01*
X0272721Y0174512D01*
X0272499Y0174731D01*
X0272272Y0174946D01*
X0272039Y0175154D01*
X0271802Y0175357D01*
X0271560Y0175554D01*
X0271313Y0175745D01*
X0271061Y0175930D01*
X0270806Y0176109D01*
X0270545Y0176281D01*
X0270281Y0176447D01*
X0270013Y0176607D01*
X0269741Y0176760D01*
X0269465Y0176907D01*
X0269186Y0177046D01*
X0268903Y0177179D01*
X0268618Y0177305D01*
X0268329Y0177424D01*
X0268038Y0177536D01*
X0267743Y0177641D01*
X0267447Y0177739D01*
X0267148Y0177829D01*
X0266847Y0177912D01*
X0266544Y0177988D01*
X0266527Y0177915D01*
X0266828Y0177839D01*
X0267127Y0177757D01*
X0267425Y0177667D01*
X0267719Y0177570D01*
X0268012Y0177466D01*
X0268301Y0177354D01*
X0268588Y0177236D01*
X0268872Y0177111D01*
X0269153Y0176979D01*
X0269431Y0176840D01*
X0269705Y0176694D01*
X0269975Y0176542D01*
X0270242Y0176383D01*
X0270505Y0176218D01*
X0270763Y0176047D01*
X0271018Y0175869D01*
X0271268Y0175685D01*
X0271513Y0175495D01*
X0271754Y0175299D01*
X0271990Y0175098D01*
X0272221Y0174890D01*
X0272447Y0174677D01*
X0272668Y0174459D01*
X0272883Y0174235D01*
X0273092Y0174007D01*
X0273297Y0173773D01*
X0273495Y0173534D01*
X0273687Y0173291D01*
X0273874Y0173042D01*
X0274054Y0172790D01*
X0274229Y0172533D01*
X0274396Y0172272D01*
X0274558Y0172007D01*
X0274713Y0171738D01*
X0274861Y0171466D01*
X0275003Y0171189D01*
X0275138Y0170910D01*
X0275266Y0170627D01*
X0275388Y0170342D01*
X0275502Y0170053D01*
X0275609Y0169762D01*
X0275709Y0169468D01*
X0275802Y0169172D01*
X0275888Y0168874D01*
X0275966Y0168573D01*
X0276037Y0168271D01*
X0276101Y0167967D01*
X0276157Y0167662D01*
X0276206Y0167356D01*
X0276248Y0167048D01*
X0276282Y0166740D01*
X0276308Y0166430D01*
X0276327Y0166121D01*
X0276338Y0165810D01*
X0276342Y0165500D01*
X0276338Y0165190D01*
X0276327Y0164879D01*
X0276308Y0164570D01*
X0276282Y0164260D01*
X0276248Y0163952D01*
X0276206Y0163644D01*
X0276157Y0163338D01*
X0276101Y0163033D01*
X0276037Y0162729D01*
X0275966Y0162427D01*
X0275888Y0162126D01*
X0275802Y0161828D01*
X0275709Y0161532D01*
X0275609Y0161238D01*
X0275502Y0160947D01*
X0275388Y0160658D01*
X0275266Y0160373D01*
X0275138Y0160090D01*
X0275003Y0159811D01*
X0274861Y0159534D01*
X0274713Y0159262D01*
X0274558Y0158993D01*
X0274396Y0158728D01*
X0274229Y0158467D01*
X0274054Y0158210D01*
X0273874Y0157958D01*
X0273687Y0157709D01*
X0273495Y0157466D01*
X0273297Y0157227D01*
X0273092Y0156993D01*
X0272883Y0156765D01*
X0272668Y0156541D01*
X0272447Y0156323D01*
X0272221Y0156110D01*
X0271990Y0155902D01*
X0271754Y0155701D01*
X0271513Y0155505D01*
X0271268Y0155315D01*
X0271018Y0155131D01*
X0270763Y0154953D01*
X0270505Y0154782D01*
X0270242Y0154617D01*
X0269975Y0154458D01*
X0269705Y0154306D01*
X0269431Y0154160D01*
X0269153Y0154021D01*
X0268872Y0153889D01*
X0268588Y0153764D01*
X0268301Y0153646D01*
X0268012Y0153534D01*
X0267719Y0153430D01*
X0267425Y0153333D01*
X0267127Y0153243D01*
X0266828Y0153161D01*
X0266527Y0153085D01*
X0266510Y0153158D01*
X0266809Y0153233D01*
X0267107Y0153315D01*
X0267402Y0153405D01*
X0267695Y0153501D01*
X0267986Y0153605D01*
X0268274Y0153715D01*
X0268559Y0153833D01*
X0268841Y0153957D01*
X0269121Y0154089D01*
X0269397Y0154227D01*
X0269669Y0154371D01*
X0269938Y0154523D01*
X0270203Y0154681D01*
X0270464Y0154845D01*
X0270721Y0155015D01*
X0270974Y0155192D01*
X0271223Y0155375D01*
X0271467Y0155564D01*
X0271706Y0155759D01*
X0271941Y0155959D01*
X0272170Y0156165D01*
X0272395Y0156377D01*
X0272614Y0156594D01*
X0272828Y0156816D01*
X0273037Y0157044D01*
X0273240Y0157276D01*
X0273437Y0157513D01*
X0273628Y0157755D01*
X0273813Y0158002D01*
X0273993Y0158253D01*
X0274166Y0158508D01*
X0274333Y0158768D01*
X0274494Y0159031D01*
X0274648Y0159299D01*
X0274795Y0159570D01*
X0274936Y0159844D01*
X0275070Y0160122D01*
X0275198Y0160403D01*
X0275318Y0160687D01*
X0275432Y0160974D01*
X0275539Y0161263D01*
X0275638Y0161555D01*
X0275730Y0161850D01*
X0275816Y0162146D01*
X0275894Y0162445D01*
X0275964Y0162745D01*
X0276028Y0163047D01*
X0276084Y0163351D01*
X0276132Y0163655D01*
X0276173Y0163961D01*
X0276207Y0164268D01*
X0276233Y0164575D01*
X0276252Y0164883D01*
X0276263Y0165191D01*
X0276267Y0165500D01*
X0276263Y0165809D01*
X0276252Y0166117D01*
X0276233Y0166425D01*
X0276207Y0166732D01*
X0276173Y0167039D01*
X0276132Y0167345D01*
X0276084Y0167649D01*
X0276028Y0167953D01*
X0275964Y0168255D01*
X0275894Y0168555D01*
X0275816Y0168854D01*
X0275730Y0169150D01*
X0275638Y0169445D01*
X0275539Y0169737D01*
X0275432Y0170026D01*
X0275318Y0170313D01*
X0275198Y0170597D01*
X0275070Y0170878D01*
X0274936Y0171156D01*
X0274795Y0171430D01*
X0274648Y0171701D01*
X0274494Y0171969D01*
X0274333Y0172232D01*
X0274166Y0172492D01*
X0273993Y0172747D01*
X0273813Y0172998D01*
X0273628Y0173245D01*
X0273437Y0173487D01*
X0273240Y0173724D01*
X0273037Y0173956D01*
X0272828Y0174184D01*
X0272614Y0174406D01*
X0272395Y0174623D01*
X0272170Y0174835D01*
X0271941Y0175041D01*
X0271706Y0175241D01*
X0271467Y0175436D01*
X0271223Y0175625D01*
X0270974Y0175808D01*
X0270721Y0175985D01*
X0270464Y0176155D01*
X0270203Y0176319D01*
X0269938Y0176477D01*
X0269669Y0176629D01*
X0269397Y0176773D01*
X0269121Y0176911D01*
X0268841Y0177043D01*
X0268559Y0177167D01*
X0268274Y0177285D01*
X0267986Y0177395D01*
X0267695Y0177499D01*
X0267402Y0177595D01*
X0267107Y0177685D01*
X0266809Y0177767D01*
X0266510Y0177842D01*
X0040337Y0302998D02*
X0040501Y0302297D01*
X0040500Y0302298D02*
X0040202Y0302223D01*
X0039906Y0302141D01*
X0039611Y0302052D01*
X0039319Y0301956D01*
X0039030Y0301853D01*
X0038743Y0301743D01*
X0038458Y0301626D01*
X0038177Y0301502D01*
X0037899Y0301371D01*
X0037624Y0301233D01*
X0037352Y0301089D01*
X0037084Y0300938D01*
X0036820Y0300781D01*
X0036560Y0300617D01*
X0036304Y0300447D01*
X0036052Y0300271D01*
X0035804Y0300089D01*
X0035561Y0299901D01*
X0035323Y0299707D01*
X0035089Y0299507D01*
X0034860Y0299302D01*
X0034636Y0299091D01*
X0034418Y0298875D01*
X0034205Y0298653D01*
X0033997Y0298426D01*
X0033795Y0298195D01*
X0033598Y0297958D01*
X0033408Y0297717D01*
X0033223Y0297471D01*
X0033044Y0297221D01*
X0032871Y0296967D01*
X0032705Y0296708D01*
X0032545Y0296446D01*
X0032392Y0296179D01*
X0032245Y0295909D01*
X0032104Y0295636D01*
X0031970Y0295359D01*
X0031843Y0295079D01*
X0031723Y0294796D01*
X0031610Y0294510D01*
X0031504Y0294222D01*
X0031405Y0293931D01*
X0031313Y0293637D01*
X0031228Y0293342D01*
X0031150Y0293044D01*
X0031080Y0292745D01*
X0031017Y0292444D01*
X0030961Y0292142D01*
X0030912Y0291838D01*
X0030871Y0291533D01*
X0030838Y0291228D01*
X0030812Y0290922D01*
X0030793Y0290615D01*
X0030782Y0290307D01*
X0030778Y0290000D01*
X0030782Y0289693D01*
X0030793Y0289385D01*
X0030812Y0289078D01*
X0030838Y0288772D01*
X0030871Y0288467D01*
X0030912Y0288162D01*
X0030961Y0287858D01*
X0031017Y0287556D01*
X0031080Y0287255D01*
X0031150Y0286956D01*
X0031228Y0286658D01*
X0031313Y0286363D01*
X0031405Y0286069D01*
X0031504Y0285778D01*
X0031610Y0285490D01*
X0031723Y0285204D01*
X0031843Y0284921D01*
X0031970Y0284641D01*
X0032104Y0284364D01*
X0032245Y0284091D01*
X0032392Y0283821D01*
X0032545Y0283554D01*
X0032705Y0283292D01*
X0032871Y0283033D01*
X0033044Y0282779D01*
X0033223Y0282529D01*
X0033408Y0282283D01*
X0033598Y0282042D01*
X0033795Y0281805D01*
X0033997Y0281574D01*
X0034205Y0281347D01*
X0034418Y0281125D01*
X0034636Y0280909D01*
X0034860Y0280698D01*
X0035089Y0280493D01*
X0035323Y0280293D01*
X0035561Y0280099D01*
X0035804Y0279911D01*
X0036052Y0279729D01*
X0036304Y0279553D01*
X0036560Y0279383D01*
X0036820Y0279219D01*
X0037084Y0279062D01*
X0037352Y0278911D01*
X0037624Y0278767D01*
X0037899Y0278629D01*
X0038177Y0278498D01*
X0038458Y0278374D01*
X0038743Y0278257D01*
X0039030Y0278147D01*
X0039319Y0278044D01*
X0039611Y0277948D01*
X0039906Y0277859D01*
X0040202Y0277777D01*
X0040500Y0277702D01*
X0040337Y0277002D01*
X0040336Y0277001D01*
X0040021Y0277080D01*
X0039708Y0277166D01*
X0039397Y0277260D01*
X0039088Y0277362D01*
X0038782Y0277471D01*
X0038478Y0277587D01*
X0038178Y0277711D01*
X0037880Y0277842D01*
X0037586Y0277981D01*
X0037296Y0278126D01*
X0037009Y0278278D01*
X0036725Y0278438D01*
X0036446Y0278604D01*
X0036171Y0278777D01*
X0035900Y0278957D01*
X0035634Y0279143D01*
X0035372Y0279335D01*
X0035115Y0279534D01*
X0034863Y0279739D01*
X0034615Y0279950D01*
X0034374Y0280167D01*
X0034137Y0280390D01*
X0033906Y0280619D01*
X0033681Y0280853D01*
X0033461Y0281093D01*
X0033247Y0281337D01*
X0033040Y0281587D01*
X0032838Y0281842D01*
X0032643Y0282102D01*
X0032454Y0282367D01*
X0032271Y0282636D01*
X0032095Y0282909D01*
X0031926Y0283186D01*
X0031764Y0283468D01*
X0031608Y0283753D01*
X0031460Y0284042D01*
X0031319Y0284335D01*
X0031184Y0284631D01*
X0031057Y0284930D01*
X0030938Y0285232D01*
X0030825Y0285537D01*
X0030721Y0285845D01*
X0030623Y0286155D01*
X0030534Y0286467D01*
X0030451Y0286782D01*
X0030377Y0287098D01*
X0030310Y0287416D01*
X0030251Y0287736D01*
X0030200Y0288057D01*
X0030157Y0288379D01*
X0030121Y0288702D01*
X0030094Y0289026D01*
X0030074Y0289350D01*
X0030062Y0289675D01*
X0030058Y0290000D01*
X0030062Y0290325D01*
X0030074Y0290650D01*
X0030094Y0290974D01*
X0030121Y0291298D01*
X0030157Y0291621D01*
X0030200Y0291943D01*
X0030251Y0292264D01*
X0030310Y0292584D01*
X0030377Y0292902D01*
X0030451Y0293218D01*
X0030534Y0293533D01*
X0030623Y0293845D01*
X0030721Y0294155D01*
X0030825Y0294463D01*
X0030938Y0294768D01*
X0031057Y0295070D01*
X0031184Y0295369D01*
X0031319Y0295665D01*
X0031460Y0295958D01*
X0031608Y0296247D01*
X0031764Y0296532D01*
X0031926Y0296814D01*
X0032095Y0297091D01*
X0032271Y0297364D01*
X0032454Y0297633D01*
X0032643Y0297898D01*
X0032838Y0298158D01*
X0033040Y0298413D01*
X0033247Y0298663D01*
X0033461Y0298907D01*
X0033681Y0299147D01*
X0033906Y0299381D01*
X0034137Y0299610D01*
X0034374Y0299833D01*
X0034615Y0300050D01*
X0034863Y0300261D01*
X0035115Y0300466D01*
X0035372Y0300665D01*
X0035634Y0300857D01*
X0035900Y0301043D01*
X0036171Y0301223D01*
X0036446Y0301396D01*
X0036725Y0301562D01*
X0037009Y0301722D01*
X0037296Y0301874D01*
X0037586Y0302019D01*
X0037880Y0302158D01*
X0038178Y0302289D01*
X0038478Y0302413D01*
X0038782Y0302529D01*
X0039088Y0302638D01*
X0039397Y0302740D01*
X0039708Y0302834D01*
X0040021Y0302920D01*
X0040336Y0302999D01*
X0040353Y0302926D01*
X0040040Y0302848D01*
X0039728Y0302762D01*
X0039419Y0302668D01*
X0039112Y0302567D01*
X0038807Y0302459D01*
X0038506Y0302343D01*
X0038207Y0302220D01*
X0037911Y0302089D01*
X0037619Y0301952D01*
X0037330Y0301807D01*
X0037044Y0301656D01*
X0036763Y0301497D01*
X0036485Y0301332D01*
X0036211Y0301160D01*
X0035942Y0300981D01*
X0035677Y0300796D01*
X0035417Y0300605D01*
X0035161Y0300407D01*
X0034910Y0300203D01*
X0034665Y0299993D01*
X0034424Y0299777D01*
X0034189Y0299556D01*
X0033959Y0299328D01*
X0033735Y0299095D01*
X0033517Y0298857D01*
X0033304Y0298614D01*
X0033098Y0298365D01*
X0032897Y0298112D01*
X0032703Y0297853D01*
X0032515Y0297591D01*
X0032334Y0297323D01*
X0032159Y0297051D01*
X0031991Y0296775D01*
X0031829Y0296495D01*
X0031675Y0296212D01*
X0031527Y0295924D01*
X0031387Y0295633D01*
X0031253Y0295339D01*
X0031127Y0295041D01*
X0031008Y0294741D01*
X0030896Y0294438D01*
X0030792Y0294132D01*
X0030695Y0293823D01*
X0030606Y0293513D01*
X0030524Y0293200D01*
X0030450Y0292885D01*
X0030384Y0292569D01*
X0030325Y0292251D01*
X0030274Y0291932D01*
X0030231Y0291612D01*
X0030196Y0291291D01*
X0030168Y0290969D01*
X0030149Y0290646D01*
X0030137Y0290323D01*
X0030133Y0290000D01*
X0030137Y0289677D01*
X0030149Y0289354D01*
X0030168Y0289031D01*
X0030196Y0288709D01*
X0030231Y0288388D01*
X0030274Y0288068D01*
X0030325Y0287749D01*
X0030384Y0287431D01*
X0030450Y0287115D01*
X0030524Y0286800D01*
X0030606Y0286487D01*
X0030695Y0286177D01*
X0030792Y0285868D01*
X0030896Y0285562D01*
X0031008Y0285259D01*
X0031127Y0284959D01*
X0031253Y0284661D01*
X0031387Y0284367D01*
X0031527Y0284076D01*
X0031675Y0283788D01*
X0031829Y0283505D01*
X0031991Y0283225D01*
X0032159Y0282949D01*
X0032334Y0282677D01*
X0032515Y0282409D01*
X0032703Y0282147D01*
X0032897Y0281888D01*
X0033098Y0281635D01*
X0033304Y0281386D01*
X0033517Y0281143D01*
X0033735Y0280905D01*
X0033959Y0280672D01*
X0034189Y0280444D01*
X0034424Y0280223D01*
X0034665Y0280007D01*
X0034910Y0279797D01*
X0035161Y0279593D01*
X0035417Y0279395D01*
X0035677Y0279204D01*
X0035942Y0279019D01*
X0036211Y0278840D01*
X0036485Y0278668D01*
X0036763Y0278503D01*
X0037044Y0278344D01*
X0037330Y0278193D01*
X0037619Y0278048D01*
X0037911Y0277911D01*
X0038207Y0277780D01*
X0038506Y0277657D01*
X0038807Y0277541D01*
X0039112Y0277433D01*
X0039419Y0277332D01*
X0039728Y0277238D01*
X0040040Y0277152D01*
X0040353Y0277074D01*
X0040370Y0277147D01*
X0040059Y0277225D01*
X0039749Y0277311D01*
X0039441Y0277404D01*
X0039136Y0277504D01*
X0038833Y0277612D01*
X0038533Y0277727D01*
X0038236Y0277849D01*
X0037942Y0277979D01*
X0037651Y0278116D01*
X0037364Y0278260D01*
X0037080Y0278410D01*
X0036800Y0278568D01*
X0036524Y0278732D01*
X0036252Y0278903D01*
X0035984Y0279081D01*
X0035721Y0279265D01*
X0035462Y0279455D01*
X0035208Y0279652D01*
X0034958Y0279855D01*
X0034714Y0280063D01*
X0034475Y0280278D01*
X0034241Y0280498D01*
X0034013Y0280724D01*
X0033790Y0280956D01*
X0033573Y0281193D01*
X0033361Y0281435D01*
X0033156Y0281682D01*
X0032957Y0281934D01*
X0032764Y0282191D01*
X0032577Y0282452D01*
X0032396Y0282718D01*
X0032222Y0282989D01*
X0032055Y0283263D01*
X0031895Y0283541D01*
X0031741Y0283824D01*
X0031594Y0284109D01*
X0031454Y0284399D01*
X0031322Y0284691D01*
X0031196Y0284987D01*
X0031078Y0285286D01*
X0030967Y0285588D01*
X0030863Y0285892D01*
X0030767Y0286198D01*
X0030678Y0286507D01*
X0030597Y0286818D01*
X0030523Y0287131D01*
X0030457Y0287445D01*
X0030399Y0287761D01*
X0030348Y0288079D01*
X0030306Y0288397D01*
X0030270Y0288717D01*
X0030243Y0289037D01*
X0030224Y0289358D01*
X0030212Y0289679D01*
X0030208Y0290000D01*
X0030212Y0290321D01*
X0030224Y0290642D01*
X0030243Y0290963D01*
X0030270Y0291283D01*
X0030306Y0291603D01*
X0030348Y0291921D01*
X0030399Y0292239D01*
X0030457Y0292555D01*
X0030523Y0292869D01*
X0030597Y0293182D01*
X0030678Y0293493D01*
X0030767Y0293802D01*
X0030863Y0294108D01*
X0030967Y0294412D01*
X0031078Y0294714D01*
X0031196Y0295013D01*
X0031322Y0295309D01*
X0031454Y0295601D01*
X0031594Y0295891D01*
X0031741Y0296176D01*
X0031895Y0296459D01*
X0032055Y0296737D01*
X0032222Y0297011D01*
X0032396Y0297282D01*
X0032577Y0297548D01*
X0032764Y0297809D01*
X0032957Y0298066D01*
X0033156Y0298318D01*
X0033361Y0298565D01*
X0033573Y0298807D01*
X0033790Y0299044D01*
X0034013Y0299276D01*
X0034241Y0299502D01*
X0034475Y0299722D01*
X0034714Y0299937D01*
X0034958Y0300145D01*
X0035208Y0300348D01*
X0035462Y0300545D01*
X0035721Y0300735D01*
X0035984Y0300919D01*
X0036252Y0301097D01*
X0036524Y0301268D01*
X0036800Y0301432D01*
X0037080Y0301590D01*
X0037364Y0301740D01*
X0037651Y0301884D01*
X0037942Y0302021D01*
X0038236Y0302151D01*
X0038533Y0302273D01*
X0038833Y0302388D01*
X0039136Y0302496D01*
X0039441Y0302596D01*
X0039749Y0302689D01*
X0040059Y0302775D01*
X0040370Y0302853D01*
X0040387Y0302780D01*
X0040077Y0302702D01*
X0039769Y0302617D01*
X0039464Y0302525D01*
X0039160Y0302425D01*
X0038859Y0302318D01*
X0038561Y0302203D01*
X0038265Y0302082D01*
X0037973Y0301953D01*
X0037684Y0301817D01*
X0037398Y0301674D01*
X0037116Y0301524D01*
X0036838Y0301367D01*
X0036563Y0301204D01*
X0036292Y0301034D01*
X0036026Y0300857D01*
X0035764Y0300674D01*
X0035507Y0300485D01*
X0035254Y0300289D01*
X0035006Y0300088D01*
X0034763Y0299880D01*
X0034526Y0299667D01*
X0034293Y0299448D01*
X0034066Y0299223D01*
X0033844Y0298993D01*
X0033628Y0298757D01*
X0033418Y0298516D01*
X0033214Y0298271D01*
X0033016Y0298020D01*
X0032824Y0297765D01*
X0032638Y0297505D01*
X0032459Y0297240D01*
X0032286Y0296972D01*
X0032120Y0296699D01*
X0031960Y0296422D01*
X0031807Y0296141D01*
X0031661Y0295857D01*
X0031522Y0295569D01*
X0031390Y0295278D01*
X0031265Y0294984D01*
X0031148Y0294687D01*
X0031037Y0294387D01*
X0030934Y0294085D01*
X0030839Y0293780D01*
X0030750Y0293473D01*
X0030670Y0293164D01*
X0030597Y0292853D01*
X0030531Y0292540D01*
X0030473Y0292226D01*
X0030423Y0291910D01*
X0030380Y0291594D01*
X0030345Y0291276D01*
X0030318Y0290958D01*
X0030299Y0290639D01*
X0030287Y0290319D01*
X0030283Y0290000D01*
X0030287Y0289681D01*
X0030299Y0289361D01*
X0030318Y0289042D01*
X0030345Y0288724D01*
X0030380Y0288406D01*
X0030423Y0288090D01*
X0030473Y0287774D01*
X0030531Y0287460D01*
X0030597Y0287147D01*
X0030670Y0286836D01*
X0030750Y0286527D01*
X0030839Y0286220D01*
X0030934Y0285915D01*
X0031037Y0285613D01*
X0031148Y0285313D01*
X0031265Y0285016D01*
X0031390Y0284722D01*
X0031522Y0284431D01*
X0031661Y0284143D01*
X0031807Y0283859D01*
X0031960Y0283578D01*
X0032120Y0283301D01*
X0032286Y0283028D01*
X0032459Y0282760D01*
X0032638Y0282495D01*
X0032824Y0282235D01*
X0033016Y0281980D01*
X0033214Y0281729D01*
X0033418Y0281484D01*
X0033628Y0281243D01*
X0033844Y0281007D01*
X0034066Y0280777D01*
X0034293Y0280552D01*
X0034526Y0280333D01*
X0034763Y0280120D01*
X0035006Y0279912D01*
X0035254Y0279711D01*
X0035507Y0279515D01*
X0035764Y0279326D01*
X0036026Y0279143D01*
X0036292Y0278966D01*
X0036563Y0278796D01*
X0036838Y0278633D01*
X0037116Y0278476D01*
X0037398Y0278326D01*
X0037684Y0278183D01*
X0037973Y0278047D01*
X0038265Y0277918D01*
X0038561Y0277797D01*
X0038859Y0277682D01*
X0039160Y0277575D01*
X0039464Y0277475D01*
X0039769Y0277383D01*
X0040077Y0277298D01*
X0040387Y0277220D01*
X0040405Y0277293D01*
X0040096Y0277370D01*
X0039790Y0277455D01*
X0039486Y0277547D01*
X0039184Y0277646D01*
X0038885Y0277753D01*
X0038588Y0277866D01*
X0038295Y0277988D01*
X0038004Y0278116D01*
X0037717Y0278251D01*
X0037432Y0278393D01*
X0037152Y0278542D01*
X0036875Y0278698D01*
X0036602Y0278860D01*
X0036333Y0279029D01*
X0036068Y0279205D01*
X0035808Y0279387D01*
X0035552Y0279575D01*
X0035301Y0279770D01*
X0035054Y0279970D01*
X0034813Y0280176D01*
X0034576Y0280389D01*
X0034345Y0280607D01*
X0034119Y0280830D01*
X0033899Y0281059D01*
X0033684Y0281293D01*
X0033475Y0281532D01*
X0033272Y0281777D01*
X0033075Y0282026D01*
X0032884Y0282280D01*
X0032700Y0282538D01*
X0032521Y0282801D01*
X0032349Y0283068D01*
X0032184Y0283340D01*
X0032025Y0283615D01*
X0031873Y0283894D01*
X0031728Y0284176D01*
X0031590Y0284463D01*
X0031459Y0284752D01*
X0031335Y0285044D01*
X0031218Y0285340D01*
X0031108Y0285638D01*
X0031006Y0285938D01*
X0030911Y0286242D01*
X0030823Y0286547D01*
X0030743Y0286854D01*
X0030670Y0287164D01*
X0030605Y0287474D01*
X0030547Y0287787D01*
X0030497Y0288101D01*
X0030454Y0288415D01*
X0030420Y0288731D01*
X0030393Y0289048D01*
X0030373Y0289365D01*
X0030362Y0289682D01*
X0030358Y0290000D01*
X0030362Y0290318D01*
X0030373Y0290635D01*
X0030393Y0290952D01*
X0030420Y0291269D01*
X0030454Y0291585D01*
X0030497Y0291899D01*
X0030547Y0292213D01*
X0030605Y0292526D01*
X0030670Y0292836D01*
X0030743Y0293146D01*
X0030823Y0293453D01*
X0030911Y0293758D01*
X0031006Y0294062D01*
X0031108Y0294362D01*
X0031218Y0294660D01*
X0031335Y0294956D01*
X0031459Y0295248D01*
X0031590Y0295537D01*
X0031728Y0295824D01*
X0031873Y0296106D01*
X0032025Y0296385D01*
X0032184Y0296660D01*
X0032349Y0296932D01*
X0032521Y0297199D01*
X0032700Y0297462D01*
X0032884Y0297720D01*
X0033075Y0297974D01*
X0033272Y0298223D01*
X0033475Y0298468D01*
X0033684Y0298707D01*
X0033899Y0298941D01*
X0034119Y0299170D01*
X0034345Y0299393D01*
X0034576Y0299611D01*
X0034813Y0299824D01*
X0035054Y0300030D01*
X0035301Y0300230D01*
X0035552Y0300425D01*
X0035808Y0300613D01*
X0036068Y0300795D01*
X0036333Y0300971D01*
X0036602Y0301140D01*
X0036875Y0301302D01*
X0037152Y0301458D01*
X0037432Y0301607D01*
X0037717Y0301749D01*
X0038004Y0301884D01*
X0038295Y0302012D01*
X0038588Y0302134D01*
X0038885Y0302247D01*
X0039184Y0302354D01*
X0039486Y0302453D01*
X0039790Y0302545D01*
X0040096Y0302630D01*
X0040405Y0302707D01*
X0040422Y0302634D01*
X0040115Y0302557D01*
X0039811Y0302473D01*
X0039508Y0302382D01*
X0039208Y0302283D01*
X0038911Y0302177D01*
X0038616Y0302064D01*
X0038324Y0301943D01*
X0038035Y0301816D01*
X0037749Y0301682D01*
X0037467Y0301540D01*
X0037188Y0301392D01*
X0036912Y0301237D01*
X0036641Y0301076D01*
X0036374Y0300908D01*
X0036110Y0300733D01*
X0035851Y0300552D01*
X0035597Y0300365D01*
X0035347Y0300172D01*
X0035102Y0299972D01*
X0034862Y0299767D01*
X0034627Y0299556D01*
X0034397Y0299339D01*
X0034173Y0299117D01*
X0033954Y0298890D01*
X0033740Y0298657D01*
X0033532Y0298419D01*
X0033331Y0298176D01*
X0033135Y0297928D01*
X0032945Y0297676D01*
X0032761Y0297419D01*
X0032584Y0297157D01*
X0032413Y0296892D01*
X0032249Y0296622D01*
X0032091Y0296348D01*
X0031940Y0296071D01*
X0031795Y0295790D01*
X0031658Y0295506D01*
X0031528Y0295218D01*
X0031404Y0294927D01*
X0031288Y0294634D01*
X0031179Y0294337D01*
X0031077Y0294038D01*
X0030982Y0293737D01*
X0030895Y0293433D01*
X0030815Y0293128D01*
X0030743Y0292820D01*
X0030678Y0292511D01*
X0030621Y0292200D01*
X0030571Y0291888D01*
X0030529Y0291575D01*
X0030494Y0291261D01*
X0030468Y0290947D01*
X0030448Y0290631D01*
X0030437Y0290316D01*
X0030433Y0290000D01*
X0030437Y0289684D01*
X0030448Y0289369D01*
X0030468Y0289053D01*
X0030494Y0288739D01*
X0030529Y0288425D01*
X0030571Y0288112D01*
X0030621Y0287800D01*
X0030678Y0287489D01*
X0030743Y0287180D01*
X0030815Y0286872D01*
X0030895Y0286567D01*
X0030982Y0286263D01*
X0031077Y0285962D01*
X0031179Y0285663D01*
X0031288Y0285366D01*
X0031404Y0285073D01*
X0031528Y0284782D01*
X0031658Y0284494D01*
X0031795Y0284210D01*
X0031940Y0283929D01*
X0032091Y0283652D01*
X0032249Y0283378D01*
X0032413Y0283108D01*
X0032584Y0282843D01*
X0032761Y0282581D01*
X0032945Y0282324D01*
X0033135Y0282072D01*
X0033331Y0281824D01*
X0033532Y0281581D01*
X0033740Y0281343D01*
X0033954Y0281110D01*
X0034173Y0280883D01*
X0034397Y0280661D01*
X0034627Y0280444D01*
X0034862Y0280233D01*
X0035102Y0280028D01*
X0035347Y0279828D01*
X0035597Y0279635D01*
X0035851Y0279448D01*
X0036110Y0279267D01*
X0036374Y0279092D01*
X0036641Y0278924D01*
X0036912Y0278763D01*
X0037188Y0278608D01*
X0037467Y0278460D01*
X0037749Y0278318D01*
X0038035Y0278184D01*
X0038324Y0278057D01*
X0038616Y0277936D01*
X0038911Y0277823D01*
X0039208Y0277717D01*
X0039508Y0277618D01*
X0039811Y0277527D01*
X0040115Y0277443D01*
X0040422Y0277366D01*
X0040439Y0277439D01*
X0040134Y0277515D01*
X0039831Y0277599D01*
X0039531Y0277690D01*
X0039232Y0277788D01*
X0038937Y0277893D01*
X0038643Y0278006D01*
X0038353Y0278126D01*
X0038066Y0278252D01*
X0037782Y0278386D01*
X0037501Y0278527D01*
X0037223Y0278674D01*
X0036950Y0278828D01*
X0036680Y0278988D01*
X0036414Y0279156D01*
X0036152Y0279329D01*
X0035895Y0279509D01*
X0035642Y0279695D01*
X0035394Y0279887D01*
X0035150Y0280085D01*
X0034911Y0280289D01*
X0034678Y0280499D01*
X0034449Y0280715D01*
X0034226Y0280935D01*
X0034008Y0281162D01*
X0033796Y0281393D01*
X0033589Y0281630D01*
X0033389Y0281871D01*
X0033194Y0282118D01*
X0033005Y0282369D01*
X0032823Y0282624D01*
X0032646Y0282884D01*
X0032476Y0283148D01*
X0032313Y0283416D01*
X0032156Y0283688D01*
X0032006Y0283964D01*
X0031863Y0284243D01*
X0031726Y0284526D01*
X0031596Y0284812D01*
X0031474Y0285101D01*
X0031358Y0285393D01*
X0031249Y0285688D01*
X0031148Y0285985D01*
X0031054Y0286285D01*
X0030967Y0286587D01*
X0030888Y0286891D01*
X0030816Y0287196D01*
X0030752Y0287504D01*
X0030695Y0287812D01*
X0030645Y0288122D01*
X0030603Y0288434D01*
X0030569Y0288746D01*
X0030542Y0289059D01*
X0030523Y0289372D01*
X0030512Y0289686D01*
X0030508Y0290000D01*
X0030512Y0290314D01*
X0030523Y0290628D01*
X0030542Y0290941D01*
X0030569Y0291254D01*
X0030603Y0291566D01*
X0030645Y0291878D01*
X0030695Y0292188D01*
X0030752Y0292496D01*
X0030816Y0292804D01*
X0030888Y0293109D01*
X0030967Y0293413D01*
X0031054Y0293715D01*
X0031148Y0294015D01*
X0031249Y0294312D01*
X0031358Y0294607D01*
X0031474Y0294899D01*
X0031596Y0295188D01*
X0031726Y0295474D01*
X0031863Y0295757D01*
X0032006Y0296036D01*
X0032156Y0296312D01*
X0032313Y0296584D01*
X0032476Y0296852D01*
X0032646Y0297116D01*
X0032823Y0297376D01*
X0033005Y0297631D01*
X0033194Y0297882D01*
X0033389Y0298129D01*
X0033589Y0298370D01*
X0033796Y0298607D01*
X0034008Y0298838D01*
X0034226Y0299065D01*
X0034449Y0299285D01*
X0034678Y0299501D01*
X0034911Y0299711D01*
X0035150Y0299915D01*
X0035394Y0300113D01*
X0035642Y0300305D01*
X0035895Y0300491D01*
X0036152Y0300671D01*
X0036414Y0300844D01*
X0036680Y0301012D01*
X0036950Y0301172D01*
X0037223Y0301326D01*
X0037501Y0301473D01*
X0037782Y0301614D01*
X0038066Y0301748D01*
X0038353Y0301874D01*
X0038643Y0301994D01*
X0038937Y0302107D01*
X0039232Y0302212D01*
X0039531Y0302310D01*
X0039831Y0302401D01*
X0040134Y0302485D01*
X0040439Y0302561D01*
X0040456Y0302488D01*
X0040153Y0302412D01*
X0039852Y0302329D01*
X0039553Y0302239D01*
X0039257Y0302141D01*
X0038962Y0302036D01*
X0038671Y0301924D01*
X0038382Y0301805D01*
X0038097Y0301679D01*
X0037814Y0301546D01*
X0037535Y0301407D01*
X0037259Y0301260D01*
X0036987Y0301107D01*
X0036719Y0300947D01*
X0036455Y0300781D01*
X0036194Y0300609D01*
X0035939Y0300430D01*
X0035687Y0300245D01*
X0035440Y0300054D01*
X0035198Y0299857D01*
X0034961Y0299654D01*
X0034728Y0299446D01*
X0034501Y0299231D01*
X0034279Y0299012D01*
X0034063Y0298787D01*
X0033852Y0298557D01*
X0033646Y0298321D01*
X0033447Y0298081D01*
X0033253Y0297836D01*
X0033066Y0297587D01*
X0032884Y0297333D01*
X0032709Y0297075D01*
X0032540Y0296812D01*
X0032378Y0296545D01*
X0032222Y0296275D01*
X0032072Y0296001D01*
X0031930Y0295723D01*
X0031794Y0295442D01*
X0031665Y0295158D01*
X0031543Y0294870D01*
X0031428Y0294580D01*
X0031320Y0294287D01*
X0031219Y0293991D01*
X0031126Y0293694D01*
X0031040Y0293393D01*
X0030961Y0293091D01*
X0030889Y0292787D01*
X0030825Y0292482D01*
X0030769Y0292175D01*
X0030719Y0291867D01*
X0030678Y0291557D01*
X0030644Y0291247D01*
X0030617Y0290936D01*
X0030598Y0290624D01*
X0030587Y0290312D01*
X0030583Y0290000D01*
X0030587Y0289688D01*
X0030598Y0289376D01*
X0030617Y0289064D01*
X0030644Y0288753D01*
X0030678Y0288443D01*
X0030719Y0288133D01*
X0030769Y0287825D01*
X0030825Y0287518D01*
X0030889Y0287213D01*
X0030961Y0286909D01*
X0031040Y0286607D01*
X0031126Y0286306D01*
X0031219Y0286009D01*
X0031320Y0285713D01*
X0031428Y0285420D01*
X0031543Y0285130D01*
X0031665Y0284842D01*
X0031794Y0284558D01*
X0031930Y0284277D01*
X0032072Y0283999D01*
X0032222Y0283725D01*
X0032378Y0283455D01*
X0032540Y0283188D01*
X0032709Y0282925D01*
X0032884Y0282667D01*
X0033066Y0282413D01*
X0033253Y0282164D01*
X0033447Y0281919D01*
X0033646Y0281679D01*
X0033852Y0281443D01*
X0034063Y0281213D01*
X0034279Y0280988D01*
X0034501Y0280769D01*
X0034728Y0280554D01*
X0034961Y0280346D01*
X0035198Y0280143D01*
X0035440Y0279946D01*
X0035687Y0279755D01*
X0035939Y0279570D01*
X0036194Y0279391D01*
X0036455Y0279219D01*
X0036719Y0279053D01*
X0036987Y0278893D01*
X0037259Y0278740D01*
X0037535Y0278593D01*
X0037814Y0278454D01*
X0038097Y0278321D01*
X0038382Y0278195D01*
X0038671Y0278076D01*
X0038962Y0277964D01*
X0039257Y0277859D01*
X0039553Y0277761D01*
X0039852Y0277671D01*
X0040153Y0277588D01*
X0040456Y0277512D01*
X0040473Y0277585D01*
X0040172Y0277661D01*
X0039873Y0277743D01*
X0039575Y0277833D01*
X0039281Y0277930D01*
X0038988Y0278034D01*
X0038699Y0278146D01*
X0038412Y0278264D01*
X0038128Y0278389D01*
X0037847Y0278521D01*
X0037569Y0278660D01*
X0037295Y0278806D01*
X0037025Y0278958D01*
X0036758Y0279117D01*
X0036495Y0279282D01*
X0036237Y0279453D01*
X0035982Y0279631D01*
X0035732Y0279815D01*
X0035487Y0280005D01*
X0035246Y0280201D01*
X0035010Y0280402D01*
X0034779Y0280610D01*
X0034553Y0280823D01*
X0034332Y0281041D01*
X0034117Y0281265D01*
X0033908Y0281493D01*
X0033703Y0281727D01*
X0033505Y0281966D01*
X0033313Y0282209D01*
X0033126Y0282458D01*
X0032946Y0282710D01*
X0032771Y0282967D01*
X0032604Y0283228D01*
X0032442Y0283493D01*
X0032287Y0283762D01*
X0032139Y0284034D01*
X0031997Y0284311D01*
X0031862Y0284590D01*
X0031734Y0284873D01*
X0031612Y0285158D01*
X0031498Y0285447D01*
X0031391Y0285738D01*
X0031291Y0286032D01*
X0031198Y0286328D01*
X0031112Y0286626D01*
X0031034Y0286927D01*
X0030963Y0287229D01*
X0030899Y0287533D01*
X0030843Y0287838D01*
X0030794Y0288144D01*
X0030752Y0288452D01*
X0030718Y0288760D01*
X0030692Y0289070D01*
X0030673Y0289379D01*
X0030662Y0289690D01*
X0030658Y0290000D01*
X0030662Y0290310D01*
X0030673Y0290621D01*
X0030692Y0290930D01*
X0030718Y0291240D01*
X0030752Y0291548D01*
X0030794Y0291856D01*
X0030843Y0292162D01*
X0030899Y0292467D01*
X0030963Y0292771D01*
X0031034Y0293073D01*
X0031112Y0293374D01*
X0031198Y0293672D01*
X0031291Y0293968D01*
X0031391Y0294262D01*
X0031498Y0294553D01*
X0031612Y0294842D01*
X0031734Y0295127D01*
X0031862Y0295410D01*
X0031997Y0295689D01*
X0032139Y0295966D01*
X0032287Y0296238D01*
X0032442Y0296507D01*
X0032604Y0296772D01*
X0032771Y0297033D01*
X0032946Y0297290D01*
X0033126Y0297542D01*
X0033313Y0297791D01*
X0033505Y0298034D01*
X0033703Y0298273D01*
X0033908Y0298507D01*
X0034117Y0298735D01*
X0034332Y0298959D01*
X0034553Y0299177D01*
X0034779Y0299390D01*
X0035010Y0299598D01*
X0035246Y0299799D01*
X0035487Y0299995D01*
X0035732Y0300185D01*
X0035982Y0300369D01*
X0036237Y0300547D01*
X0036495Y0300718D01*
X0036758Y0300883D01*
X0037025Y0301042D01*
X0037295Y0301194D01*
X0037569Y0301340D01*
X0037847Y0301479D01*
X0038128Y0301611D01*
X0038412Y0301736D01*
X0038699Y0301854D01*
X0038988Y0301966D01*
X0039281Y0302070D01*
X0039575Y0302167D01*
X0039873Y0302257D01*
X0040172Y0302339D01*
X0040473Y0302415D01*
X0040490Y0302342D01*
X0040191Y0302267D01*
X0039893Y0302185D01*
X0039598Y0302095D01*
X0039305Y0301999D01*
X0039014Y0301895D01*
X0038726Y0301785D01*
X0038441Y0301667D01*
X0038159Y0301543D01*
X0037879Y0301411D01*
X0037603Y0301273D01*
X0037331Y0301129D01*
X0037062Y0300977D01*
X0036797Y0300819D01*
X0036536Y0300655D01*
X0036279Y0300485D01*
X0036026Y0300308D01*
X0035777Y0300125D01*
X0035533Y0299936D01*
X0035294Y0299741D01*
X0035059Y0299541D01*
X0034830Y0299335D01*
X0034605Y0299123D01*
X0034386Y0298906D01*
X0034172Y0298684D01*
X0033963Y0298456D01*
X0033760Y0298224D01*
X0033563Y0297987D01*
X0033372Y0297745D01*
X0033187Y0297498D01*
X0033007Y0297247D01*
X0032834Y0296992D01*
X0032667Y0296732D01*
X0032506Y0296469D01*
X0032352Y0296201D01*
X0032205Y0295930D01*
X0032064Y0295656D01*
X0031930Y0295378D01*
X0031802Y0295097D01*
X0031682Y0294813D01*
X0031568Y0294526D01*
X0031461Y0294237D01*
X0031362Y0293945D01*
X0031270Y0293650D01*
X0031184Y0293354D01*
X0031106Y0293055D01*
X0031036Y0292755D01*
X0030972Y0292453D01*
X0030916Y0292149D01*
X0030868Y0291845D01*
X0030827Y0291539D01*
X0030793Y0291232D01*
X0030767Y0290925D01*
X0030748Y0290617D01*
X0030737Y0290309D01*
X0030733Y0290000D01*
X0030737Y0289691D01*
X0030748Y0289383D01*
X0030767Y0289075D01*
X0030793Y0288768D01*
X0030827Y0288461D01*
X0030868Y0288155D01*
X0030916Y0287851D01*
X0030972Y0287547D01*
X0031036Y0287245D01*
X0031106Y0286945D01*
X0031184Y0286646D01*
X0031270Y0286350D01*
X0031362Y0286055D01*
X0031461Y0285763D01*
X0031568Y0285474D01*
X0031682Y0285187D01*
X0031802Y0284903D01*
X0031930Y0284622D01*
X0032064Y0284344D01*
X0032205Y0284070D01*
X0032352Y0283799D01*
X0032506Y0283531D01*
X0032667Y0283268D01*
X0032834Y0283008D01*
X0033007Y0282753D01*
X0033187Y0282502D01*
X0033372Y0282255D01*
X0033563Y0282013D01*
X0033760Y0281776D01*
X0033963Y0281544D01*
X0034172Y0281316D01*
X0034386Y0281094D01*
X0034605Y0280877D01*
X0034830Y0280665D01*
X0035059Y0280459D01*
X0035294Y0280259D01*
X0035533Y0280064D01*
X0035777Y0279875D01*
X0036026Y0279692D01*
X0036279Y0279515D01*
X0036536Y0279345D01*
X0036797Y0279181D01*
X0037062Y0279023D01*
X0037331Y0278871D01*
X0037603Y0278727D01*
X0037879Y0278589D01*
X0038159Y0278457D01*
X0038441Y0278333D01*
X0038726Y0278215D01*
X0039014Y0278105D01*
X0039305Y0278001D01*
X0039598Y0277905D01*
X0039893Y0277815D01*
X0040191Y0277733D01*
X0040490Y0277658D01*
X0045650Y0276997D02*
X0045514Y0277704D01*
X0045815Y0277767D01*
X0046115Y0277837D01*
X0046413Y0277914D01*
X0046708Y0277999D01*
X0047002Y0278090D01*
X0047294Y0278189D01*
X0047582Y0278295D01*
X0047869Y0278408D01*
X0048152Y0278528D01*
X0048432Y0278655D01*
X0048710Y0278788D01*
X0048983Y0278929D01*
X0049254Y0279075D01*
X0049521Y0279229D01*
X0049784Y0279389D01*
X0050043Y0279555D01*
X0050297Y0279727D01*
X0050548Y0279906D01*
X0050794Y0280090D01*
X0051036Y0280281D01*
X0051273Y0280477D01*
X0051505Y0280679D01*
X0051732Y0280887D01*
X0051954Y0281100D01*
X0052170Y0281318D01*
X0052382Y0281542D01*
X0052588Y0281771D01*
X0052788Y0282004D01*
X0052982Y0282243D01*
X0053171Y0282486D01*
X0053353Y0282734D01*
X0053530Y0282986D01*
X0053700Y0283242D01*
X0053864Y0283502D01*
X0054022Y0283766D01*
X0054173Y0284034D01*
X0054318Y0284306D01*
X0054456Y0284581D01*
X0054587Y0284859D01*
X0054712Y0285140D01*
X0054829Y0285425D01*
X0054940Y0285712D01*
X0055044Y0286002D01*
X0055140Y0286294D01*
X0055230Y0286588D01*
X0055312Y0286885D01*
X0055387Y0287183D01*
X0055455Y0287483D01*
X0055515Y0287785D01*
X0055568Y0288088D01*
X0055614Y0288392D01*
X0055652Y0288697D01*
X0055683Y0289004D01*
X0055706Y0289310D01*
X0055722Y0289618D01*
X0055731Y0289925D01*
X0055731Y0290233D01*
X0055725Y0290541D01*
X0055711Y0290848D01*
X0055689Y0291155D01*
X0055660Y0291461D01*
X0055624Y0291767D01*
X0055580Y0292071D01*
X0055529Y0292375D01*
X0055470Y0292677D01*
X0055404Y0292977D01*
X0055331Y0293276D01*
X0055251Y0293573D01*
X0055163Y0293868D01*
X0055068Y0294161D01*
X0054966Y0294451D01*
X0054857Y0294739D01*
X0054741Y0295024D01*
X0054619Y0295306D01*
X0054489Y0295585D01*
X0054353Y0295861D01*
X0054210Y0296133D01*
X0054060Y0296402D01*
X0053904Y0296667D01*
X0053741Y0296929D01*
X0053572Y0297186D01*
X0053397Y0297439D01*
X0053216Y0297688D01*
X0053029Y0297932D01*
X0052836Y0298171D01*
X0052637Y0298406D01*
X0052433Y0298636D01*
X0052223Y0298861D01*
X0052008Y0299081D01*
X0051787Y0299295D01*
X0051561Y0299504D01*
X0051330Y0299708D01*
X0051094Y0299905D01*
X0050854Y0300097D01*
X0050609Y0300283D01*
X0050359Y0300464D01*
X0050106Y0300637D01*
X0049848Y0300805D01*
X0049586Y0300967D01*
X0049320Y0301121D01*
X0049050Y0301270D01*
X0048777Y0301412D01*
X0048501Y0301547D01*
X0048221Y0301675D01*
X0047939Y0301797D01*
X0047653Y0301912D01*
X0047365Y0302019D01*
X0047074Y0302120D01*
X0046781Y0302213D01*
X0046486Y0302300D01*
X0046677Y0302993D01*
X0046677Y0302994D01*
X0046989Y0302903D01*
X0047299Y0302804D01*
X0047607Y0302697D01*
X0047911Y0302584D01*
X0048213Y0302463D01*
X0048512Y0302334D01*
X0048807Y0302198D01*
X0049100Y0302056D01*
X0049388Y0301906D01*
X0049673Y0301749D01*
X0049954Y0301585D01*
X0050231Y0301414D01*
X0050504Y0301237D01*
X0050772Y0301053D01*
X0051036Y0300863D01*
X0051295Y0300667D01*
X0051549Y0300464D01*
X0051798Y0300255D01*
X0052042Y0300040D01*
X0052281Y0299819D01*
X0052515Y0299592D01*
X0052742Y0299360D01*
X0052964Y0299122D01*
X0053180Y0298879D01*
X0053391Y0298631D01*
X0053595Y0298378D01*
X0053792Y0298119D01*
X0053984Y0297857D01*
X0054169Y0297589D01*
X0054347Y0297317D01*
X0054519Y0297041D01*
X0054684Y0296761D01*
X0054843Y0296477D01*
X0054994Y0296189D01*
X0055138Y0295897D01*
X0055275Y0295602D01*
X0055405Y0295304D01*
X0055527Y0295003D01*
X0055642Y0294698D01*
X0055750Y0294392D01*
X0055850Y0294082D01*
X0055943Y0293770D01*
X0056028Y0293456D01*
X0056106Y0293141D01*
X0056175Y0292823D01*
X0056237Y0292504D01*
X0056291Y0292183D01*
X0056338Y0291861D01*
X0056376Y0291538D01*
X0056407Y0291214D01*
X0056430Y0290890D01*
X0056444Y0290565D01*
X0056451Y0290240D01*
X0056450Y0289914D01*
X0056442Y0289589D01*
X0056425Y0289264D01*
X0056400Y0288940D01*
X0056368Y0288617D01*
X0056327Y0288294D01*
X0056279Y0287972D01*
X0056223Y0287652D01*
X0056159Y0287333D01*
X0056087Y0287016D01*
X0056008Y0286700D01*
X0055921Y0286387D01*
X0055827Y0286076D01*
X0055724Y0285767D01*
X0055615Y0285461D01*
X0055498Y0285157D01*
X0055374Y0284857D01*
X0055242Y0284559D01*
X0055103Y0284265D01*
X0054957Y0283974D01*
X0054804Y0283687D01*
X0054644Y0283404D01*
X0054478Y0283125D01*
X0054304Y0282850D01*
X0054124Y0282579D01*
X0053937Y0282312D01*
X0053744Y0282051D01*
X0053545Y0281794D01*
X0053339Y0281542D01*
X0053128Y0281295D01*
X0052910Y0281053D01*
X0052687Y0280817D01*
X0052458Y0280586D01*
X0052223Y0280361D01*
X0051983Y0280141D01*
X0051738Y0279927D01*
X0051487Y0279720D01*
X0051232Y0279519D01*
X0050972Y0279324D01*
X0050707Y0279135D01*
X0050437Y0278953D01*
X0050164Y0278777D01*
X0049886Y0278608D01*
X0049604Y0278446D01*
X0049318Y0278291D01*
X0049028Y0278143D01*
X0048735Y0278002D01*
X0048439Y0277868D01*
X0048139Y0277741D01*
X0047837Y0277622D01*
X0047531Y0277510D01*
X0047223Y0277405D01*
X0046913Y0277308D01*
X0046600Y0277219D01*
X0046285Y0277137D01*
X0045969Y0277063D01*
X0045650Y0276997D01*
X0045636Y0277070D01*
X0045953Y0277136D01*
X0046268Y0277210D01*
X0046581Y0277291D01*
X0046892Y0277380D01*
X0047200Y0277477D01*
X0047507Y0277581D01*
X0047810Y0277692D01*
X0048111Y0277811D01*
X0048409Y0277936D01*
X0048704Y0278070D01*
X0048995Y0278210D01*
X0049283Y0278357D01*
X0049567Y0278512D01*
X0049848Y0278673D01*
X0050124Y0278841D01*
X0050396Y0279015D01*
X0050664Y0279196D01*
X0050928Y0279384D01*
X0051186Y0279578D01*
X0051440Y0279778D01*
X0051689Y0279985D01*
X0051933Y0280197D01*
X0052172Y0280415D01*
X0052405Y0280639D01*
X0052633Y0280869D01*
X0052855Y0281104D01*
X0053072Y0281344D01*
X0053282Y0281590D01*
X0053486Y0281841D01*
X0053685Y0282096D01*
X0053877Y0282356D01*
X0054062Y0282621D01*
X0054241Y0282890D01*
X0054414Y0283164D01*
X0054580Y0283442D01*
X0054739Y0283723D01*
X0054891Y0284009D01*
X0055036Y0284298D01*
X0055174Y0284590D01*
X0055305Y0284886D01*
X0055428Y0285185D01*
X0055545Y0285487D01*
X0055654Y0285791D01*
X0055755Y0286098D01*
X0055849Y0286408D01*
X0055936Y0286719D01*
X0056014Y0287033D01*
X0056086Y0287349D01*
X0056149Y0287666D01*
X0056205Y0287984D01*
X0056253Y0288304D01*
X0056293Y0288625D01*
X0056325Y0288947D01*
X0056350Y0289269D01*
X0056367Y0289592D01*
X0056375Y0289916D01*
X0056376Y0290239D01*
X0056370Y0290562D01*
X0056355Y0290885D01*
X0056332Y0291208D01*
X0056302Y0291530D01*
X0056263Y0291851D01*
X0056217Y0292171D01*
X0056163Y0292490D01*
X0056102Y0292808D01*
X0056033Y0293124D01*
X0055956Y0293438D01*
X0055871Y0293750D01*
X0055779Y0294060D01*
X0055679Y0294368D01*
X0055572Y0294673D01*
X0055458Y0294975D01*
X0055336Y0295275D01*
X0055207Y0295571D01*
X0055070Y0295865D01*
X0054927Y0296154D01*
X0054777Y0296441D01*
X0054619Y0296723D01*
X0054455Y0297002D01*
X0054284Y0297277D01*
X0054107Y0297547D01*
X0053923Y0297813D01*
X0053732Y0298074D01*
X0053536Y0298331D01*
X0053333Y0298583D01*
X0053124Y0298830D01*
X0052909Y0299071D01*
X0052688Y0299308D01*
X0052462Y0299539D01*
X0052230Y0299764D01*
X0051992Y0299984D01*
X0051750Y0300198D01*
X0051502Y0300405D01*
X0051249Y0300607D01*
X0050992Y0300803D01*
X0050729Y0300992D01*
X0050462Y0301175D01*
X0050191Y0301351D01*
X0049916Y0301521D01*
X0049636Y0301683D01*
X0049353Y0301839D01*
X0049066Y0301989D01*
X0048776Y0302131D01*
X0048482Y0302265D01*
X0048184Y0302393D01*
X0047884Y0302514D01*
X0047581Y0302627D01*
X0047276Y0302733D01*
X0046968Y0302831D01*
X0046657Y0302922D01*
X0046637Y0302849D01*
X0046946Y0302759D01*
X0047252Y0302661D01*
X0047556Y0302556D01*
X0047857Y0302444D01*
X0048156Y0302324D01*
X0048451Y0302197D01*
X0048744Y0302063D01*
X0049033Y0301921D01*
X0049318Y0301773D01*
X0049600Y0301618D01*
X0049877Y0301456D01*
X0050151Y0301288D01*
X0050421Y0301112D01*
X0050686Y0300931D01*
X0050947Y0300742D01*
X0051203Y0300548D01*
X0051455Y0300347D01*
X0051701Y0300141D01*
X0051942Y0299928D01*
X0052178Y0299710D01*
X0052409Y0299486D01*
X0052634Y0299256D01*
X0052854Y0299021D01*
X0053067Y0298781D01*
X0053275Y0298535D01*
X0053477Y0298285D01*
X0053672Y0298029D01*
X0053862Y0297770D01*
X0054045Y0297505D01*
X0054221Y0297236D01*
X0054391Y0296963D01*
X0054554Y0296686D01*
X0054711Y0296405D01*
X0054860Y0296120D01*
X0055003Y0295832D01*
X0055138Y0295540D01*
X0055267Y0295246D01*
X0055388Y0294948D01*
X0055502Y0294647D01*
X0055608Y0294343D01*
X0055707Y0294038D01*
X0055799Y0293729D01*
X0055883Y0293419D01*
X0055960Y0293107D01*
X0056028Y0292792D01*
X0056090Y0292477D01*
X0056143Y0292160D01*
X0056189Y0291841D01*
X0056227Y0291522D01*
X0056257Y0291202D01*
X0056280Y0290881D01*
X0056295Y0290560D01*
X0056301Y0290238D01*
X0056300Y0289917D01*
X0056292Y0289595D01*
X0056275Y0289274D01*
X0056251Y0288953D01*
X0056218Y0288633D01*
X0056179Y0288314D01*
X0056131Y0287996D01*
X0056075Y0287680D01*
X0056012Y0287364D01*
X0055941Y0287051D01*
X0055863Y0286739D01*
X0055777Y0286429D01*
X0055684Y0286121D01*
X0055583Y0285816D01*
X0055474Y0285513D01*
X0055359Y0285213D01*
X0055236Y0284916D01*
X0055106Y0284622D01*
X0054968Y0284331D01*
X0054824Y0284043D01*
X0054673Y0283760D01*
X0054515Y0283479D01*
X0054350Y0283203D01*
X0054178Y0282931D01*
X0054000Y0282664D01*
X0053816Y0282400D01*
X0053625Y0282141D01*
X0053428Y0281887D01*
X0053224Y0281638D01*
X0053015Y0281394D01*
X0052800Y0281155D01*
X0052579Y0280921D01*
X0052353Y0280693D01*
X0052121Y0280470D01*
X0051883Y0280253D01*
X0051641Y0280042D01*
X0051393Y0279837D01*
X0051141Y0279638D01*
X0050883Y0279445D01*
X0050621Y0279258D01*
X0050355Y0279078D01*
X0050084Y0278904D01*
X0049810Y0278737D01*
X0049531Y0278577D01*
X0049248Y0278424D01*
X0048962Y0278277D01*
X0048672Y0278138D01*
X0048379Y0278005D01*
X0048083Y0277880D01*
X0047784Y0277762D01*
X0047482Y0277651D01*
X0047177Y0277548D01*
X0046870Y0277452D01*
X0046561Y0277364D01*
X0046250Y0277283D01*
X0045937Y0277210D01*
X0045622Y0277144D01*
X0045608Y0277218D01*
X0045921Y0277283D01*
X0046232Y0277356D01*
X0046542Y0277436D01*
X0046849Y0277524D01*
X0047154Y0277619D01*
X0047457Y0277722D01*
X0047757Y0277832D01*
X0048055Y0277950D01*
X0048349Y0278074D01*
X0048641Y0278206D01*
X0048929Y0278344D01*
X0049213Y0278490D01*
X0049494Y0278643D01*
X0049772Y0278802D01*
X0050045Y0278968D01*
X0050314Y0279141D01*
X0050579Y0279320D01*
X0050839Y0279505D01*
X0051095Y0279697D01*
X0051346Y0279895D01*
X0051592Y0280099D01*
X0051834Y0280309D01*
X0052070Y0280525D01*
X0052300Y0280746D01*
X0052525Y0280973D01*
X0052745Y0281206D01*
X0052959Y0281443D01*
X0053167Y0281686D01*
X0053369Y0281934D01*
X0053565Y0282187D01*
X0053755Y0282444D01*
X0053938Y0282706D01*
X0054116Y0282972D01*
X0054286Y0283243D01*
X0054450Y0283517D01*
X0054607Y0283796D01*
X0054757Y0284078D01*
X0054901Y0284364D01*
X0055037Y0284653D01*
X0055167Y0284945D01*
X0055289Y0285241D01*
X0055404Y0285539D01*
X0055512Y0285840D01*
X0055612Y0286144D01*
X0055705Y0286450D01*
X0055791Y0286758D01*
X0055868Y0287068D01*
X0055939Y0287380D01*
X0056002Y0287693D01*
X0056057Y0288008D01*
X0056104Y0288325D01*
X0056144Y0288642D01*
X0056176Y0288960D01*
X0056200Y0289279D01*
X0056217Y0289598D01*
X0056225Y0289918D01*
X0056226Y0290238D01*
X0056220Y0290557D01*
X0056205Y0290877D01*
X0056183Y0291196D01*
X0056153Y0291514D01*
X0056115Y0291832D01*
X0056069Y0292148D01*
X0056016Y0292463D01*
X0055955Y0292777D01*
X0055886Y0293090D01*
X0055810Y0293400D01*
X0055727Y0293709D01*
X0055636Y0294015D01*
X0055537Y0294319D01*
X0055431Y0294621D01*
X0055318Y0294920D01*
X0055197Y0295216D01*
X0055070Y0295510D01*
X0054935Y0295800D01*
X0054793Y0296086D01*
X0054645Y0296369D01*
X0054489Y0296649D01*
X0054327Y0296924D01*
X0054158Y0297196D01*
X0053983Y0297463D01*
X0053801Y0297726D01*
X0053612Y0297984D01*
X0053418Y0298238D01*
X0053217Y0298487D01*
X0053011Y0298731D01*
X0052798Y0298970D01*
X0052580Y0299204D01*
X0052356Y0299432D01*
X0052127Y0299655D01*
X0051892Y0299872D01*
X0051652Y0300084D01*
X0051407Y0300289D01*
X0051157Y0300489D01*
X0050903Y0300682D01*
X0050643Y0300869D01*
X0050379Y0301050D01*
X0050111Y0301224D01*
X0049839Y0301392D01*
X0049563Y0301553D01*
X0049283Y0301707D01*
X0048999Y0301854D01*
X0048712Y0301995D01*
X0048421Y0302128D01*
X0048127Y0302255D01*
X0047831Y0302374D01*
X0047531Y0302486D01*
X0047229Y0302590D01*
X0046924Y0302687D01*
X0046617Y0302777D01*
X0046597Y0302705D01*
X0046902Y0302615D01*
X0047205Y0302519D01*
X0047506Y0302415D01*
X0047804Y0302304D01*
X0048099Y0302185D01*
X0048391Y0302060D01*
X0048680Y0301927D01*
X0048965Y0301787D01*
X0049248Y0301641D01*
X0049526Y0301487D01*
X0049801Y0301327D01*
X0050071Y0301161D01*
X0050338Y0300987D01*
X0050600Y0300808D01*
X0050858Y0300622D01*
X0051111Y0300429D01*
X0051360Y0300231D01*
X0051603Y0300027D01*
X0051842Y0299817D01*
X0052075Y0299601D01*
X0052303Y0299379D01*
X0052526Y0299152D01*
X0052743Y0298920D01*
X0052954Y0298682D01*
X0053160Y0298439D01*
X0053359Y0298192D01*
X0053552Y0297939D01*
X0053740Y0297682D01*
X0053920Y0297421D01*
X0054095Y0297155D01*
X0054263Y0296885D01*
X0054424Y0296611D01*
X0054579Y0296334D01*
X0054727Y0296052D01*
X0054868Y0295767D01*
X0055001Y0295479D01*
X0055128Y0295187D01*
X0055248Y0294893D01*
X0055361Y0294595D01*
X0055466Y0294295D01*
X0055564Y0293993D01*
X0055655Y0293688D01*
X0055738Y0293381D01*
X0055813Y0293073D01*
X0055882Y0292762D01*
X0055942Y0292450D01*
X0055995Y0292136D01*
X0056040Y0291822D01*
X0056078Y0291506D01*
X0056108Y0291189D01*
X0056130Y0290872D01*
X0056145Y0290555D01*
X0056151Y0290237D01*
X0056150Y0289919D01*
X0056142Y0289601D01*
X0056125Y0289284D01*
X0056101Y0288967D01*
X0056069Y0288650D01*
X0056030Y0288335D01*
X0055983Y0288020D01*
X0055928Y0287707D01*
X0055865Y0287396D01*
X0055796Y0287085D01*
X0055718Y0286777D01*
X0055633Y0286471D01*
X0055541Y0286166D01*
X0055441Y0285865D01*
X0055334Y0285565D01*
X0055219Y0285269D01*
X0055098Y0284975D01*
X0054969Y0284684D01*
X0054834Y0284397D01*
X0054691Y0284112D01*
X0054541Y0283832D01*
X0054385Y0283555D01*
X0054222Y0283282D01*
X0054053Y0283013D01*
X0053877Y0282748D01*
X0053694Y0282488D01*
X0053505Y0282232D01*
X0053311Y0281981D01*
X0053110Y0281734D01*
X0052903Y0281493D01*
X0052690Y0281257D01*
X0052472Y0281026D01*
X0052248Y0280800D01*
X0052018Y0280580D01*
X0051784Y0280365D01*
X0051544Y0280157D01*
X0051299Y0279954D01*
X0051049Y0279757D01*
X0050795Y0279566D01*
X0050536Y0279382D01*
X0050273Y0279203D01*
X0050005Y0279032D01*
X0049734Y0278867D01*
X0049458Y0278708D01*
X0049178Y0278557D01*
X0048895Y0278412D01*
X0048609Y0278274D01*
X0048319Y0278143D01*
X0048026Y0278019D01*
X0047731Y0277902D01*
X0047432Y0277793D01*
X0047131Y0277691D01*
X0046828Y0277596D01*
X0046522Y0277509D01*
X0046214Y0277429D01*
X0045905Y0277356D01*
X0045593Y0277291D01*
X0045579Y0277365D01*
X0045889Y0277430D01*
X0046197Y0277502D01*
X0046502Y0277581D01*
X0046806Y0277668D01*
X0047108Y0277762D01*
X0047407Y0277864D01*
X0047704Y0277973D01*
X0047998Y0278089D01*
X0048289Y0278212D01*
X0048577Y0278342D01*
X0048862Y0278479D01*
X0049144Y0278623D01*
X0049421Y0278774D01*
X0049695Y0278931D01*
X0049966Y0279096D01*
X0050232Y0279266D01*
X0050494Y0279443D01*
X0050751Y0279627D01*
X0051004Y0279816D01*
X0051252Y0280012D01*
X0051495Y0280214D01*
X0051734Y0280421D01*
X0051967Y0280635D01*
X0052195Y0280854D01*
X0052418Y0281078D01*
X0052635Y0281308D01*
X0052846Y0281543D01*
X0053052Y0281783D01*
X0053252Y0282028D01*
X0053446Y0282277D01*
X0053633Y0282532D01*
X0053815Y0282791D01*
X0053990Y0283054D01*
X0054158Y0283321D01*
X0054320Y0283593D01*
X0054476Y0283868D01*
X0054624Y0284147D01*
X0054766Y0284429D01*
X0054901Y0284715D01*
X0055029Y0285004D01*
X0055150Y0285296D01*
X0055263Y0285591D01*
X0055370Y0285889D01*
X0055469Y0286189D01*
X0055561Y0286492D01*
X0055646Y0286796D01*
X0055723Y0287103D01*
X0055792Y0287411D01*
X0055854Y0287721D01*
X0055909Y0288032D01*
X0055956Y0288345D01*
X0055995Y0288659D01*
X0056027Y0288973D01*
X0056051Y0289288D01*
X0056067Y0289604D01*
X0056076Y0289920D01*
X0056076Y0290236D01*
X0056070Y0290552D01*
X0056055Y0290868D01*
X0056033Y0291183D01*
X0056003Y0291498D01*
X0055966Y0291812D01*
X0055921Y0292125D01*
X0055868Y0292436D01*
X0055808Y0292747D01*
X0055740Y0293056D01*
X0055665Y0293363D01*
X0055582Y0293668D01*
X0055492Y0293971D01*
X0055395Y0294271D01*
X0055290Y0294570D01*
X0055178Y0294865D01*
X0055059Y0295158D01*
X0054933Y0295448D01*
X0054800Y0295735D01*
X0054660Y0296018D01*
X0054513Y0296298D01*
X0054359Y0296574D01*
X0054199Y0296846D01*
X0054032Y0297115D01*
X0053858Y0297379D01*
X0053678Y0297639D01*
X0053492Y0297894D01*
X0053300Y0298145D01*
X0053102Y0298392D01*
X0052898Y0298633D01*
X0052687Y0298869D01*
X0052472Y0299100D01*
X0052250Y0299326D01*
X0052024Y0299546D01*
X0051792Y0299761D01*
X0051555Y0299970D01*
X0051312Y0300173D01*
X0051065Y0300370D01*
X0050814Y0300561D01*
X0050557Y0300746D01*
X0050296Y0300925D01*
X0050031Y0301097D01*
X0049762Y0301263D01*
X0049489Y0301422D01*
X0049212Y0301575D01*
X0048932Y0301720D01*
X0048648Y0301859D01*
X0048361Y0301991D01*
X0048070Y0302116D01*
X0047777Y0302234D01*
X0047481Y0302344D01*
X0047182Y0302448D01*
X0046881Y0302544D01*
X0046577Y0302632D01*
X0046557Y0302560D01*
X0046859Y0302472D01*
X0047158Y0302376D01*
X0047455Y0302274D01*
X0047750Y0302164D01*
X0048042Y0302047D01*
X0048330Y0301922D01*
X0048616Y0301791D01*
X0048898Y0301653D01*
X0049177Y0301508D01*
X0049452Y0301357D01*
X0049724Y0301198D01*
X0049991Y0301034D01*
X0050255Y0300862D01*
X0050514Y0300685D01*
X0050769Y0300501D01*
X0051019Y0300311D01*
X0051265Y0300115D01*
X0051506Y0299913D01*
X0051742Y0299705D01*
X0051972Y0299492D01*
X0052198Y0299273D01*
X0052418Y0299048D01*
X0052632Y0298818D01*
X0052841Y0298584D01*
X0053044Y0298344D01*
X0053241Y0298099D01*
X0053432Y0297850D01*
X0053617Y0297595D01*
X0053796Y0297337D01*
X0053969Y0297074D01*
X0054135Y0296807D01*
X0054294Y0296537D01*
X0054447Y0296262D01*
X0054593Y0295984D01*
X0054732Y0295702D01*
X0054865Y0295417D01*
X0054990Y0295129D01*
X0055109Y0294838D01*
X0055220Y0294544D01*
X0055324Y0294247D01*
X0055421Y0293948D01*
X0055510Y0293647D01*
X0055593Y0293344D01*
X0055667Y0293039D01*
X0055735Y0292732D01*
X0055795Y0292423D01*
X0055847Y0292113D01*
X0055892Y0291802D01*
X0055929Y0291490D01*
X0055958Y0291177D01*
X0055980Y0290864D01*
X0055995Y0290550D01*
X0056001Y0290235D01*
X0056001Y0289921D01*
X0055992Y0289607D01*
X0055976Y0289293D01*
X0055952Y0288980D01*
X0055920Y0288667D01*
X0055881Y0288355D01*
X0055835Y0288045D01*
X0055780Y0287735D01*
X0055719Y0287427D01*
X0055650Y0287120D01*
X0055573Y0286815D01*
X0055489Y0286513D01*
X0055398Y0286212D01*
X0055299Y0285914D01*
X0055193Y0285618D01*
X0055080Y0285324D01*
X0054960Y0285034D01*
X0054833Y0284747D01*
X0054699Y0284462D01*
X0054558Y0284181D01*
X0054410Y0283904D01*
X0054255Y0283630D01*
X0054094Y0283361D01*
X0053927Y0283095D01*
X0053753Y0282833D01*
X0053572Y0282576D01*
X0053386Y0282323D01*
X0053193Y0282074D01*
X0052995Y0281831D01*
X0052790Y0281592D01*
X0052580Y0281359D01*
X0052364Y0281130D01*
X0052143Y0280907D01*
X0051916Y0280689D01*
X0051684Y0280477D01*
X0051447Y0280271D01*
X0051205Y0280070D01*
X0050958Y0279876D01*
X0050707Y0279687D01*
X0050451Y0279505D01*
X0050191Y0279329D01*
X0049926Y0279159D01*
X0049657Y0278996D01*
X0049385Y0278839D01*
X0049109Y0278689D01*
X0048829Y0278546D01*
X0048546Y0278410D01*
X0048260Y0278280D01*
X0047970Y0278158D01*
X0047678Y0278043D01*
X0047383Y0277934D01*
X0047085Y0277834D01*
X0046785Y0277740D01*
X0046483Y0277653D01*
X0046179Y0277574D01*
X0045873Y0277503D01*
X0045565Y0277439D01*
X0045551Y0277512D01*
X0045857Y0277576D01*
X0046161Y0277647D01*
X0046463Y0277726D01*
X0046764Y0277812D01*
X0047062Y0277905D01*
X0047358Y0278005D01*
X0047651Y0278113D01*
X0047942Y0278228D01*
X0048230Y0278349D01*
X0048514Y0278478D01*
X0048796Y0278613D01*
X0049074Y0278756D01*
X0049349Y0278905D01*
X0049619Y0279061D01*
X0049886Y0279223D01*
X0050149Y0279392D01*
X0050408Y0279567D01*
X0050663Y0279748D01*
X0050913Y0279935D01*
X0051158Y0280129D01*
X0051399Y0280328D01*
X0051634Y0280533D01*
X0051865Y0280744D01*
X0052090Y0280961D01*
X0052310Y0281182D01*
X0052525Y0281410D01*
X0052734Y0281642D01*
X0052937Y0281879D01*
X0053135Y0282121D01*
X0053326Y0282368D01*
X0053512Y0282619D01*
X0053691Y0282875D01*
X0053864Y0283136D01*
X0054031Y0283400D01*
X0054191Y0283668D01*
X0054344Y0283940D01*
X0054491Y0284216D01*
X0054631Y0284495D01*
X0054765Y0284778D01*
X0054891Y0285064D01*
X0055011Y0285352D01*
X0055123Y0285644D01*
X0055228Y0285938D01*
X0055326Y0286235D01*
X0055417Y0286534D01*
X0055501Y0286835D01*
X0055577Y0287138D01*
X0055645Y0287442D01*
X0055707Y0287749D01*
X0055761Y0288057D01*
X0055807Y0288366D01*
X0055846Y0288676D01*
X0055877Y0288986D01*
X0055901Y0289298D01*
X0055917Y0289610D01*
X0055926Y0289922D01*
X0055926Y0290235D01*
X0055920Y0290547D01*
X0055906Y0290859D01*
X0055884Y0291171D01*
X0055854Y0291482D01*
X0055817Y0291792D01*
X0055773Y0292102D01*
X0055721Y0292410D01*
X0055661Y0292716D01*
X0055594Y0293022D01*
X0055520Y0293325D01*
X0055438Y0293627D01*
X0055349Y0293926D01*
X0055253Y0294223D01*
X0055149Y0294518D01*
X0055039Y0294810D01*
X0054921Y0295100D01*
X0054796Y0295386D01*
X0054665Y0295670D01*
X0054526Y0295950D01*
X0054381Y0296226D01*
X0054229Y0296499D01*
X0054071Y0296769D01*
X0053905Y0297034D01*
X0053734Y0297295D01*
X0053556Y0297552D01*
X0053372Y0297805D01*
X0053182Y0298053D01*
X0052986Y0298296D01*
X0052784Y0298534D01*
X0052577Y0298768D01*
X0052364Y0298996D01*
X0052145Y0299219D01*
X0051921Y0299437D01*
X0051691Y0299649D01*
X0051457Y0299856D01*
X0051218Y0300057D01*
X0050973Y0300252D01*
X0050725Y0300440D01*
X0050471Y0300623D01*
X0050213Y0300800D01*
X0049952Y0300970D01*
X0049685Y0301134D01*
X0049416Y0301291D01*
X0049142Y0301442D01*
X0048865Y0301586D01*
X0048584Y0301723D01*
X0048300Y0301854D01*
X0048013Y0301977D01*
X0047723Y0302094D01*
X0047430Y0302203D01*
X0047135Y0302305D01*
X0046837Y0302400D01*
X0046537Y0302488D01*
X0046518Y0302415D01*
X0046816Y0302328D01*
X0047112Y0302234D01*
X0047405Y0302132D01*
X0047696Y0302024D01*
X0047984Y0301908D01*
X0048270Y0301785D01*
X0048552Y0301656D01*
X0048831Y0301519D01*
X0049107Y0301376D01*
X0049379Y0301226D01*
X0049647Y0301070D01*
X0049912Y0300907D01*
X0050172Y0300737D01*
X0050428Y0300562D01*
X0050680Y0300380D01*
X0050928Y0300192D01*
X0051170Y0299998D01*
X0051408Y0299799D01*
X0051641Y0299593D01*
X0051869Y0299382D01*
X0052092Y0299166D01*
X0052309Y0298944D01*
X0052521Y0298717D01*
X0052728Y0298485D01*
X0052929Y0298248D01*
X0053123Y0298006D01*
X0053312Y0297760D01*
X0053495Y0297508D01*
X0053672Y0297253D01*
X0053842Y0296993D01*
X0054006Y0296730D01*
X0054164Y0296462D01*
X0054315Y0296191D01*
X0054459Y0295916D01*
X0054597Y0295637D01*
X0054728Y0295355D01*
X0054852Y0295071D01*
X0054969Y0294783D01*
X0055079Y0294492D01*
X0055182Y0294199D01*
X0055278Y0293904D01*
X0055366Y0293606D01*
X0055447Y0293306D01*
X0055521Y0293005D01*
X0055588Y0292701D01*
X0055647Y0292396D01*
X0055699Y0292090D01*
X0055743Y0291782D01*
X0055780Y0291474D01*
X0055809Y0291165D01*
X0055831Y0290855D01*
X0055845Y0290545D01*
X0055851Y0290234D01*
X0055851Y0289923D01*
X0055842Y0289613D01*
X0055826Y0289303D01*
X0055802Y0288993D01*
X0055771Y0288684D01*
X0055733Y0288376D01*
X0055687Y0288069D01*
X0055633Y0287763D01*
X0055572Y0287458D01*
X0055504Y0287155D01*
X0055428Y0286854D01*
X0055345Y0286555D01*
X0055255Y0286257D01*
X0055157Y0285962D01*
X0055053Y0285670D01*
X0054941Y0285380D01*
X0054822Y0285093D01*
X0054696Y0284809D01*
X0054564Y0284528D01*
X0054425Y0284251D01*
X0054279Y0283976D01*
X0054126Y0283706D01*
X0053967Y0283439D01*
X0053801Y0283176D01*
X0053629Y0282918D01*
X0053451Y0282663D01*
X0053266Y0282413D01*
X0053076Y0282168D01*
X0052880Y0281927D01*
X0052678Y0281691D01*
X0052470Y0281460D01*
X0052256Y0281235D01*
X0052038Y0281014D01*
X0051814Y0280799D01*
X0051584Y0280589D01*
X0051350Y0280386D01*
X0051111Y0280187D01*
X0050867Y0279995D01*
X0050619Y0279809D01*
X0050366Y0279628D01*
X0050108Y0279454D01*
X0049847Y0279287D01*
X0049581Y0279125D01*
X0049312Y0278970D01*
X0049039Y0278822D01*
X0048763Y0278681D01*
X0048483Y0278546D01*
X0048200Y0278418D01*
X0047914Y0278297D01*
X0047625Y0278183D01*
X0047333Y0278076D01*
X0047039Y0277976D01*
X0046743Y0277884D01*
X0046444Y0277798D01*
X0046143Y0277720D01*
X0045841Y0277649D01*
X0045537Y0277586D01*
X0045523Y0277660D01*
X0045825Y0277723D01*
X0046125Y0277793D01*
X0046424Y0277871D01*
X0046721Y0277956D01*
X0047016Y0278048D01*
X0047308Y0278147D01*
X0047598Y0278253D01*
X0047886Y0278367D01*
X0048170Y0278487D01*
X0048451Y0278614D01*
X0048729Y0278748D01*
X0049004Y0278889D01*
X0049276Y0279036D01*
X0049543Y0279190D01*
X0049807Y0279350D01*
X0050067Y0279517D01*
X0050323Y0279690D01*
X0050574Y0279869D01*
X0050821Y0280055D01*
X0051064Y0280246D01*
X0051302Y0280443D01*
X0051535Y0280646D01*
X0051762Y0280854D01*
X0051985Y0281068D01*
X0052203Y0281287D01*
X0052415Y0281511D01*
X0052621Y0281741D01*
X0052822Y0281975D01*
X0053017Y0282215D01*
X0053207Y0282459D01*
X0053390Y0282707D01*
X0053567Y0282960D01*
X0053738Y0283217D01*
X0053903Y0283478D01*
X0054061Y0283744D01*
X0054213Y0284013D01*
X0054358Y0284285D01*
X0054497Y0284561D01*
X0054628Y0284840D01*
X0054753Y0285123D01*
X0054871Y0285408D01*
X0054982Y0285696D01*
X0055086Y0285987D01*
X0055183Y0286280D01*
X0055273Y0286576D01*
X0055356Y0286873D01*
X0055431Y0287173D01*
X0055499Y0287474D01*
X0055559Y0287777D01*
X0055613Y0288081D01*
X0055658Y0288386D01*
X0055697Y0288692D01*
X0055728Y0289000D01*
X0055751Y0289308D01*
X0055767Y0289616D01*
X0055776Y0289925D01*
X0055776Y0290233D01*
X0055770Y0290542D01*
X0055756Y0290851D01*
X0055734Y0291159D01*
X0055705Y0291466D01*
X0055669Y0291773D01*
X0055625Y0292078D01*
X0055573Y0292383D01*
X0055514Y0292686D01*
X0055448Y0292988D01*
X0055375Y0293287D01*
X0055294Y0293585D01*
X0055206Y0293881D01*
X0055111Y0294175D01*
X0055009Y0294467D01*
X0054899Y0294755D01*
X0054783Y0295041D01*
X0054660Y0295325D01*
X0054530Y0295605D01*
X0054393Y0295881D01*
X0054249Y0296155D01*
X0054099Y0296425D01*
X0053942Y0296691D01*
X0053779Y0296953D01*
X0053610Y0297211D01*
X0053434Y0297465D01*
X0053252Y0297715D01*
X0053064Y0297960D01*
X0052871Y0298200D01*
X0052671Y0298436D01*
X0052466Y0298667D01*
X0052255Y0298892D01*
X0052039Y0299113D01*
X0051818Y0299328D01*
X0051591Y0299538D01*
X0051359Y0299742D01*
X0051123Y0299940D01*
X0050882Y0300133D01*
X0050636Y0300320D01*
X0050385Y0300500D01*
X0050131Y0300675D01*
X0049872Y0300843D01*
X0049609Y0301005D01*
X0049342Y0301161D01*
X0049071Y0301310D01*
X0048797Y0301452D01*
X0048520Y0301588D01*
X0048239Y0301717D01*
X0047956Y0301839D01*
X0047669Y0301954D01*
X0047380Y0302062D01*
X0047088Y0302163D01*
X0046794Y0302256D01*
X0046498Y0302343D01*
D16*
X0291394Y0256000D03*
X0291394Y0244000D03*
X0291394Y0232000D03*
D17*
X0238146Y0238551D02*
X0238146Y0249575D01*
X0230153Y0241898D02*
X0230155Y0241951D01*
X0230161Y0242004D01*
X0230171Y0242056D01*
X0230184Y0242107D01*
X0230202Y0242157D01*
X0230223Y0242206D01*
X0230248Y0242253D01*
X0230276Y0242297D01*
X0230308Y0242340D01*
X0230342Y0242380D01*
X0230380Y0242418D01*
X0230420Y0242452D01*
X0230463Y0242484D01*
X0230508Y0242512D01*
X0230554Y0242537D01*
X0230603Y0242558D01*
X0230653Y0242576D01*
X0230704Y0242589D01*
X0230756Y0242599D01*
X0230809Y0242605D01*
X0230862Y0242607D01*
X0230915Y0242605D01*
X0230968Y0242599D01*
X0231020Y0242589D01*
X0231071Y0242576D01*
X0231121Y0242558D01*
X0231170Y0242537D01*
X0231217Y0242512D01*
X0231261Y0242484D01*
X0231304Y0242452D01*
X0231344Y0242418D01*
X0231382Y0242380D01*
X0231416Y0242340D01*
X0231448Y0242297D01*
X0231476Y0242252D01*
X0231501Y0242206D01*
X0231522Y0242157D01*
X0231540Y0242107D01*
X0231553Y0242056D01*
X0231563Y0242004D01*
X0231569Y0241951D01*
X0231571Y0241898D01*
X0231569Y0241845D01*
X0231563Y0241792D01*
X0231553Y0241740D01*
X0231540Y0241689D01*
X0231522Y0241639D01*
X0231501Y0241590D01*
X0231476Y0241543D01*
X0231448Y0241499D01*
X0231416Y0241456D01*
X0231382Y0241416D01*
X0231344Y0241378D01*
X0231304Y0241344D01*
X0231261Y0241312D01*
X0231216Y0241284D01*
X0231170Y0241259D01*
X0231121Y0241238D01*
X0231071Y0241220D01*
X0231020Y0241207D01*
X0230968Y0241197D01*
X0230915Y0241191D01*
X0230862Y0241189D01*
X0230809Y0241191D01*
X0230756Y0241197D01*
X0230704Y0241207D01*
X0230653Y0241220D01*
X0230603Y0241238D01*
X0230554Y0241259D01*
X0230507Y0241284D01*
X0230463Y0241312D01*
X0230420Y0241344D01*
X0230380Y0241378D01*
X0230342Y0241416D01*
X0230308Y0241456D01*
X0230276Y0241499D01*
X0230248Y0241544D01*
X0230223Y0241590D01*
X0230202Y0241639D01*
X0230184Y0241689D01*
X0230171Y0241740D01*
X0230161Y0241792D01*
X0230155Y0241845D01*
X0230153Y0241898D01*
X0229091Y0238551D02*
X0229091Y0249575D01*
X0226091Y0261051D02*
X0226091Y0272075D01*
X0227153Y0264398D02*
X0227155Y0264451D01*
X0227161Y0264504D01*
X0227171Y0264556D01*
X0227184Y0264607D01*
X0227202Y0264657D01*
X0227223Y0264706D01*
X0227248Y0264753D01*
X0227276Y0264797D01*
X0227308Y0264840D01*
X0227342Y0264880D01*
X0227380Y0264918D01*
X0227420Y0264952D01*
X0227463Y0264984D01*
X0227508Y0265012D01*
X0227554Y0265037D01*
X0227603Y0265058D01*
X0227653Y0265076D01*
X0227704Y0265089D01*
X0227756Y0265099D01*
X0227809Y0265105D01*
X0227862Y0265107D01*
X0227915Y0265105D01*
X0227968Y0265099D01*
X0228020Y0265089D01*
X0228071Y0265076D01*
X0228121Y0265058D01*
X0228170Y0265037D01*
X0228217Y0265012D01*
X0228261Y0264984D01*
X0228304Y0264952D01*
X0228344Y0264918D01*
X0228382Y0264880D01*
X0228416Y0264840D01*
X0228448Y0264797D01*
X0228476Y0264752D01*
X0228501Y0264706D01*
X0228522Y0264657D01*
X0228540Y0264607D01*
X0228553Y0264556D01*
X0228563Y0264504D01*
X0228569Y0264451D01*
X0228571Y0264398D01*
X0228569Y0264345D01*
X0228563Y0264292D01*
X0228553Y0264240D01*
X0228540Y0264189D01*
X0228522Y0264139D01*
X0228501Y0264090D01*
X0228476Y0264043D01*
X0228448Y0263999D01*
X0228416Y0263956D01*
X0228382Y0263916D01*
X0228344Y0263878D01*
X0228304Y0263844D01*
X0228261Y0263812D01*
X0228216Y0263784D01*
X0228170Y0263759D01*
X0228121Y0263738D01*
X0228071Y0263720D01*
X0228020Y0263707D01*
X0227968Y0263697D01*
X0227915Y0263691D01*
X0227862Y0263689D01*
X0227809Y0263691D01*
X0227756Y0263697D01*
X0227704Y0263707D01*
X0227653Y0263720D01*
X0227603Y0263738D01*
X0227554Y0263759D01*
X0227507Y0263784D01*
X0227463Y0263812D01*
X0227420Y0263844D01*
X0227380Y0263878D01*
X0227342Y0263916D01*
X0227308Y0263956D01*
X0227276Y0263999D01*
X0227248Y0264044D01*
X0227223Y0264090D01*
X0227202Y0264139D01*
X0227184Y0264189D01*
X0227171Y0264240D01*
X0227161Y0264292D01*
X0227155Y0264345D01*
X0227153Y0264398D01*
X0235146Y0261051D02*
X0235146Y0272075D01*
X0131654Y0289866D02*
X0131654Y0294591D01*
X0089134Y0294591D01*
X0084409Y0289866D01*
X0084409Y0248134D02*
X0088346Y0243409D01*
X0131654Y0243409D01*
X0131654Y0248134D01*
X0081000Y0231500D02*
X0081000Y0210500D01*
X0026000Y0210500D01*
X0026000Y0231500D01*
X0081000Y0231500D01*
X0081000Y0191500D02*
X0081000Y0170500D01*
X0026000Y0170500D01*
X0026000Y0191500D01*
X0081000Y0191500D01*
X0081000Y0151500D02*
X0081000Y0130500D01*
X0026000Y0130500D01*
X0026000Y0151500D01*
X0081000Y0151500D01*
X0081000Y0111500D02*
X0081000Y0090500D01*
X0026000Y0090500D01*
X0026000Y0111500D01*
X0081000Y0111500D01*
X0081000Y0071500D02*
X0081000Y0050500D01*
X0026000Y0050500D01*
X0026000Y0071500D01*
X0081000Y0071500D01*
X0126000Y0051000D02*
X0126000Y0146000D01*
X0156000Y0146000D01*
X0156000Y0051000D01*
X0126000Y0051000D01*
X0157000Y0051000D02*
X0157000Y0146000D01*
X0187000Y0146000D01*
X0187000Y0051000D01*
X0157000Y0051000D01*
X0256000Y0071600D02*
X0256000Y0144400D01*
X0286400Y0144400D01*
X0286400Y0071600D01*
X0256000Y0071600D01*
X0287000Y0102000D02*
X0305000Y0102000D01*
X0306000Y0103000D01*
X0306000Y0111000D01*
X0305000Y0112000D01*
X0287000Y0112000D01*
M02*
