%
M48
M72
T01C0.0197
T02C0.0433
T03C0.0787
T04C0.1260
%
T01
X8900Y22550
X8900Y23150
X8900Y23750
X9600Y23750
X9600Y23150
X9600Y22550
X10300Y22550
X10300Y23150
X10300Y23750
X11100Y23750
X11100Y23150
X11100Y22550
X11900Y23150
X11900Y23750
X12700Y23750
X15400Y26100
X16800Y27600
X18700Y26150
X19050Y27200
X20400Y26450
X22200Y25800
X22650Y25400
X23350Y26650
X24000Y26300
X23850Y27250
X25000Y29150
X26100Y27259
X26950Y25100
X28050Y25600
X28300Y23800
X26300Y22100
X27500Y20250
X24500Y20250
X23900Y23450
X22200Y23500
X20900Y24500
X18550Y24650
X17650Y25050
X17300Y24650
X17400Y23550
X12700Y30050
X12000Y30050
X11200Y30050
X10400Y30050
X9700Y30050
X9000Y30050
X4300Y30900
X25350Y24600
X25650Y15600
T02
X7600Y14600
X7600Y13600
X7600Y10600
X7600Y9600
X7600Y6600
X7600Y5600
X7600Y17600
X7600Y18600
X7600Y21600
X7600Y22600
T03
X14100Y15800
X17200Y15800
X24100Y12650
X24100Y10800
X24100Y8950
X27850Y8200
X27850Y13400
T04
X2600Y2600
X11000Y12500
X20300Y12500
X28600Y2600
X28600Y32600
X2600Y32600
M30
