G75*
%MOIN*%
%OFA0B0*%
%FSLAX25Y25*%
%IPPOS*%
%LPD*%
%AMOC8*
5,1,8,0,0,1.08239X$1,22.5*
%
%ADD10R,0.04724X0.03150*%
%ADD11R,0.01575X0.03937*%
%ADD12R,0.03937X0.05512*%
%ADD13R,0.03150X0.05512*%
%ADD14R,0.03150X0.07480*%
%ADD15C,0.05906*%
%ADD16R,0.03512X0.10961*%
%ADD17R,0.04724X0.04724*%
%ADD18R,0.03150X0.04724*%
%ADD19C,0.11811*%
%ADD20R,0.11811X0.11811*%
%ADD21R,0.06496X0.06496*%
%ADD22C,0.06496*%
%ADD23R,0.01400X0.03937*%
%ADD24R,0.17008X0.04016*%
%ADD25R,0.39016X0.44016*%
%ADD26C,0.03937*%
%ADD27C,0.01000*%
%ADD28C,0.03200*%
%ADD29C,0.01200*%
%ADD30C,0.03569*%
%ADD31C,0.04000*%
%ADD32C,0.02400*%
%ADD33C,0.01600*%
%ADD34C,0.10000*%
%ADD35C,0.16598*%
D10*
X0168000Y0235457D03*
X0168000Y0242543D03*
X0168000Y0249457D03*
X0161000Y0249457D03*
X0154000Y0249457D03*
X0154000Y0256543D03*
X0161000Y0256543D03*
X0168000Y0256543D03*
X0168000Y0264457D03*
X0168000Y0271543D03*
X0168000Y0280457D03*
X0168000Y0287543D03*
X0198000Y0271543D03*
X0198000Y0264457D03*
X0197000Y0256543D03*
X0205000Y0256543D03*
X0205000Y0249457D03*
X0197000Y0249457D03*
X0190000Y0242543D03*
X0190000Y0235457D03*
X0181000Y0235457D03*
X0181000Y0242543D03*
X0213000Y0249457D03*
X0213000Y0256543D03*
X0222000Y0262457D03*
X0222000Y0269543D03*
X0233000Y0284457D03*
X0233000Y0291543D03*
X0244000Y0291543D03*
X0244000Y0284457D03*
X0222000Y0246543D03*
X0222000Y0239457D03*
X0245000Y0197543D03*
X0245000Y0190457D03*
X0244000Y0179543D03*
X0244000Y0172457D03*
X0275000Y0190457D03*
X0275000Y0197543D03*
X0074500Y0239957D03*
X0067500Y0239957D03*
X0060500Y0239957D03*
X0060500Y0247043D03*
X0067500Y0247043D03*
X0074500Y0247043D03*
X0062000Y0294957D03*
X0062000Y0302043D03*
D11*
X0179161Y0272165D03*
X0181720Y0272165D03*
X0184280Y0272165D03*
X0186839Y0272165D03*
X0186839Y0255235D03*
X0184280Y0255235D03*
X0181720Y0255235D03*
X0179161Y0255235D03*
D12*
X0230100Y0179731D03*
X0226360Y0171069D03*
X0233840Y0171069D03*
X0249260Y0221276D03*
X0256740Y0221276D03*
X0253000Y0230724D03*
D13*
X0254098Y0186201D03*
X0265902Y0186201D03*
D14*
X0260000Y0187201D03*
D15*
X0260984Y0193563D02*
X0259016Y0193563D01*
X0259016Y0201437D01*
X0260984Y0201437D01*
X0260984Y0193563D01*
X0260984Y0199468D02*
X0259016Y0199468D01*
D16*
X0264000Y0173811D03*
X0264000Y0156189D03*
X0043000Y0281689D03*
X0043000Y0299311D03*
D17*
X0286866Y0256000D03*
X0295134Y0256000D03*
X0295134Y0244000D03*
X0286866Y0244000D03*
X0286866Y0232000D03*
X0295134Y0232000D03*
D18*
X0294543Y0238000D03*
X0287457Y0238000D03*
X0287457Y0250000D03*
X0294543Y0250000D03*
X0294543Y0262000D03*
X0287457Y0262000D03*
D19*
X0278500Y0134000D03*
X0241000Y0108000D03*
X0241000Y0089500D03*
X0278500Y0082000D03*
X0172000Y0158000D03*
X0141000Y0158000D03*
D20*
X0241000Y0126500D03*
D21*
X0076000Y0136000D03*
X0076000Y0096000D03*
X0076000Y0056000D03*
X0076000Y0176000D03*
X0076000Y0216000D03*
D22*
X0076000Y0226000D03*
X0076000Y0186000D03*
X0076000Y0146000D03*
X0076000Y0106000D03*
X0076000Y0066000D03*
D23*
X0230563Y0238094D03*
X0232531Y0238094D03*
X0234500Y0238094D03*
X0236469Y0238094D03*
X0236469Y0249906D03*
X0234500Y0249906D03*
X0232531Y0249906D03*
X0230563Y0249906D03*
X0231500Y0260594D03*
X0229531Y0260594D03*
X0227563Y0260594D03*
X0233469Y0260594D03*
X0233469Y0272406D03*
X0231500Y0272406D03*
X0229531Y0272406D03*
X0227563Y0272406D03*
D24*
X0073996Y0275693D03*
X0073996Y0282386D03*
X0073996Y0269000D03*
X0073996Y0262307D03*
X0073996Y0255614D03*
D25*
X0110000Y0269000D03*
D26*
X0276000Y0301000D03*
X0226000Y0026000D03*
X0076000Y0026000D03*
D27*
X0226000Y0171000D02*
X0221000Y0176000D01*
X0221000Y0206000D01*
X0191000Y0236000D01*
X0190000Y0235457D01*
X0190000Y0242500D02*
X0190000Y0242543D01*
X0190000Y0242500D02*
X0181000Y0242500D01*
X0181000Y0242543D01*
X0181000Y0242500D02*
X0168000Y0242500D01*
X0168000Y0242543D01*
X0168000Y0249457D02*
X0161000Y0249457D01*
X0154000Y0249457D01*
X0149543Y0249457D01*
X0149000Y0250000D01*
X0149000Y0266000D01*
X0166000Y0266000D01*
X0168000Y0264457D01*
X0168000Y0271543D02*
X0168000Y0276000D01*
X0168000Y0280457D01*
X0168000Y0279500D01*
X0176000Y0278000D02*
X0176000Y0256500D01*
X0168000Y0256543D01*
X0161000Y0256543D02*
X0154000Y0256543D01*
X0154000Y0261000D01*
X0176000Y0278000D02*
X0176000Y0287500D01*
X0171000Y0287500D01*
X0168000Y0287543D01*
X0176000Y0278000D02*
X0179000Y0278000D01*
X0198000Y0278000D01*
X0198000Y0271543D01*
X0198000Y0271000D01*
X0221000Y0271000D01*
X0222000Y0269543D01*
X0221000Y0271000D02*
X0221000Y0281000D01*
X0231000Y0291000D01*
X0233000Y0291543D01*
X0231000Y0286000D02*
X0233000Y0284457D01*
X0231000Y0286000D02*
X0246000Y0286000D01*
X0244000Y0284457D01*
X0244000Y0291543D02*
X0250000Y0291543D01*
X0250000Y0291500D01*
X0221000Y0271000D02*
X0217000Y0266000D01*
X0217000Y0251000D01*
X0221000Y0246000D01*
X0222000Y0246543D01*
X0222000Y0239457D02*
X0222000Y0235000D01*
X0232531Y0238094D02*
X0232531Y0230813D01*
X0232700Y0227813D01*
X0232700Y0190500D01*
X0245000Y0190500D01*
X0245000Y0190457D02*
X0246000Y0191000D01*
X0246000Y0181000D02*
X0244000Y0179543D01*
X0246000Y0181000D02*
X0231000Y0181000D01*
X0230100Y0179731D01*
X0226360Y0171069D02*
X0226000Y0171000D01*
X0251000Y0146000D01*
X0251000Y0101000D01*
X0241000Y0091000D01*
X0241000Y0089500D01*
X0246000Y0172000D02*
X0244000Y0172457D01*
X0246000Y0172000D02*
X0264000Y0172000D01*
X0266000Y0172000D01*
X0266000Y0181000D01*
X0276000Y0181000D01*
X0276000Y0184500D01*
X0276000Y0191000D01*
X0275000Y0190457D01*
X0266000Y0186000D02*
X0266000Y0181000D01*
X0266000Y0186000D02*
X0265902Y0186201D01*
X0260000Y0187201D02*
X0260000Y0197543D01*
X0263000Y0221000D02*
X0263000Y0221276D01*
X0256740Y0221276D01*
X0249260Y0221276D02*
X0235500Y0221276D01*
X0235500Y0229000D01*
X0234500Y0231500D01*
X0234500Y0238094D01*
X0222000Y0258000D02*
X0222000Y0262457D01*
X0213000Y0256543D02*
X0205000Y0256543D01*
X0197000Y0256543D01*
X0198000Y0260000D02*
X0198000Y0264457D01*
X0198000Y0264500D01*
X0204000Y0264500D01*
X0205000Y0260000D02*
X0198000Y0260000D01*
X0205000Y0260000D02*
X0205000Y0256543D01*
X0205000Y0249457D02*
X0209000Y0249457D01*
X0213000Y0249457D01*
X0209000Y0249457D02*
X0209000Y0245000D01*
X0209000Y0249457D02*
X0203000Y0249500D01*
X0202957Y0249457D01*
X0197000Y0249457D01*
X0187000Y0255235D02*
X0187000Y0261500D01*
X0187000Y0255235D02*
X0186839Y0255235D01*
X0186839Y0272165D02*
X0190000Y0272165D01*
X0190500Y0272000D01*
X0181000Y0235457D02*
X0174000Y0235457D01*
X0174000Y0235500D01*
X0174000Y0235457D02*
X0168000Y0235457D01*
X0132000Y0290000D02*
X0085000Y0290000D01*
X0085000Y0307000D01*
X0132000Y0307000D01*
X0132000Y0290000D01*
X0132000Y0290568D02*
X0085000Y0290568D01*
X0085000Y0291567D02*
X0132000Y0291567D01*
X0132000Y0292565D02*
X0085000Y0292565D01*
X0085000Y0293564D02*
X0132000Y0293564D01*
X0132000Y0294562D02*
X0085000Y0294562D01*
X0085000Y0295561D02*
X0132000Y0295561D01*
X0132000Y0296559D02*
X0085000Y0296559D01*
X0085000Y0297558D02*
X0132000Y0297558D01*
X0132000Y0298556D02*
X0085000Y0298556D01*
X0085000Y0299555D02*
X0132000Y0299555D01*
X0132000Y0300553D02*
X0085000Y0300553D01*
X0085000Y0301552D02*
X0132000Y0301552D01*
X0132000Y0302550D02*
X0085000Y0302550D01*
X0085000Y0303549D02*
X0132000Y0303549D01*
X0132000Y0304547D02*
X0085000Y0304547D01*
X0085000Y0305546D02*
X0132000Y0305546D01*
X0132000Y0306544D02*
X0085000Y0306544D01*
X0082000Y0286000D02*
X0066000Y0286000D01*
X0066000Y0274000D01*
X0082000Y0274000D01*
X0082000Y0286000D01*
X0082000Y0285576D02*
X0066000Y0285576D01*
X0066000Y0284577D02*
X0082000Y0284577D01*
X0082000Y0283579D02*
X0066000Y0283579D01*
X0066000Y0282580D02*
X0082000Y0282580D01*
X0082000Y0281582D02*
X0066000Y0281582D01*
X0066000Y0280583D02*
X0082000Y0280583D01*
X0082000Y0279585D02*
X0066000Y0279585D01*
X0066000Y0278586D02*
X0082000Y0278586D01*
X0082000Y0277588D02*
X0066000Y0277588D01*
X0066000Y0276589D02*
X0082000Y0276589D01*
X0082000Y0275591D02*
X0066000Y0275591D01*
X0066000Y0274592D02*
X0082000Y0274592D01*
X0073996Y0255614D02*
X0073996Y0252004D01*
X0074000Y0251000D01*
X0074000Y0247543D01*
X0074500Y0247043D01*
X0067500Y0247043D01*
X0060500Y0247043D01*
X0269500Y0251000D02*
X0269500Y0261000D01*
X0286000Y0261000D01*
X0287457Y0262000D01*
X0294543Y0262000D02*
X0296000Y0261000D01*
X0296000Y0256000D01*
X0295134Y0256000D01*
X0296000Y0251000D02*
X0294543Y0250000D01*
X0296000Y0251000D02*
X0296000Y0246000D01*
X0295134Y0244000D01*
X0294543Y0238000D02*
X0296000Y0236000D01*
X0296000Y0231000D01*
X0295134Y0232000D01*
X0287457Y0238000D02*
X0283000Y0238000D01*
X0287457Y0250000D02*
X0286000Y0251000D01*
X0269500Y0251000D01*
D28*
X0275000Y0202500D02*
X0275000Y0197543D01*
X0275000Y0197500D01*
X0275000Y0197543D02*
X0260000Y0197543D01*
X0245000Y0197543D01*
X0245000Y0202500D01*
X0256500Y0156189D02*
X0256500Y0156000D01*
X0256500Y0156189D02*
X0264000Y0156189D01*
X0073996Y0262307D02*
X0061307Y0262307D01*
X0061000Y0262000D01*
X0052000Y0262000D02*
X0052000Y0270000D01*
X0048000Y0270000D01*
X0043000Y0275000D01*
X0043000Y0281689D01*
X0043000Y0299311D02*
X0047311Y0299311D01*
X0050000Y0302000D01*
X0061957Y0302000D01*
X0062000Y0302043D01*
X0062000Y0294957D02*
X0073957Y0294957D01*
X0074000Y0295000D01*
X0043000Y0299311D02*
X0043000Y0309000D01*
D29*
X0168000Y0249457D02*
X0173000Y0249457D01*
X0173000Y0246500D01*
X0176500Y0250500D02*
X0176500Y0251500D01*
X0179000Y0251500D01*
X0179000Y0255235D01*
X0179161Y0255235D01*
X0181720Y0255235D02*
X0182000Y0255235D01*
X0182000Y0265500D01*
X0184280Y0265500D01*
X0184280Y0272165D01*
X0181720Y0272165D02*
X0181720Y0276000D01*
X0194000Y0276000D01*
X0194000Y0268000D01*
X0193500Y0268000D01*
X0192000Y0266500D01*
X0192000Y0247000D01*
X0208500Y0230500D01*
X0230000Y0230500D01*
X0230000Y0235413D01*
X0230563Y0235413D01*
X0230563Y0238094D01*
X0232531Y0238094D02*
X0232531Y0249906D01*
X0230563Y0249906D01*
X0222000Y0249906D01*
X0222000Y0246543D01*
X0226500Y0254000D02*
X0227161Y0256500D01*
X0227563Y0256500D01*
X0227563Y0260594D01*
X0229531Y0260594D02*
X0229531Y0272406D01*
X0227563Y0272406D01*
X0225500Y0272406D01*
X0225500Y0272587D01*
X0225500Y0272406D02*
X0225500Y0269500D01*
X0222000Y0269500D01*
X0222000Y0269543D01*
X0231500Y0272406D02*
X0231500Y0277500D01*
X0233000Y0277500D01*
X0233000Y0279500D01*
X0233000Y0284457D01*
X0233000Y0279500D02*
X0243500Y0279500D01*
X0243500Y0253500D01*
X0234500Y0253500D01*
X0234500Y0249906D01*
X0236469Y0249906D02*
X0236469Y0249587D01*
X0259000Y0249587D01*
X0259000Y0232000D01*
X0286866Y0232000D01*
X0286866Y0244000D02*
X0261000Y0244000D01*
X0261000Y0272587D01*
X0280500Y0256000D02*
X0286866Y0256000D01*
X0253500Y0246000D02*
X0253500Y0230724D01*
X0253000Y0230724D01*
X0239000Y0234500D02*
X0239000Y0238094D01*
X0236469Y0238094D01*
X0240000Y0257000D02*
X0231500Y0257000D01*
X0231500Y0260594D01*
X0233469Y0260594D02*
X0233500Y0260594D01*
X0233500Y0266500D01*
X0233469Y0272406D02*
X0238500Y0272406D01*
X0238500Y0272500D01*
X0240000Y0263000D02*
X0240000Y0257000D01*
X0185500Y0250500D02*
X0185500Y0246500D01*
X0185500Y0250500D02*
X0184280Y0250500D01*
X0184280Y0255235D01*
X0181720Y0255235D02*
X0181720Y0242543D01*
X0181000Y0242543D01*
X0179161Y0272165D02*
X0179000Y0272165D01*
X0179000Y0278000D01*
X0245000Y0190500D02*
X0245000Y0190457D01*
X0233840Y0171069D02*
X0226360Y0171069D01*
X0264000Y0172000D02*
X0264000Y0173811D01*
D30*
X0256500Y0156000D03*
X0245000Y0202500D03*
X0263000Y0221000D03*
X0275000Y0202500D03*
X0283000Y0238000D03*
X0280500Y0256000D03*
X0269500Y0251000D03*
X0253500Y0246000D03*
X0239000Y0234500D03*
X0222000Y0235000D03*
X0209000Y0245000D03*
X0222000Y0258000D03*
X0226500Y0254000D03*
X0233500Y0266500D03*
X0240000Y0263000D03*
X0238500Y0272500D03*
X0250000Y0291500D03*
X0261000Y0272587D03*
X0204000Y0264500D03*
X0190500Y0272000D03*
X0187000Y0261500D03*
X0185500Y0246500D03*
X0176500Y0250500D03*
X0173000Y0246500D03*
X0174000Y0235500D03*
X0154000Y0261000D03*
X0168000Y0276000D03*
X0127000Y0300500D03*
X0120000Y0300500D03*
X0112000Y0300500D03*
X0104000Y0300500D03*
X0097000Y0300500D03*
X0090000Y0300500D03*
X0043000Y0309000D03*
X0089000Y0237500D03*
X0089000Y0231500D03*
X0089000Y0225500D03*
X0096000Y0225500D03*
X0096000Y0231500D03*
X0096000Y0237500D03*
X0103000Y0237500D03*
X0103000Y0231500D03*
X0103000Y0225500D03*
X0111000Y0225500D03*
X0111000Y0231500D03*
X0111000Y0237500D03*
X0119000Y0237500D03*
X0119000Y0231500D03*
X0127000Y0237500D03*
D31*
X0110000Y0269000D02*
X0073996Y0269000D01*
D32*
X0074000Y0275000D02*
X0073996Y0275004D01*
X0073996Y0275693D01*
X0073996Y0282386D01*
X0074000Y0282382D01*
X0074500Y0239957D02*
X0067500Y0239957D01*
X0060500Y0239957D02*
X0043043Y0239957D01*
X0043000Y0240000D01*
X0074500Y0239957D02*
X0074500Y0227500D01*
X0076000Y0226000D01*
X0245000Y0190457D02*
X0245000Y0186201D01*
X0254098Y0186201D01*
D33*
X0132000Y0193000D02*
X0113200Y0171100D01*
X0113000Y0147000D01*
X0085000Y0147000D01*
X0085000Y0249000D01*
X0132000Y0249000D01*
X0132000Y0193000D01*
X0131847Y0192821D02*
X0085000Y0192821D01*
X0085000Y0191223D02*
X0130474Y0191223D01*
X0129102Y0189624D02*
X0085000Y0189624D01*
X0085000Y0188026D02*
X0127730Y0188026D01*
X0126358Y0186427D02*
X0085000Y0186427D01*
X0085000Y0184829D02*
X0124985Y0184829D01*
X0123613Y0183230D02*
X0085000Y0183230D01*
X0085000Y0181632D02*
X0122241Y0181632D01*
X0120869Y0180033D02*
X0085000Y0180033D01*
X0085000Y0178435D02*
X0119497Y0178435D01*
X0118124Y0176836D02*
X0085000Y0176836D01*
X0085000Y0175238D02*
X0116752Y0175238D01*
X0115380Y0173639D02*
X0085000Y0173639D01*
X0085000Y0172041D02*
X0114008Y0172041D01*
X0113195Y0170442D02*
X0085000Y0170442D01*
X0085000Y0168844D02*
X0113181Y0168844D01*
X0113168Y0167245D02*
X0085000Y0167245D01*
X0085000Y0165647D02*
X0113155Y0165647D01*
X0113141Y0164048D02*
X0085000Y0164048D01*
X0085000Y0162450D02*
X0113128Y0162450D01*
X0113115Y0160851D02*
X0085000Y0160851D01*
X0085000Y0159253D02*
X0113102Y0159253D01*
X0113088Y0157654D02*
X0085000Y0157654D01*
X0085000Y0156056D02*
X0113075Y0156056D01*
X0113062Y0154457D02*
X0085000Y0154457D01*
X0085000Y0152859D02*
X0113049Y0152859D01*
X0113035Y0151260D02*
X0085000Y0151260D01*
X0085000Y0149662D02*
X0113022Y0149662D01*
X0113009Y0148063D02*
X0085000Y0148063D01*
X0085000Y0194420D02*
X0132000Y0194420D01*
X0132000Y0196018D02*
X0085000Y0196018D01*
X0085000Y0197617D02*
X0132000Y0197617D01*
X0132000Y0199215D02*
X0085000Y0199215D01*
X0085000Y0200814D02*
X0132000Y0200814D01*
X0132000Y0202412D02*
X0085000Y0202412D01*
X0085000Y0204011D02*
X0132000Y0204011D01*
X0132000Y0205609D02*
X0085000Y0205609D01*
X0085000Y0207208D02*
X0132000Y0207208D01*
X0132000Y0208806D02*
X0085000Y0208806D01*
X0085000Y0210405D02*
X0132000Y0210405D01*
X0132000Y0212003D02*
X0085000Y0212003D01*
X0085000Y0213602D02*
X0132000Y0213602D01*
X0132000Y0215201D02*
X0085000Y0215201D01*
X0085000Y0216799D02*
X0132000Y0216799D01*
X0132000Y0218398D02*
X0085000Y0218398D01*
X0085000Y0219996D02*
X0132000Y0219996D01*
X0132000Y0221595D02*
X0085000Y0221595D01*
X0085000Y0223193D02*
X0132000Y0223193D01*
X0132000Y0224792D02*
X0085000Y0224792D01*
X0085000Y0226390D02*
X0132000Y0226390D01*
X0132000Y0227989D02*
X0085000Y0227989D01*
X0085000Y0229587D02*
X0132000Y0229587D01*
X0132000Y0231186D02*
X0085000Y0231186D01*
X0085000Y0232784D02*
X0132000Y0232784D01*
X0132000Y0234383D02*
X0085000Y0234383D01*
X0085000Y0235981D02*
X0132000Y0235981D01*
X0132000Y0237580D02*
X0085000Y0237580D01*
X0085000Y0239178D02*
X0132000Y0239178D01*
X0132000Y0240777D02*
X0085000Y0240777D01*
X0085000Y0242375D02*
X0132000Y0242375D01*
X0132000Y0243974D02*
X0085000Y0243974D01*
X0085000Y0245572D02*
X0132000Y0245572D01*
X0132000Y0247171D02*
X0085000Y0247171D01*
X0085000Y0248769D02*
X0132000Y0248769D01*
D34*
X0141000Y0187000D02*
X0141000Y0311000D01*
X0134000Y0316000D01*
X0078000Y0316000D01*
X0074000Y0309000D01*
X0074000Y0295000D01*
X0074000Y0282390D01*
X0073996Y0282386D01*
X0061000Y0262000D02*
X0052000Y0262000D01*
X0047000Y0262000D01*
X0043000Y0258000D01*
X0043000Y0240000D01*
X0043000Y0216000D01*
X0076000Y0216000D01*
X0043000Y0216000D02*
X0043000Y0176000D01*
X0076000Y0176000D01*
X0043000Y0176000D02*
X0043000Y0137000D01*
X0044000Y0136000D01*
X0076000Y0136000D01*
X0043000Y0137000D02*
X0043000Y0096000D01*
X0076000Y0096000D01*
X0043000Y0096000D02*
X0043000Y0068000D01*
X0055000Y0056000D01*
X0076000Y0056000D01*
X0160700Y0089300D02*
X0122300Y0141100D01*
X0122300Y0165200D01*
X0141000Y0187000D01*
X0141000Y0158000D02*
X0141000Y0148100D01*
X0169600Y0107800D01*
X0241000Y0108000D01*
X0241000Y0089500D02*
X0160700Y0089300D01*
D35*
X0026000Y0026000D03*
X0286000Y0026000D03*
X0286000Y0326000D03*
X0026000Y0326000D03*
M02*
